M48
INCH,TZ
T1C0.016
T2C0.031
T3C0.032
T4C0.032
T5C0.036
T6C0.039
T7C0.040
T8C0.064
T9C0.091
T10C0.126
T11C0.043
T12C0.063
T13C0.128
%
G90
G05
T1
X5.15Y-4.075
X5.85Y-4.3557
X5.95Y-4.
X6.1Y-4.05
X6.15Y-4.
X6.2037Y-4.3222
X6.35Y-4.1724
X6.725Y-3.15
X7.1Y-4.0496
X7.1Y-4.1126
X7.25Y-4.15
X7.35Y-4.15
X7.55Y-4.15
X7.9Y-3.15
T2
X3.15Y-4.0516
X3.15Y-4.15
X3.4Y-4.0516
X3.4Y-4.15
X3.4Y-4.3
X3.4Y-4.3984
X3.75Y-4.2
X3.85Y-4.2
X3.95Y-4.2
X4.15Y-4.2
X4.25Y-4.2
X5.35Y-3.6
X5.35Y-3.9
X5.45Y-3.6
X5.45Y-3.9
X5.55Y-3.6
X5.55Y-3.9
X5.65Y-3.6
X5.65Y-3.9
X5.75Y-3.6
X5.75Y-3.9
X5.85Y-3.6
X5.85Y-3.9
X5.95Y-3.6
X5.95Y-3.9
X6.05Y-3.6
X6.05Y-3.9
X6.15Y-3.6
X6.15Y-3.9
X6.25Y-3.6
X6.25Y-3.9
X6.35Y-3.6
X6.35Y-3.9
X6.45Y-3.6
X6.45Y-3.9
X6.55Y-3.6
X6.55Y-3.9
X6.65Y-3.6
X6.65Y-3.9
T3
X3.6951Y-4.0511
X3.7951Y-4.0511
X3.8951Y-4.0511
X3.9951Y-4.0511
X4.1451Y-4.0511
X4.2451Y-4.0511
X4.65Y-3.9
X4.65Y-4.
X4.85Y-3.9
X4.85Y-4.
X5.35Y-3.35
X5.35Y-3.45
X5.35Y-4.05
X5.45Y-4.05
X5.55Y-3.35
X5.55Y-3.45
X5.675Y-3.15
X5.75Y-3.35
X5.775Y-3.15
X5.925Y-3.15
X5.9422Y-3.35
X6.025Y-3.15
X6.15Y-3.35
X6.15Y-3.45
X6.25Y-3.35
X6.25Y-3.45
X6.65Y-3.35
X6.65Y-3.45
T4
X3.95Y-3.45
X3.95Y-3.5287
X4.05Y-3.45
X4.05Y-3.5287
X4.5Y-4.35
X5.Y-4.35
T5
X4.576Y-3.708
X4.626Y-3.608
X4.676Y-3.708
X4.726Y-3.608
X4.776Y-3.708
X4.826Y-3.608
X4.876Y-3.708
X4.926Y-3.608
T6
X4.5Y-3.9
X4.5Y-4.2
X5.Y-3.9
X5.Y-4.2
X6.4Y-3.15
X6.4Y-3.45
X6.45Y-4.05
X6.45Y-4.35
X6.5Y-3.15
X6.5Y-3.45
X6.55Y-4.05
X6.55Y-4.35
X6.65Y-4.05
X6.65Y-4.35
T7
X3.15Y-3.65
X3.15Y-3.75
X3.15Y-3.85
X3.45Y-3.75
X3.45Y-3.85
X3.6Y-3.75
X3.6Y-3.85
X3.9Y-3.75
X4.Y-3.75
X4.1Y-3.75
X4.2Y-3.75
X4.501Y-3.225
X4.601Y-3.165
X4.9Y-3.225
X5.Y-3.165
X5.75Y-4.2
X5.75Y-4.3
X5.85Y-4.2
X5.85Y-4.3
X5.95Y-4.2
X5.95Y-4.3
X6.05Y-4.2
X6.05Y-4.3
X6.15Y-4.2
X6.15Y-4.3
T8
X4.441Y-3.478
X5.061Y-3.478
T9
X3.7638Y-3.3437
X4.2362Y-3.3437
T10
X3.15Y-3.15
X3.15Y-4.35
X5.3Y-3.15
X5.3Y-4.35
X8.15Y-3.15
X8.15Y-4.35
T11
X7.8767Y-4.1322
T12
X7.05Y-4.1322
T13
X4.526Y-3.358
X4.976Y-3.358
T0
M30
