G04 #@! TF.FileFunction,Copper,L2,Bot,Signal*
%FSLAX46Y46*%
G04 Gerber Fmt 4.6, Leading zero omitted, Abs format (unit mm)*
G04 Created by KiCad (PCBNEW 4.0.1-stable) date 2016 February 17, Wednesday 21:26:15*
%MOMM*%
G01*
G04 APERTURE LIST*
%ADD10C,0.100000*%
%ADD11R,1.727200X1.727200*%
%ADD12O,1.727200X1.727200*%
%ADD13C,5.000000*%
%ADD14C,1.998980*%
%ADD15C,1.524000*%
%ADD16C,2.700020*%
%ADD17O,1.600000X2.300000*%
%ADD18R,1.727200X2.032000*%
%ADD19O,1.727200X2.032000*%
%ADD20C,1.501140*%
%ADD21O,1.200000X2.000000*%
%ADD22R,1.300000X1.300000*%
%ADD23C,1.300000*%
%ADD24R,2.032000X2.032000*%
%ADD25O,2.032000X2.032000*%
%ADD26R,2.032000X1.727200*%
%ADD27O,2.032000X1.727200*%
%ADD28O,1.371600X1.371600*%
%ADD29O,2.438400X2.438400*%
%ADD30O,1.524000X1.524000*%
%ADD31C,0.600000*%
%ADD32C,0.500000*%
%ADD33C,1.000000*%
%ADD34C,0.254000*%
G04 APERTURE END LIST*
D10*
D11*
X156210000Y-106680000D03*
D12*
X156210000Y-109220000D03*
X153670000Y-106680000D03*
X153670000Y-109220000D03*
X151130000Y-106680000D03*
X151130000Y-109220000D03*
X148590000Y-106680000D03*
X148590000Y-109220000D03*
X146050000Y-106680000D03*
X146050000Y-109220000D03*
D13*
X207010000Y-110490000D03*
X207010000Y-80010000D03*
X134620000Y-110490000D03*
X134620000Y-80010000D03*
X80010000Y-110490000D03*
D14*
X168910000Y-110490000D03*
X168910000Y-102870000D03*
X162560000Y-80010000D03*
X162560000Y-87630000D03*
X165100000Y-87630000D03*
X165100000Y-80010000D03*
X166370000Y-110490000D03*
X166370000Y-102870000D03*
X163830000Y-102870000D03*
X163830000Y-110490000D03*
X114300000Y-99060000D03*
X114300000Y-106680000D03*
X127000000Y-99060000D03*
X127000000Y-106680000D03*
D15*
X102870000Y-89628980D03*
X100330000Y-89628980D03*
X100330000Y-87630000D03*
X102870000Y-87630000D03*
D16*
X107599480Y-84929980D03*
X95600520Y-84929980D03*
D17*
X135890000Y-99060000D03*
X138430000Y-99060000D03*
X140970000Y-99060000D03*
X143510000Y-99060000D03*
X146050000Y-99060000D03*
X148590000Y-99060000D03*
X151130000Y-99060000D03*
X153670000Y-99060000D03*
X156210000Y-99060000D03*
X158750000Y-99060000D03*
X161290000Y-99060000D03*
X163830000Y-99060000D03*
X166370000Y-99060000D03*
X168910000Y-99060000D03*
X168910000Y-91440000D03*
X166370000Y-91440000D03*
X163830000Y-91440000D03*
X161290000Y-91440000D03*
X158750000Y-91440000D03*
X156210000Y-91440000D03*
X153670000Y-91440000D03*
X151130000Y-91440000D03*
X148590000Y-91440000D03*
X146050000Y-91440000D03*
X143510000Y-91440000D03*
X140970000Y-91440000D03*
X138430000Y-91440000D03*
X135890000Y-91440000D03*
D15*
X127000000Y-110490000D03*
X114300000Y-110490000D03*
D18*
X99060000Y-95250000D03*
D19*
X101600000Y-95250000D03*
X104140000Y-95250000D03*
X106680000Y-95250000D03*
D20*
X150931880Y-85090000D03*
X146050000Y-85090000D03*
D13*
X80010000Y-80010000D03*
D20*
X123190000Y-99060000D03*
X123190000Y-101600000D03*
X118110000Y-99060000D03*
X118110000Y-101600000D03*
X146685000Y-80010000D03*
X144145000Y-80010000D03*
X150495000Y-80010000D03*
X153035000Y-80010000D03*
X135890000Y-87630000D03*
X135890000Y-85090000D03*
X140970000Y-85090000D03*
X140970000Y-87630000D03*
X156210000Y-85090000D03*
X156210000Y-87630000D03*
X158750000Y-85090000D03*
X158750000Y-87630000D03*
X168910000Y-85090000D03*
X168910000Y-87630000D03*
X135890000Y-102870000D03*
X138430000Y-102870000D03*
D21*
X107950000Y-106680000D03*
X105410000Y-106680000D03*
X100330000Y-106680000D03*
X97790000Y-106680000D03*
X95250000Y-106680000D03*
D20*
X98936265Y-102898491D03*
X101476265Y-102898491D03*
D22*
X80010000Y-105410000D03*
D23*
X80010000Y-102910000D03*
D22*
X86360000Y-102910000D03*
D23*
X86360000Y-105410000D03*
D20*
X105286265Y-102898491D03*
X107826265Y-102898491D03*
X93856265Y-102898491D03*
X96396265Y-102898491D03*
D22*
X86360000Y-109220000D03*
D23*
X86360000Y-111720000D03*
D24*
X87630000Y-95250000D03*
D25*
X87630000Y-97790000D03*
D24*
X91440000Y-95250000D03*
D25*
X91440000Y-97790000D03*
D26*
X80010000Y-97790000D03*
D27*
X80010000Y-95250000D03*
X80010000Y-92710000D03*
D28*
X125120400Y-91643200D03*
X123850400Y-94183200D03*
X122580400Y-91643200D03*
X121310400Y-94183200D03*
X120040400Y-91643200D03*
X118770400Y-94183200D03*
X117500400Y-91643200D03*
X116230400Y-94183200D03*
D29*
X112801400Y-88341200D03*
X128549400Y-88341200D03*
D30*
X127000000Y-80391000D03*
X116865400Y-80391000D03*
X124460000Y-81915000D03*
X114325400Y-81915000D03*
D31*
X200660000Y-80010000D03*
X184150000Y-105410000D03*
X191770000Y-105410000D03*
X170815000Y-80010000D03*
X156210000Y-101600000D03*
X186690000Y-105410000D03*
X154940000Y-102870000D03*
X130810000Y-103505000D03*
X161290000Y-105979990D03*
X148590000Y-110633603D03*
X151130000Y-101600000D03*
X157573601Y-109783591D03*
X180340000Y-102859039D03*
X180340000Y-104459059D03*
D32*
X150931880Y-85090000D02*
X150931880Y-80446880D01*
X150931880Y-80446880D02*
X150495000Y-80010000D01*
X148590000Y-91440000D02*
X148590000Y-87431880D01*
X148590000Y-87431880D02*
X150931880Y-85090000D01*
X146050000Y-85090000D02*
X146050000Y-80645000D01*
X146050000Y-80645000D02*
X146685000Y-80010000D01*
X146050000Y-91440000D02*
X146050000Y-85090000D01*
D33*
X156210000Y-101600000D02*
X154940000Y-102870000D01*
X156849990Y-100960010D02*
X156210000Y-101600000D01*
X186690000Y-105410000D02*
X181082045Y-99802045D01*
X181082045Y-99802045D02*
X170710000Y-99802045D01*
X168910000Y-91790000D02*
X170710000Y-93590000D01*
X170710000Y-99802045D02*
X169552035Y-100960010D01*
X170710000Y-93590000D02*
X170710000Y-99802045D01*
X169552035Y-100960010D02*
X156849990Y-100960010D01*
X168910000Y-91440000D02*
X168910000Y-91790000D01*
X130810000Y-99475100D02*
X130810000Y-103505000D01*
X135890000Y-91440000D02*
X135890000Y-94395100D01*
X135890000Y-94395100D02*
X130810000Y-99475100D01*
D32*
X151130000Y-106680000D02*
X148590000Y-104140000D01*
X148590000Y-104140000D02*
X148590000Y-99060000D01*
X161290000Y-105979990D02*
X160250011Y-104940001D01*
X160250011Y-104940001D02*
X152869999Y-104940001D01*
X152869999Y-104940001D02*
X151130000Y-106680000D01*
X148590000Y-98710000D02*
X148590000Y-99060000D01*
X148590000Y-110633603D02*
X149716397Y-110633603D01*
X149716397Y-110633603D02*
X151130000Y-109220000D01*
X151130000Y-99410000D02*
X151130000Y-99060000D01*
X153670000Y-98710000D02*
X153670000Y-99060000D01*
X151130000Y-101600000D02*
X154020000Y-101600000D01*
X154020000Y-101600000D02*
X156210000Y-99410000D01*
X156210000Y-99410000D02*
X156210000Y-99060000D01*
X157573601Y-109783591D02*
X156014526Y-111433604D01*
X156014526Y-111433604D02*
X147042290Y-111433604D01*
X147042290Y-111433604D02*
X146050000Y-110441314D01*
X146050000Y-110441314D02*
X146050000Y-109220000D01*
X180340000Y-104459059D02*
X180340000Y-102859039D01*
X163830000Y-99060000D02*
X163576000Y-99060000D01*
X132715000Y-100045000D02*
X132714999Y-104565675D01*
X132714999Y-104565675D02*
X130600674Y-106680000D01*
X130600674Y-106680000D02*
X127000000Y-106680000D01*
X140970000Y-91440000D02*
X140970000Y-91790000D01*
X140970000Y-91790000D02*
X132715000Y-100045000D01*
X138430000Y-91440000D02*
X138430000Y-93269326D01*
X138430000Y-93269326D02*
X131964990Y-99734336D01*
X131964990Y-99734336D02*
X131964990Y-104255010D01*
X116205000Y-104775000D02*
X114300000Y-106680000D01*
X131964990Y-104255010D02*
X131445000Y-104775000D01*
X131445000Y-104775000D02*
X116205000Y-104775000D01*
X138430000Y-91440000D02*
X138430000Y-91790000D01*
X123190000Y-99060000D02*
X123190000Y-95277786D01*
X123190000Y-95277786D02*
X122580400Y-94668186D01*
X122580400Y-94668186D02*
X122580400Y-91643200D01*
D33*
X80010000Y-102910000D02*
X82590000Y-100330000D01*
X98449062Y-104399062D02*
X100330000Y-106280000D01*
X82590000Y-100330000D02*
X89066928Y-100330000D01*
X89066928Y-100330000D02*
X93135990Y-104399062D01*
X100330000Y-106280000D02*
X100330000Y-106680000D01*
X93135990Y-104399062D02*
X98449062Y-104399062D01*
D32*
X114300000Y-99060000D02*
X111082199Y-95842199D01*
X111082199Y-95842199D02*
X111082199Y-85158201D01*
X111082199Y-85158201D02*
X114325400Y-81915000D01*
X127000000Y-99060000D02*
X130810000Y-95250000D01*
X130810000Y-95250000D02*
X130810000Y-84201000D01*
X130810000Y-84201000D02*
X127000000Y-80391000D01*
D34*
G36*
X132586445Y-77610313D02*
X131963826Y-78231847D01*
X131485546Y-79383674D01*
X131484457Y-80630854D01*
X131960727Y-81783515D01*
X132841847Y-82666174D01*
X133993674Y-83144454D01*
X135240854Y-83145543D01*
X136393515Y-82669273D01*
X137276174Y-81788153D01*
X137610946Y-80981930D01*
X143352675Y-80981930D01*
X143420735Y-81222931D01*
X143940034Y-81407767D01*
X144490538Y-81379805D01*
X144869265Y-81222931D01*
X144937325Y-80981930D01*
X144145000Y-80189605D01*
X143352675Y-80981930D01*
X137610946Y-80981930D01*
X137754454Y-80636326D01*
X137755179Y-79805034D01*
X142747233Y-79805034D01*
X142775195Y-80355538D01*
X142932069Y-80734265D01*
X143173070Y-80802325D01*
X143965395Y-80010000D01*
X143173070Y-79217675D01*
X142932069Y-79285735D01*
X142747233Y-79805034D01*
X137755179Y-79805034D01*
X137755543Y-79389146D01*
X137610482Y-79038070D01*
X143352675Y-79038070D01*
X144145000Y-79830395D01*
X144937325Y-79038070D01*
X144869265Y-78797069D01*
X144349966Y-78612233D01*
X143799462Y-78640195D01*
X143420735Y-78797069D01*
X143352675Y-79038070D01*
X137610482Y-79038070D01*
X137279273Y-78236485D01*
X136655594Y-77611717D01*
X204951447Y-77635268D01*
X204353826Y-78231847D01*
X203875546Y-79383674D01*
X203874457Y-80630854D01*
X204350727Y-81783515D01*
X205231847Y-82666174D01*
X206383674Y-83144454D01*
X207630854Y-83145543D01*
X208783515Y-82669273D01*
X209423000Y-82030903D01*
X209423000Y-108469782D01*
X208788153Y-107833826D01*
X207636326Y-107355546D01*
X206389146Y-107354457D01*
X205236485Y-107830727D01*
X204353826Y-108711847D01*
X203875546Y-109863674D01*
X203874457Y-111110854D01*
X204350727Y-112263515D01*
X205027041Y-112941010D01*
X136630065Y-112913136D01*
X137276174Y-112268153D01*
X137754454Y-111116326D01*
X137755543Y-109869146D01*
X137279273Y-108716485D01*
X136398153Y-107833826D01*
X135246326Y-107355546D01*
X133999146Y-107354457D01*
X132846485Y-107830727D01*
X131963826Y-108711847D01*
X131485546Y-109863674D01*
X131484457Y-111110854D01*
X131960727Y-112263515D01*
X132607579Y-112911497D01*
X111887000Y-112903052D01*
X111887000Y-110766661D01*
X112902758Y-110766661D01*
X113114990Y-111280303D01*
X113507630Y-111673629D01*
X114020900Y-111886757D01*
X114576661Y-111887242D01*
X115090303Y-111675010D01*
X115483629Y-111282370D01*
X115696757Y-110769100D01*
X115696759Y-110766661D01*
X125602758Y-110766661D01*
X125814990Y-111280303D01*
X126207630Y-111673629D01*
X126720900Y-111886757D01*
X127276661Y-111887242D01*
X127790303Y-111675010D01*
X128183629Y-111282370D01*
X128396757Y-110769100D01*
X128397242Y-110213339D01*
X128185010Y-109699697D01*
X127792370Y-109306371D01*
X127279100Y-109093243D01*
X126723339Y-109092758D01*
X126209697Y-109304990D01*
X125816371Y-109697630D01*
X125603243Y-110210900D01*
X125602758Y-110766661D01*
X115696759Y-110766661D01*
X115697242Y-110213339D01*
X115485010Y-109699697D01*
X115092370Y-109306371D01*
X114579100Y-109093243D01*
X114023339Y-109092758D01*
X113509697Y-109304990D01*
X113116371Y-109697630D01*
X112903243Y-110210900D01*
X112902758Y-110766661D01*
X111887000Y-110766661D01*
X111887000Y-107003694D01*
X112665226Y-107003694D01*
X112913538Y-107604655D01*
X113372927Y-108064846D01*
X113973453Y-108314206D01*
X114623694Y-108314774D01*
X115224655Y-108066462D01*
X115684846Y-107607073D01*
X115934206Y-107006547D01*
X115934774Y-106356306D01*
X115917377Y-106314202D01*
X116571579Y-105660000D01*
X125708243Y-105660000D01*
X125615154Y-105752927D01*
X125365794Y-106353453D01*
X125365226Y-107003694D01*
X125613538Y-107604655D01*
X126072927Y-108064846D01*
X126673453Y-108314206D01*
X127323694Y-108314774D01*
X127924655Y-108066462D01*
X128384846Y-107607073D01*
X128402316Y-107565000D01*
X130600669Y-107565000D01*
X130600674Y-107565001D01*
X130883158Y-107508810D01*
X130939349Y-107497633D01*
X131226464Y-107305790D01*
X131226465Y-107305789D01*
X133340786Y-105191467D01*
X133340789Y-105191465D01*
X133532632Y-104904350D01*
X133537541Y-104879673D01*
X133600000Y-104565675D01*
X133599999Y-104565670D01*
X133599999Y-103144398D01*
X134504190Y-103144398D01*
X134714686Y-103653837D01*
X135104113Y-104043944D01*
X135613184Y-104255329D01*
X136164398Y-104255810D01*
X136673837Y-104045314D01*
X136877576Y-103841930D01*
X137637675Y-103841930D01*
X137705735Y-104082931D01*
X138225034Y-104267767D01*
X138775538Y-104239805D01*
X139154265Y-104082931D01*
X139222325Y-103841930D01*
X138430000Y-103049605D01*
X137637675Y-103841930D01*
X136877576Y-103841930D01*
X137063944Y-103655887D01*
X137153379Y-103440504D01*
X137217069Y-103594265D01*
X137458070Y-103662325D01*
X138250395Y-102870000D01*
X138609605Y-102870000D01*
X139401930Y-103662325D01*
X139642931Y-103594265D01*
X139827767Y-103074966D01*
X139799805Y-102524462D01*
X139642931Y-102145735D01*
X139401930Y-102077675D01*
X138609605Y-102870000D01*
X138250395Y-102870000D01*
X137458070Y-102077675D01*
X137217069Y-102145735D01*
X137158231Y-102311040D01*
X137065314Y-102086163D01*
X136877549Y-101898070D01*
X137637675Y-101898070D01*
X138430000Y-102690395D01*
X139222325Y-101898070D01*
X139154265Y-101657069D01*
X138634966Y-101472233D01*
X138084462Y-101500195D01*
X137705735Y-101657069D01*
X137637675Y-101898070D01*
X136877549Y-101898070D01*
X136675887Y-101696056D01*
X136166816Y-101484671D01*
X135615602Y-101484190D01*
X135106163Y-101694686D01*
X134716056Y-102084113D01*
X134504671Y-102593184D01*
X134504190Y-103144398D01*
X133599999Y-103144398D01*
X133600000Y-100411580D01*
X134473517Y-99538063D01*
X134564233Y-99994121D01*
X134875302Y-100459668D01*
X135340849Y-100770737D01*
X135890000Y-100879970D01*
X136439151Y-100770737D01*
X136904698Y-100459668D01*
X137157149Y-100081849D01*
X137505104Y-100514500D01*
X137998181Y-100784367D01*
X138080961Y-100801904D01*
X138303000Y-100679915D01*
X138303000Y-99187000D01*
X138283000Y-99187000D01*
X138283000Y-98933000D01*
X138303000Y-98933000D01*
X138303000Y-97440085D01*
X138557000Y-97440085D01*
X138557000Y-98933000D01*
X138577000Y-98933000D01*
X138577000Y-99187000D01*
X138557000Y-99187000D01*
X138557000Y-100679915D01*
X138779039Y-100801904D01*
X138861819Y-100784367D01*
X139354896Y-100514500D01*
X139702851Y-100081849D01*
X139955302Y-100459668D01*
X140420849Y-100770737D01*
X140970000Y-100879970D01*
X141519151Y-100770737D01*
X141984698Y-100459668D01*
X142240000Y-100077582D01*
X142495302Y-100459668D01*
X142960849Y-100770737D01*
X143510000Y-100879970D01*
X144059151Y-100770737D01*
X144524698Y-100459668D01*
X144780000Y-100077582D01*
X145035302Y-100459668D01*
X145500849Y-100770737D01*
X146050000Y-100879970D01*
X146599151Y-100770737D01*
X147064698Y-100459668D01*
X147320000Y-100077582D01*
X147575302Y-100459668D01*
X147705000Y-100546330D01*
X147705000Y-104139995D01*
X147704999Y-104140000D01*
X147738331Y-104307566D01*
X147772367Y-104478675D01*
X147964210Y-104765790D01*
X148409820Y-105211400D01*
X147987152Y-105295474D01*
X147500971Y-105620330D01*
X147320000Y-105891172D01*
X147139029Y-105620330D01*
X146652848Y-105295474D01*
X146079359Y-105181400D01*
X146020641Y-105181400D01*
X145447152Y-105295474D01*
X144960971Y-105620330D01*
X144636115Y-106106511D01*
X144522041Y-106680000D01*
X144636115Y-107253489D01*
X144960971Y-107739670D01*
X145275752Y-107950000D01*
X144960971Y-108160330D01*
X144636115Y-108646511D01*
X144522041Y-109220000D01*
X144636115Y-109793489D01*
X144960971Y-110279670D01*
X145165000Y-110415998D01*
X145165000Y-110441309D01*
X145164999Y-110441314D01*
X145203249Y-110633603D01*
X145232367Y-110779989D01*
X145296103Y-110875377D01*
X145424210Y-111067104D01*
X146416498Y-112059391D01*
X146416500Y-112059394D01*
X146703615Y-112251237D01*
X146750198Y-112260503D01*
X147042290Y-112318605D01*
X147042295Y-112318604D01*
X156014526Y-112318604D01*
X156027025Y-112316118D01*
X156039595Y-112318250D01*
X156195951Y-112282516D01*
X156353201Y-112251237D01*
X156363799Y-112244156D01*
X156376225Y-112241316D01*
X156506973Y-112148490D01*
X156640316Y-112059394D01*
X156647398Y-112048794D01*
X156657791Y-112041416D01*
X157817848Y-110813694D01*
X162195226Y-110813694D01*
X162443538Y-111414655D01*
X162902927Y-111874846D01*
X163503453Y-112124206D01*
X164153694Y-112124774D01*
X164754655Y-111876462D01*
X165100199Y-111531520D01*
X165442927Y-111874846D01*
X166043453Y-112124206D01*
X166693694Y-112124774D01*
X167294655Y-111876462D01*
X167529362Y-111642163D01*
X167937443Y-111642163D01*
X168036042Y-111908965D01*
X168645582Y-112135401D01*
X169295377Y-112111341D01*
X169783958Y-111908965D01*
X169882557Y-111642163D01*
X168910000Y-110669605D01*
X167937443Y-111642163D01*
X167529362Y-111642163D01*
X167722401Y-111449461D01*
X167757837Y-111462557D01*
X168730395Y-110490000D01*
X169089605Y-110490000D01*
X170062163Y-111462557D01*
X170328965Y-111363958D01*
X170555401Y-110754418D01*
X170531341Y-110104623D01*
X170328965Y-109616042D01*
X170062163Y-109517443D01*
X169089605Y-110490000D01*
X168730395Y-110490000D01*
X167757837Y-109517443D01*
X167721901Y-109530724D01*
X167529351Y-109337837D01*
X167937443Y-109337837D01*
X168910000Y-110310395D01*
X169882557Y-109337837D01*
X169783958Y-109071035D01*
X169174418Y-108844599D01*
X168524623Y-108868659D01*
X168036042Y-109071035D01*
X167937443Y-109337837D01*
X167529351Y-109337837D01*
X167297073Y-109105154D01*
X166696547Y-108855794D01*
X166046306Y-108855226D01*
X165445345Y-109103538D01*
X165099801Y-109448480D01*
X164757073Y-109105154D01*
X164156547Y-108855794D01*
X163506306Y-108855226D01*
X162905345Y-109103538D01*
X162445154Y-109562927D01*
X162195794Y-110163453D01*
X162195226Y-110813694D01*
X157817848Y-110813694D01*
X158002852Y-110617900D01*
X158102544Y-110576708D01*
X158365793Y-110313918D01*
X158508439Y-109970390D01*
X158508763Y-109598424D01*
X158366718Y-109254648D01*
X158103928Y-108991399D01*
X157760400Y-108848753D01*
X157659860Y-108848665D01*
X157492688Y-108445053D01*
X157235880Y-108163700D01*
X157433298Y-108081927D01*
X157611927Y-107903299D01*
X157708600Y-107669910D01*
X157708600Y-106965750D01*
X157549850Y-106807000D01*
X156337000Y-106807000D01*
X156337000Y-109093000D01*
X156357000Y-109093000D01*
X156357000Y-109347000D01*
X156337000Y-109347000D01*
X156337000Y-109367000D01*
X156083000Y-109367000D01*
X156083000Y-109347000D01*
X156063000Y-109347000D01*
X156063000Y-109093000D01*
X156083000Y-109093000D01*
X156083000Y-106807000D01*
X156063000Y-106807000D01*
X156063000Y-106553000D01*
X156083000Y-106553000D01*
X156083000Y-106533000D01*
X156337000Y-106533000D01*
X156337000Y-106553000D01*
X157549850Y-106553000D01*
X157708600Y-106394250D01*
X157708600Y-105825001D01*
X159883431Y-105825001D01*
X160447255Y-106388825D01*
X160496883Y-106508933D01*
X160759673Y-106772182D01*
X161103201Y-106914828D01*
X161475167Y-106915152D01*
X161818943Y-106773107D01*
X162082192Y-106510317D01*
X162224838Y-106166789D01*
X162225162Y-105794823D01*
X162083117Y-105451047D01*
X161874270Y-105241835D01*
X177635922Y-105241835D01*
X177853750Y-105769018D01*
X178256740Y-106172713D01*
X178783542Y-106391460D01*
X179353955Y-106391958D01*
X179881138Y-106174130D01*
X180284833Y-105771140D01*
X180441374Y-105394148D01*
X180525167Y-105394221D01*
X180868943Y-105252176D01*
X181132192Y-104989386D01*
X181274838Y-104645858D01*
X181275162Y-104273892D01*
X181225000Y-104152490D01*
X181225000Y-103165861D01*
X181274838Y-103045838D01*
X181275162Y-102673872D01*
X181133117Y-102330096D01*
X180870327Y-102066847D01*
X180526799Y-101924201D01*
X180154833Y-101923877D01*
X179811057Y-102065922D01*
X179547808Y-102328712D01*
X179405162Y-102672240D01*
X179404838Y-103044206D01*
X179455000Y-103165608D01*
X179455000Y-103565218D01*
X179356458Y-103524300D01*
X178786045Y-103523802D01*
X178258862Y-103741630D01*
X177855167Y-104144620D01*
X177636420Y-104671422D01*
X177635922Y-105241835D01*
X161874270Y-105241835D01*
X161820327Y-105187798D01*
X161699013Y-105137424D01*
X160875801Y-104314211D01*
X160815459Y-104273892D01*
X160588686Y-104122368D01*
X160532495Y-104111191D01*
X160250011Y-104055000D01*
X160250006Y-104055001D01*
X152870004Y-104055001D01*
X152869999Y-104055000D01*
X152531324Y-104122368D01*
X152244209Y-104314211D01*
X152244207Y-104314214D01*
X151340908Y-105217512D01*
X151159359Y-105181400D01*
X151100641Y-105181400D01*
X150919092Y-105217512D01*
X149475000Y-103773420D01*
X149475000Y-100546330D01*
X149604698Y-100459668D01*
X149860000Y-100077582D01*
X150115302Y-100459668D01*
X150580849Y-100770737D01*
X150653542Y-100785197D01*
X150601057Y-100806883D01*
X150337808Y-101069673D01*
X150195162Y-101413201D01*
X150194838Y-101785167D01*
X150336883Y-102128943D01*
X150599673Y-102392192D01*
X150943201Y-102534838D01*
X151315167Y-102535162D01*
X151436569Y-102485000D01*
X153881582Y-102485000D01*
X153805000Y-102870000D01*
X153891397Y-103304345D01*
X154137434Y-103672566D01*
X154505655Y-103918603D01*
X154940000Y-104005000D01*
X155374345Y-103918603D01*
X155742566Y-103672566D01*
X157320122Y-102095010D01*
X162382004Y-102095010D01*
X162195794Y-102543453D01*
X162195226Y-103193694D01*
X162443538Y-103794655D01*
X162902927Y-104254846D01*
X163503453Y-104504206D01*
X164153694Y-104504774D01*
X164754655Y-104256462D01*
X165100199Y-103911520D01*
X165442927Y-104254846D01*
X166043453Y-104504206D01*
X166693694Y-104504774D01*
X167294655Y-104256462D01*
X167640199Y-103911520D01*
X167982927Y-104254846D01*
X168583453Y-104504206D01*
X169233694Y-104504774D01*
X169834655Y-104256462D01*
X170294846Y-103797073D01*
X170544206Y-103196547D01*
X170544774Y-102546306D01*
X170296462Y-101945345D01*
X170210277Y-101859010D01*
X170354601Y-101762576D01*
X171180132Y-100937045D01*
X180611913Y-100937045D01*
X185887434Y-106212566D01*
X186255655Y-106458603D01*
X186690000Y-106545000D01*
X187124345Y-106458603D01*
X187492566Y-106212566D01*
X187738603Y-105844345D01*
X187825000Y-105410000D01*
X187781745Y-105192539D01*
X198883065Y-105192539D01*
X199063076Y-105628201D01*
X199396106Y-105961812D01*
X199831453Y-106142584D01*
X200302839Y-106142995D01*
X200738501Y-105962984D01*
X201072112Y-105629954D01*
X201252884Y-105194607D01*
X201253295Y-104723221D01*
X201073284Y-104287559D01*
X200740254Y-103953948D01*
X200304907Y-103773176D01*
X199833521Y-103772765D01*
X199397859Y-103952776D01*
X199064248Y-104285806D01*
X198883476Y-104721153D01*
X198883065Y-105192539D01*
X187781745Y-105192539D01*
X187738603Y-104975655D01*
X187492566Y-104607434D01*
X181884611Y-98999479D01*
X181659906Y-98849336D01*
X181516391Y-98753442D01*
X181082045Y-98667045D01*
X171845000Y-98667045D01*
X171845000Y-93590000D01*
X171758603Y-93155654D01*
X171512566Y-92787434D01*
X170345000Y-91619868D01*
X170345000Y-91055030D01*
X170235767Y-90505879D01*
X169924698Y-90040332D01*
X169459151Y-89729263D01*
X168910000Y-89620030D01*
X168360849Y-89729263D01*
X167895302Y-90040332D01*
X167640000Y-90422418D01*
X167384698Y-90040332D01*
X166919151Y-89729263D01*
X166370000Y-89620030D01*
X165820849Y-89729263D01*
X165355302Y-90040332D01*
X165100000Y-90422418D01*
X164844698Y-90040332D01*
X164379151Y-89729263D01*
X163830000Y-89620030D01*
X163280849Y-89729263D01*
X162815302Y-90040332D01*
X162562851Y-90418151D01*
X162214896Y-89985500D01*
X161721819Y-89715633D01*
X161639039Y-89698096D01*
X161417000Y-89820085D01*
X161417000Y-91313000D01*
X161437000Y-91313000D01*
X161437000Y-91567000D01*
X161417000Y-91567000D01*
X161417000Y-93059915D01*
X161639039Y-93181904D01*
X161721819Y-93164367D01*
X162214896Y-92894500D01*
X162562851Y-92461849D01*
X162815302Y-92839668D01*
X163280849Y-93150737D01*
X163830000Y-93259970D01*
X164379151Y-93150737D01*
X164844698Y-92839668D01*
X165100000Y-92457582D01*
X165355302Y-92839668D01*
X165820849Y-93150737D01*
X166370000Y-93259970D01*
X166919151Y-93150737D01*
X167384698Y-92839668D01*
X167640000Y-92457582D01*
X167895302Y-92839668D01*
X168360849Y-93150737D01*
X168741277Y-93226409D01*
X169575000Y-94060132D01*
X169575000Y-97426671D01*
X169459151Y-97349263D01*
X168910000Y-97240030D01*
X168360849Y-97349263D01*
X167895302Y-97660332D01*
X167640000Y-98042418D01*
X167384698Y-97660332D01*
X166919151Y-97349263D01*
X166370000Y-97240030D01*
X165820849Y-97349263D01*
X165355302Y-97660332D01*
X165100000Y-98042418D01*
X164844698Y-97660332D01*
X164379151Y-97349263D01*
X163830000Y-97240030D01*
X163280849Y-97349263D01*
X162815302Y-97660332D01*
X162562851Y-98038151D01*
X162214896Y-97605500D01*
X161721819Y-97335633D01*
X161639039Y-97318096D01*
X161417000Y-97440085D01*
X161417000Y-98933000D01*
X161437000Y-98933000D01*
X161437000Y-99187000D01*
X161417000Y-99187000D01*
X161417000Y-99207000D01*
X161163000Y-99207000D01*
X161163000Y-99187000D01*
X161143000Y-99187000D01*
X161143000Y-98933000D01*
X161163000Y-98933000D01*
X161163000Y-97440085D01*
X160940961Y-97318096D01*
X160858181Y-97335633D01*
X160365104Y-97605500D01*
X160017149Y-98038151D01*
X159764698Y-97660332D01*
X159299151Y-97349263D01*
X158750000Y-97240030D01*
X158200849Y-97349263D01*
X157735302Y-97660332D01*
X157480000Y-98042418D01*
X157224698Y-97660332D01*
X156759151Y-97349263D01*
X156210000Y-97240030D01*
X155660849Y-97349263D01*
X155195302Y-97660332D01*
X154940000Y-98042418D01*
X154684698Y-97660332D01*
X154219151Y-97349263D01*
X153670000Y-97240030D01*
X153120849Y-97349263D01*
X152655302Y-97660332D01*
X152400000Y-98042418D01*
X152144698Y-97660332D01*
X151679151Y-97349263D01*
X151130000Y-97240030D01*
X150580849Y-97349263D01*
X150115302Y-97660332D01*
X149860000Y-98042418D01*
X149604698Y-97660332D01*
X149139151Y-97349263D01*
X148590000Y-97240030D01*
X148040849Y-97349263D01*
X147575302Y-97660332D01*
X147320000Y-98042418D01*
X147064698Y-97660332D01*
X146599151Y-97349263D01*
X146050000Y-97240030D01*
X145500849Y-97349263D01*
X145035302Y-97660332D01*
X144780000Y-98042418D01*
X144524698Y-97660332D01*
X144059151Y-97349263D01*
X143510000Y-97240030D01*
X142960849Y-97349263D01*
X142495302Y-97660332D01*
X142240000Y-98042418D01*
X141984698Y-97660332D01*
X141519151Y-97349263D01*
X140970000Y-97240030D01*
X140420849Y-97349263D01*
X139955302Y-97660332D01*
X139702851Y-98038151D01*
X139354896Y-97605500D01*
X138861819Y-97335633D01*
X138779039Y-97318096D01*
X138557000Y-97440085D01*
X138303000Y-97440085D01*
X138080961Y-97318096D01*
X137998181Y-97335633D01*
X137505104Y-97605500D01*
X137157149Y-98038151D01*
X136904698Y-97660332D01*
X136572929Y-97438651D01*
X140787843Y-93223737D01*
X140970000Y-93259970D01*
X141519151Y-93150737D01*
X141984698Y-92839668D01*
X142240000Y-92457582D01*
X142495302Y-92839668D01*
X142960849Y-93150737D01*
X143510000Y-93259970D01*
X144059151Y-93150737D01*
X144524698Y-92839668D01*
X144780000Y-92457582D01*
X145035302Y-92839668D01*
X145500849Y-93150737D01*
X146050000Y-93259970D01*
X146599151Y-93150737D01*
X147064698Y-92839668D01*
X147320000Y-92457582D01*
X147575302Y-92839668D01*
X148040849Y-93150737D01*
X148590000Y-93259970D01*
X149139151Y-93150737D01*
X149604698Y-92839668D01*
X149857149Y-92461849D01*
X150205104Y-92894500D01*
X150698181Y-93164367D01*
X150780961Y-93181904D01*
X151003000Y-93059915D01*
X151003000Y-91567000D01*
X151257000Y-91567000D01*
X151257000Y-93059915D01*
X151479039Y-93181904D01*
X151561819Y-93164367D01*
X152054896Y-92894500D01*
X152400000Y-92465393D01*
X152745104Y-92894500D01*
X153238181Y-93164367D01*
X153320961Y-93181904D01*
X153543000Y-93059915D01*
X153543000Y-91567000D01*
X151257000Y-91567000D01*
X151003000Y-91567000D01*
X150983000Y-91567000D01*
X150983000Y-91313000D01*
X151003000Y-91313000D01*
X151003000Y-89820085D01*
X151257000Y-89820085D01*
X151257000Y-91313000D01*
X153543000Y-91313000D01*
X153543000Y-89820085D01*
X153797000Y-89820085D01*
X153797000Y-91313000D01*
X153817000Y-91313000D01*
X153817000Y-91567000D01*
X153797000Y-91567000D01*
X153797000Y-93059915D01*
X154019039Y-93181904D01*
X154101819Y-93164367D01*
X154594896Y-92894500D01*
X154942851Y-92461849D01*
X155195302Y-92839668D01*
X155660849Y-93150737D01*
X156210000Y-93259970D01*
X156759151Y-93150737D01*
X157224698Y-92839668D01*
X157480000Y-92457582D01*
X157735302Y-92839668D01*
X158200849Y-93150737D01*
X158750000Y-93259970D01*
X159299151Y-93150737D01*
X159764698Y-92839668D01*
X160017149Y-92461849D01*
X160365104Y-92894500D01*
X160858181Y-93164367D01*
X160940961Y-93181904D01*
X161163000Y-93059915D01*
X161163000Y-91567000D01*
X161143000Y-91567000D01*
X161143000Y-91313000D01*
X161163000Y-91313000D01*
X161163000Y-89820085D01*
X160940961Y-89698096D01*
X160858181Y-89715633D01*
X160365104Y-89985500D01*
X160017149Y-90418151D01*
X159764698Y-90040332D01*
X159299151Y-89729263D01*
X158750000Y-89620030D01*
X158200849Y-89729263D01*
X157735302Y-90040332D01*
X157480000Y-90422418D01*
X157224698Y-90040332D01*
X156759151Y-89729263D01*
X156210000Y-89620030D01*
X155660849Y-89729263D01*
X155195302Y-90040332D01*
X154942851Y-90418151D01*
X154594896Y-89985500D01*
X154101819Y-89715633D01*
X154019039Y-89698096D01*
X153797000Y-89820085D01*
X153543000Y-89820085D01*
X153320961Y-89698096D01*
X153238181Y-89715633D01*
X152745104Y-89985500D01*
X152400000Y-90414607D01*
X152054896Y-89985500D01*
X151561819Y-89715633D01*
X151479039Y-89698096D01*
X151257000Y-89820085D01*
X151003000Y-89820085D01*
X150780961Y-89698096D01*
X150698181Y-89715633D01*
X150205104Y-89985500D01*
X149857149Y-90418151D01*
X149604698Y-90040332D01*
X149475000Y-89953670D01*
X149475000Y-87904398D01*
X154824190Y-87904398D01*
X155034686Y-88413837D01*
X155424113Y-88803944D01*
X155933184Y-89015329D01*
X156484398Y-89015810D01*
X156993837Y-88805314D01*
X157383944Y-88415887D01*
X157479975Y-88184619D01*
X157574686Y-88413837D01*
X157964113Y-88803944D01*
X158473184Y-89015329D01*
X159024398Y-89015810D01*
X159533837Y-88805314D01*
X159923944Y-88415887D01*
X160115863Y-87953694D01*
X160925226Y-87953694D01*
X161173538Y-88554655D01*
X161632927Y-89014846D01*
X162233453Y-89264206D01*
X162883694Y-89264774D01*
X163484655Y-89016462D01*
X163830199Y-88671520D01*
X164172927Y-89014846D01*
X164773453Y-89264206D01*
X165423694Y-89264774D01*
X166024655Y-89016462D01*
X166484846Y-88557073D01*
X166734206Y-87956547D01*
X166734251Y-87904398D01*
X167524190Y-87904398D01*
X167734686Y-88413837D01*
X168124113Y-88803944D01*
X168633184Y-89015329D01*
X169184398Y-89015810D01*
X169693837Y-88805314D01*
X170083944Y-88415887D01*
X170295329Y-87906816D01*
X170295810Y-87355602D01*
X170085314Y-86846163D01*
X169695887Y-86456056D01*
X169480504Y-86366621D01*
X169634265Y-86302931D01*
X169702325Y-86061930D01*
X168910000Y-85269605D01*
X168117675Y-86061930D01*
X168185735Y-86302931D01*
X168351040Y-86361769D01*
X168126163Y-86454686D01*
X167736056Y-86844113D01*
X167524671Y-87353184D01*
X167524190Y-87904398D01*
X166734251Y-87904398D01*
X166734774Y-87306306D01*
X166486462Y-86705345D01*
X166027073Y-86245154D01*
X165426547Y-85995794D01*
X164776306Y-85995226D01*
X164175345Y-86243538D01*
X163829801Y-86588480D01*
X163487073Y-86245154D01*
X162886547Y-85995794D01*
X162236306Y-85995226D01*
X161635345Y-86243538D01*
X161175154Y-86702927D01*
X160925794Y-87303453D01*
X160925226Y-87953694D01*
X160115863Y-87953694D01*
X160135329Y-87906816D01*
X160135810Y-87355602D01*
X159925314Y-86846163D01*
X159535887Y-86456056D01*
X159320504Y-86366621D01*
X159474265Y-86302931D01*
X159542325Y-86061930D01*
X158750000Y-85269605D01*
X157957675Y-86061930D01*
X158025735Y-86302931D01*
X158191040Y-86361769D01*
X157966163Y-86454686D01*
X157576056Y-86844113D01*
X157480025Y-87075381D01*
X157385314Y-86846163D01*
X156995887Y-86456056D01*
X156780504Y-86366621D01*
X156934265Y-86302931D01*
X157002325Y-86061930D01*
X156210000Y-85269605D01*
X155417675Y-86061930D01*
X155485735Y-86302931D01*
X155651040Y-86361769D01*
X155426163Y-86454686D01*
X155036056Y-86844113D01*
X154824671Y-87353184D01*
X154824190Y-87904398D01*
X149475000Y-87904398D01*
X149475000Y-87798460D01*
X150798006Y-86475454D01*
X151206278Y-86475810D01*
X151715717Y-86265314D01*
X152105824Y-85875887D01*
X152317209Y-85366816D01*
X152317629Y-84885034D01*
X154812233Y-84885034D01*
X154840195Y-85435538D01*
X154997069Y-85814265D01*
X155238070Y-85882325D01*
X156030395Y-85090000D01*
X156389605Y-85090000D01*
X157181930Y-85882325D01*
X157422931Y-85814265D01*
X157475681Y-85666062D01*
X157537069Y-85814265D01*
X157778070Y-85882325D01*
X158570395Y-85090000D01*
X158929605Y-85090000D01*
X159721930Y-85882325D01*
X159962931Y-85814265D01*
X160147767Y-85294966D01*
X160126946Y-84885034D01*
X167512233Y-84885034D01*
X167540195Y-85435538D01*
X167697069Y-85814265D01*
X167938070Y-85882325D01*
X168730395Y-85090000D01*
X169089605Y-85090000D01*
X169881930Y-85882325D01*
X170122931Y-85814265D01*
X170307767Y-85294966D01*
X170279805Y-84744462D01*
X170122931Y-84365735D01*
X169881930Y-84297675D01*
X169089605Y-85090000D01*
X168730395Y-85090000D01*
X167938070Y-84297675D01*
X167697069Y-84365735D01*
X167512233Y-84885034D01*
X160126946Y-84885034D01*
X160119805Y-84744462D01*
X159962931Y-84365735D01*
X159721930Y-84297675D01*
X158929605Y-85090000D01*
X158570395Y-85090000D01*
X157778070Y-84297675D01*
X157537069Y-84365735D01*
X157484319Y-84513938D01*
X157422931Y-84365735D01*
X157181930Y-84297675D01*
X156389605Y-85090000D01*
X156030395Y-85090000D01*
X155238070Y-84297675D01*
X154997069Y-84365735D01*
X154812233Y-84885034D01*
X152317629Y-84885034D01*
X152317690Y-84815602D01*
X152107194Y-84306163D01*
X151919429Y-84118070D01*
X155417675Y-84118070D01*
X156210000Y-84910395D01*
X157002325Y-84118070D01*
X157957675Y-84118070D01*
X158750000Y-84910395D01*
X159542325Y-84118070D01*
X168117675Y-84118070D01*
X168910000Y-84910395D01*
X169702325Y-84118070D01*
X169634265Y-83877069D01*
X169114966Y-83692233D01*
X168564462Y-83720195D01*
X168185735Y-83877069D01*
X168117675Y-84118070D01*
X159542325Y-84118070D01*
X159474265Y-83877069D01*
X158954966Y-83692233D01*
X158404462Y-83720195D01*
X158025735Y-83877069D01*
X157957675Y-84118070D01*
X157002325Y-84118070D01*
X156934265Y-83877069D01*
X156414966Y-83692233D01*
X155864462Y-83720195D01*
X155485735Y-83877069D01*
X155417675Y-84118070D01*
X151919429Y-84118070D01*
X151816880Y-84015342D01*
X151816880Y-80981930D01*
X152242675Y-80981930D01*
X152310735Y-81222931D01*
X152830034Y-81407767D01*
X153380538Y-81379805D01*
X153759265Y-81222931D01*
X153827325Y-80981930D01*
X153035000Y-80189605D01*
X152242675Y-80981930D01*
X151816880Y-80981930D01*
X151816880Y-80721738D01*
X151822069Y-80734265D01*
X152063070Y-80802325D01*
X152855395Y-80010000D01*
X153214605Y-80010000D01*
X154006930Y-80802325D01*
X154247931Y-80734265D01*
X154390507Y-80333694D01*
X160925226Y-80333694D01*
X161173538Y-80934655D01*
X161632927Y-81394846D01*
X162233453Y-81644206D01*
X162883694Y-81644774D01*
X163484655Y-81396462D01*
X163830199Y-81051520D01*
X164172927Y-81394846D01*
X164773453Y-81644206D01*
X165423694Y-81644774D01*
X166024655Y-81396462D01*
X166484846Y-80937073D01*
X166734206Y-80336547D01*
X166734774Y-79686306D01*
X166486462Y-79085345D01*
X166027073Y-78625154D01*
X165426547Y-78375794D01*
X164776306Y-78375226D01*
X164175345Y-78623538D01*
X163829801Y-78968480D01*
X163487073Y-78625154D01*
X162886547Y-78375794D01*
X162236306Y-78375226D01*
X161635345Y-78623538D01*
X161175154Y-79082927D01*
X160925794Y-79683453D01*
X160925226Y-80333694D01*
X154390507Y-80333694D01*
X154432767Y-80214966D01*
X154404805Y-79664462D01*
X154247931Y-79285735D01*
X154006930Y-79217675D01*
X153214605Y-80010000D01*
X152855395Y-80010000D01*
X152063070Y-79217675D01*
X151822069Y-79285735D01*
X151763231Y-79451040D01*
X151670314Y-79226163D01*
X151482549Y-79038070D01*
X152242675Y-79038070D01*
X153035000Y-79830395D01*
X153827325Y-79038070D01*
X153759265Y-78797069D01*
X153239966Y-78612233D01*
X152689462Y-78640195D01*
X152310735Y-78797069D01*
X152242675Y-79038070D01*
X151482549Y-79038070D01*
X151280887Y-78836056D01*
X150771816Y-78624671D01*
X150220602Y-78624190D01*
X149711163Y-78834686D01*
X149321056Y-79224113D01*
X149109671Y-79733184D01*
X149109190Y-80284398D01*
X149319686Y-80793837D01*
X149709113Y-81183944D01*
X150046880Y-81324197D01*
X150046880Y-84015673D01*
X149757936Y-84304113D01*
X149546551Y-84813184D01*
X149546192Y-85224108D01*
X147964210Y-86806090D01*
X147772367Y-87093205D01*
X147772367Y-87093206D01*
X147704999Y-87431880D01*
X147705000Y-87431885D01*
X147705000Y-89953670D01*
X147575302Y-90040332D01*
X147320000Y-90422418D01*
X147064698Y-90040332D01*
X146935000Y-89953670D01*
X146935000Y-86164327D01*
X147223944Y-85875887D01*
X147435329Y-85366816D01*
X147435810Y-84815602D01*
X147225314Y-84306163D01*
X146935000Y-84015342D01*
X146935000Y-81395789D01*
X146959398Y-81395810D01*
X147468837Y-81185314D01*
X147858944Y-80795887D01*
X148070329Y-80286816D01*
X148070810Y-79735602D01*
X147860314Y-79226163D01*
X147470887Y-78836056D01*
X146961816Y-78624671D01*
X146410602Y-78624190D01*
X145901163Y-78834686D01*
X145511056Y-79224113D01*
X145421621Y-79439496D01*
X145357931Y-79285735D01*
X145116930Y-79217675D01*
X144324605Y-80010000D01*
X145116930Y-80802325D01*
X145165000Y-80788750D01*
X145165000Y-84015673D01*
X144876056Y-84304113D01*
X144664671Y-84813184D01*
X144664190Y-85364398D01*
X144874686Y-85873837D01*
X145165000Y-86164658D01*
X145165000Y-89953670D01*
X145035302Y-90040332D01*
X144780000Y-90422418D01*
X144524698Y-90040332D01*
X144059151Y-89729263D01*
X143510000Y-89620030D01*
X142960849Y-89729263D01*
X142495302Y-90040332D01*
X142240000Y-90422418D01*
X141984698Y-90040332D01*
X141519151Y-89729263D01*
X140970000Y-89620030D01*
X140420849Y-89729263D01*
X139955302Y-90040332D01*
X139700000Y-90422418D01*
X139444698Y-90040332D01*
X138979151Y-89729263D01*
X138430000Y-89620030D01*
X137880849Y-89729263D01*
X137415302Y-90040332D01*
X137160000Y-90422418D01*
X136904698Y-90040332D01*
X136439151Y-89729263D01*
X135890000Y-89620030D01*
X135340849Y-89729263D01*
X134875302Y-90040332D01*
X134564233Y-90505879D01*
X134455000Y-91055030D01*
X134455000Y-91824970D01*
X134564233Y-92374121D01*
X134755000Y-92659624D01*
X134755000Y-93924968D01*
X130007434Y-98672534D01*
X129761397Y-99040754D01*
X129675000Y-99475100D01*
X129675000Y-103505000D01*
X129751581Y-103890000D01*
X116205005Y-103890000D01*
X116205000Y-103889999D01*
X115956922Y-103939346D01*
X115866325Y-103957367D01*
X115579210Y-104149210D01*
X115579208Y-104149213D01*
X114666173Y-105062248D01*
X114626547Y-105045794D01*
X113976306Y-105045226D01*
X113375345Y-105293538D01*
X112915154Y-105752927D01*
X112665794Y-106353453D01*
X112665226Y-107003694D01*
X111887000Y-107003694D01*
X111887000Y-102571930D01*
X117317675Y-102571930D01*
X117385735Y-102812931D01*
X117905034Y-102997767D01*
X118455538Y-102969805D01*
X118834265Y-102812931D01*
X118902325Y-102571930D01*
X122397675Y-102571930D01*
X122465735Y-102812931D01*
X122985034Y-102997767D01*
X123535538Y-102969805D01*
X123914265Y-102812931D01*
X123982325Y-102571930D01*
X123190000Y-101779605D01*
X122397675Y-102571930D01*
X118902325Y-102571930D01*
X118110000Y-101779605D01*
X117317675Y-102571930D01*
X111887000Y-102571930D01*
X111887000Y-101395034D01*
X116712233Y-101395034D01*
X116740195Y-101945538D01*
X116897069Y-102324265D01*
X117138070Y-102392325D01*
X117930395Y-101600000D01*
X118289605Y-101600000D01*
X119081930Y-102392325D01*
X119322931Y-102324265D01*
X119507767Y-101804966D01*
X119486946Y-101395034D01*
X121792233Y-101395034D01*
X121820195Y-101945538D01*
X121977069Y-102324265D01*
X122218070Y-102392325D01*
X123010395Y-101600000D01*
X123369605Y-101600000D01*
X124161930Y-102392325D01*
X124402931Y-102324265D01*
X124587767Y-101804966D01*
X124559805Y-101254462D01*
X124402931Y-100875735D01*
X124161930Y-100807675D01*
X123369605Y-101600000D01*
X123010395Y-101600000D01*
X122218070Y-100807675D01*
X121977069Y-100875735D01*
X121792233Y-101395034D01*
X119486946Y-101395034D01*
X119479805Y-101254462D01*
X119322931Y-100875735D01*
X119081930Y-100807675D01*
X118289605Y-101600000D01*
X117930395Y-101600000D01*
X117138070Y-100807675D01*
X116897069Y-100875735D01*
X116712233Y-101395034D01*
X111887000Y-101395034D01*
X111887000Y-97898579D01*
X112682248Y-98693827D01*
X112665794Y-98733453D01*
X112665226Y-99383694D01*
X112913538Y-99984655D01*
X113372927Y-100444846D01*
X113973453Y-100694206D01*
X114623694Y-100694774D01*
X115224655Y-100446462D01*
X115684846Y-99987073D01*
X115934206Y-99386547D01*
X115934251Y-99334398D01*
X116724190Y-99334398D01*
X116934686Y-99843837D01*
X117324113Y-100233944D01*
X117539496Y-100323379D01*
X117385735Y-100387069D01*
X117317675Y-100628070D01*
X118110000Y-101420395D01*
X118902325Y-100628070D01*
X118834265Y-100387069D01*
X118668960Y-100328231D01*
X118893837Y-100235314D01*
X119283944Y-99845887D01*
X119495329Y-99336816D01*
X119495810Y-98785602D01*
X119285314Y-98276163D01*
X118895887Y-97886056D01*
X118386816Y-97674671D01*
X117835602Y-97674190D01*
X117326163Y-97884686D01*
X116936056Y-98274113D01*
X116724671Y-98783184D01*
X116724190Y-99334398D01*
X115934251Y-99334398D01*
X115934774Y-98736306D01*
X115686462Y-98135345D01*
X115227073Y-97675154D01*
X114626547Y-97425794D01*
X113976306Y-97425226D01*
X113934202Y-97442623D01*
X111967199Y-95475619D01*
X111967199Y-94183200D01*
X114883724Y-94183200D01*
X114984264Y-94688648D01*
X115270577Y-95117147D01*
X115699076Y-95403460D01*
X116204524Y-95504000D01*
X116256276Y-95504000D01*
X116761724Y-95403460D01*
X117190223Y-95117147D01*
X117476536Y-94688648D01*
X117500400Y-94568676D01*
X117524264Y-94688648D01*
X117810577Y-95117147D01*
X118239076Y-95403460D01*
X118744524Y-95504000D01*
X118796276Y-95504000D01*
X119301724Y-95403460D01*
X119730223Y-95117147D01*
X120016536Y-94688648D01*
X120044908Y-94546012D01*
X120172144Y-94853211D01*
X120515191Y-95237801D01*
X120979301Y-95461838D01*
X121183400Y-95339141D01*
X121183400Y-94310200D01*
X121163400Y-94310200D01*
X121163400Y-94056200D01*
X121183400Y-94056200D01*
X121183400Y-93027259D01*
X120979301Y-92904562D01*
X120515191Y-93128599D01*
X120172144Y-93513189D01*
X120044908Y-93820388D01*
X120016536Y-93677752D01*
X119730223Y-93249253D01*
X119301724Y-92962940D01*
X118796276Y-92862400D01*
X118744524Y-92862400D01*
X118239076Y-92962940D01*
X117810577Y-93249253D01*
X117524264Y-93677752D01*
X117500400Y-93797724D01*
X117476536Y-93677752D01*
X117190223Y-93249253D01*
X116761724Y-92962940D01*
X116256276Y-92862400D01*
X116204524Y-92862400D01*
X115699076Y-92962940D01*
X115270577Y-93249253D01*
X114984264Y-93677752D01*
X114883724Y-94183200D01*
X111967199Y-94183200D01*
X111967199Y-91643200D01*
X116153724Y-91643200D01*
X116254264Y-92148648D01*
X116540577Y-92577147D01*
X116969076Y-92863460D01*
X117474524Y-92964000D01*
X117526276Y-92964000D01*
X118031724Y-92863460D01*
X118460223Y-92577147D01*
X118746536Y-92148648D01*
X118774908Y-92006012D01*
X118902144Y-92313211D01*
X119245191Y-92697801D01*
X119709301Y-92921838D01*
X119913400Y-92799141D01*
X119913400Y-91770200D01*
X119893400Y-91770200D01*
X119893400Y-91516200D01*
X119913400Y-91516200D01*
X119913400Y-90487259D01*
X120167400Y-90487259D01*
X120167400Y-91516200D01*
X120187400Y-91516200D01*
X120187400Y-91770200D01*
X120167400Y-91770200D01*
X120167400Y-92799141D01*
X120371499Y-92921838D01*
X120835609Y-92697801D01*
X121178656Y-92313211D01*
X121305892Y-92006012D01*
X121334264Y-92148648D01*
X121620577Y-92577147D01*
X121695400Y-92627142D01*
X121695400Y-92930581D01*
X121641499Y-92904562D01*
X121437400Y-93027259D01*
X121437400Y-94056200D01*
X121457400Y-94056200D01*
X121457400Y-94310200D01*
X121437400Y-94310200D01*
X121437400Y-95339141D01*
X121641499Y-95461838D01*
X121965884Y-95305250D01*
X122305000Y-95644365D01*
X122305000Y-97985673D01*
X122016056Y-98274113D01*
X121804671Y-98783184D01*
X121804190Y-99334398D01*
X122014686Y-99843837D01*
X122404113Y-100233944D01*
X122619496Y-100323379D01*
X122465735Y-100387069D01*
X122397675Y-100628070D01*
X123190000Y-101420395D01*
X123982325Y-100628070D01*
X123914265Y-100387069D01*
X123748960Y-100328231D01*
X123973837Y-100235314D01*
X124363944Y-99845887D01*
X124575329Y-99336816D01*
X124575810Y-98785602D01*
X124365314Y-98276163D01*
X124075000Y-97985342D01*
X124075000Y-95464471D01*
X124381724Y-95403460D01*
X124810223Y-95117147D01*
X125096536Y-94688648D01*
X125197076Y-94183200D01*
X125096536Y-93677752D01*
X124810223Y-93249253D01*
X124381724Y-92962940D01*
X123876276Y-92862400D01*
X123824524Y-92862400D01*
X123465400Y-92933834D01*
X123465400Y-92627142D01*
X123540223Y-92577147D01*
X123826536Y-92148648D01*
X123850400Y-92028676D01*
X123874264Y-92148648D01*
X124160577Y-92577147D01*
X124589076Y-92863460D01*
X125094524Y-92964000D01*
X125146276Y-92964000D01*
X125651724Y-92863460D01*
X126080223Y-92577147D01*
X126366536Y-92148648D01*
X126467076Y-91643200D01*
X126366536Y-91137752D01*
X126080223Y-90709253D01*
X125651724Y-90422940D01*
X125146276Y-90322400D01*
X125094524Y-90322400D01*
X124589076Y-90422940D01*
X124160577Y-90709253D01*
X123874264Y-91137752D01*
X123850400Y-91257724D01*
X123826536Y-91137752D01*
X123540223Y-90709253D01*
X123111724Y-90422940D01*
X122606276Y-90322400D01*
X122554524Y-90322400D01*
X122049076Y-90422940D01*
X121620577Y-90709253D01*
X121334264Y-91137752D01*
X121305892Y-91280388D01*
X121178656Y-90973189D01*
X120835609Y-90588599D01*
X120371499Y-90364562D01*
X120167400Y-90487259D01*
X119913400Y-90487259D01*
X119709301Y-90364562D01*
X119245191Y-90588599D01*
X118902144Y-90973189D01*
X118774908Y-91280388D01*
X118746536Y-91137752D01*
X118460223Y-90709253D01*
X118031724Y-90422940D01*
X117526276Y-90322400D01*
X117474524Y-90322400D01*
X116969076Y-90422940D01*
X116540577Y-90709253D01*
X116254264Y-91137752D01*
X116153724Y-91643200D01*
X111967199Y-91643200D01*
X111967199Y-89995255D01*
X112055502Y-90054257D01*
X112765074Y-90195400D01*
X112837726Y-90195400D01*
X113547298Y-90054257D01*
X114148843Y-89652317D01*
X114550783Y-89050772D01*
X114691926Y-88341200D01*
X114550783Y-87631628D01*
X114494582Y-87547517D01*
X114508766Y-87553407D01*
X115408088Y-87554192D01*
X116239254Y-87210761D01*
X116875726Y-86575399D01*
X117220607Y-85744834D01*
X117220610Y-85740888D01*
X124129408Y-85740888D01*
X124472839Y-86572054D01*
X125108201Y-87208526D01*
X125938766Y-87553407D01*
X126838088Y-87554192D01*
X126856972Y-87546389D01*
X126800017Y-87631628D01*
X126658874Y-88341200D01*
X126800017Y-89050772D01*
X127201957Y-89652317D01*
X127803502Y-90054257D01*
X128513074Y-90195400D01*
X128585726Y-90195400D01*
X129295298Y-90054257D01*
X129896843Y-89652317D01*
X129925000Y-89610177D01*
X129925000Y-94883421D01*
X127366172Y-97442248D01*
X127326547Y-97425794D01*
X126676306Y-97425226D01*
X126075345Y-97673538D01*
X125615154Y-98132927D01*
X125365794Y-98733453D01*
X125365226Y-99383694D01*
X125613538Y-99984655D01*
X126072927Y-100444846D01*
X126673453Y-100694206D01*
X127323694Y-100694774D01*
X127924655Y-100446462D01*
X128384846Y-99987073D01*
X128634206Y-99386547D01*
X128634774Y-98736306D01*
X128617377Y-98694203D01*
X131435787Y-95875792D01*
X131435790Y-95875790D01*
X131627633Y-95588675D01*
X131644476Y-95504000D01*
X131695001Y-95250000D01*
X131695000Y-95249995D01*
X131695000Y-87904398D01*
X134504190Y-87904398D01*
X134714686Y-88413837D01*
X135104113Y-88803944D01*
X135613184Y-89015329D01*
X136164398Y-89015810D01*
X136673837Y-88805314D01*
X137063944Y-88415887D01*
X137275329Y-87906816D01*
X137275331Y-87904398D01*
X139584190Y-87904398D01*
X139794686Y-88413837D01*
X140184113Y-88803944D01*
X140693184Y-89015329D01*
X141244398Y-89015810D01*
X141753837Y-88805314D01*
X142143944Y-88415887D01*
X142355329Y-87906816D01*
X142355810Y-87355602D01*
X142145314Y-86846163D01*
X141755887Y-86456056D01*
X141540504Y-86366621D01*
X141694265Y-86302931D01*
X141762325Y-86061930D01*
X140970000Y-85269605D01*
X140177675Y-86061930D01*
X140245735Y-86302931D01*
X140411040Y-86361769D01*
X140186163Y-86454686D01*
X139796056Y-86844113D01*
X139584671Y-87353184D01*
X139584190Y-87904398D01*
X137275331Y-87904398D01*
X137275810Y-87355602D01*
X137065314Y-86846163D01*
X136675887Y-86456056D01*
X136460504Y-86366621D01*
X136614265Y-86302931D01*
X136682325Y-86061930D01*
X135890000Y-85269605D01*
X135097675Y-86061930D01*
X135165735Y-86302931D01*
X135331040Y-86361769D01*
X135106163Y-86454686D01*
X134716056Y-86844113D01*
X134504671Y-87353184D01*
X134504190Y-87904398D01*
X131695000Y-87904398D01*
X131695000Y-84885034D01*
X134492233Y-84885034D01*
X134520195Y-85435538D01*
X134677069Y-85814265D01*
X134918070Y-85882325D01*
X135710395Y-85090000D01*
X136069605Y-85090000D01*
X136861930Y-85882325D01*
X137102931Y-85814265D01*
X137287767Y-85294966D01*
X137266946Y-84885034D01*
X139572233Y-84885034D01*
X139600195Y-85435538D01*
X139757069Y-85814265D01*
X139998070Y-85882325D01*
X140790395Y-85090000D01*
X141149605Y-85090000D01*
X141941930Y-85882325D01*
X142182931Y-85814265D01*
X142367767Y-85294966D01*
X142339805Y-84744462D01*
X142182931Y-84365735D01*
X141941930Y-84297675D01*
X141149605Y-85090000D01*
X140790395Y-85090000D01*
X139998070Y-84297675D01*
X139757069Y-84365735D01*
X139572233Y-84885034D01*
X137266946Y-84885034D01*
X137259805Y-84744462D01*
X137102931Y-84365735D01*
X136861930Y-84297675D01*
X136069605Y-85090000D01*
X135710395Y-85090000D01*
X134918070Y-84297675D01*
X134677069Y-84365735D01*
X134492233Y-84885034D01*
X131695000Y-84885034D01*
X131695000Y-84201005D01*
X131695001Y-84201000D01*
X131678505Y-84118070D01*
X135097675Y-84118070D01*
X135890000Y-84910395D01*
X136682325Y-84118070D01*
X140177675Y-84118070D01*
X140970000Y-84910395D01*
X141762325Y-84118070D01*
X141694265Y-83877069D01*
X141174966Y-83692233D01*
X140624462Y-83720195D01*
X140245735Y-83877069D01*
X140177675Y-84118070D01*
X136682325Y-84118070D01*
X136614265Y-83877069D01*
X136094966Y-83692233D01*
X135544462Y-83720195D01*
X135165735Y-83877069D01*
X135097675Y-84118070D01*
X131678505Y-84118070D01*
X131627633Y-83862326D01*
X131627633Y-83862325D01*
X131435790Y-83575210D01*
X131435787Y-83575208D01*
X128395702Y-80535122D01*
X128424369Y-80391000D01*
X128318029Y-79856391D01*
X128015197Y-79403172D01*
X127561978Y-79100340D01*
X127027369Y-78994000D01*
X126972631Y-78994000D01*
X126438022Y-79100340D01*
X125984803Y-79403172D01*
X125681971Y-79856391D01*
X125575631Y-80391000D01*
X125681971Y-80925609D01*
X125984803Y-81378828D01*
X126438022Y-81681660D01*
X126972631Y-81788000D01*
X127027369Y-81788000D01*
X127125834Y-81768414D01*
X129925000Y-84567579D01*
X129925000Y-87072223D01*
X129896843Y-87030083D01*
X129295298Y-86628143D01*
X128585726Y-86487000D01*
X128513074Y-86487000D01*
X128327069Y-86523999D01*
X128650607Y-85744834D01*
X128651392Y-84845512D01*
X128307961Y-84014346D01*
X127672599Y-83377874D01*
X126842034Y-83032993D01*
X125942712Y-83032208D01*
X125111546Y-83375639D01*
X124475074Y-84011001D01*
X124130193Y-84841566D01*
X124129408Y-85740888D01*
X117220610Y-85740888D01*
X117221392Y-84845512D01*
X116877961Y-84014346D01*
X116242599Y-83377874D01*
X115412034Y-83032993D01*
X115146139Y-83032761D01*
X115340597Y-82902828D01*
X115643429Y-82449609D01*
X115681528Y-82258070D01*
X123105780Y-82258070D01*
X123259826Y-82629997D01*
X123624801Y-83034858D01*
X124116928Y-83269231D01*
X124333000Y-83147476D01*
X124333000Y-82042000D01*
X124587000Y-82042000D01*
X124587000Y-83147476D01*
X124803072Y-83269231D01*
X125295199Y-83034858D01*
X125660174Y-82629997D01*
X125814220Y-82258070D01*
X125691720Y-82042000D01*
X124587000Y-82042000D01*
X124333000Y-82042000D01*
X123228280Y-82042000D01*
X123105780Y-82258070D01*
X115681528Y-82258070D01*
X115749769Y-81915000D01*
X115643429Y-81380391D01*
X115340597Y-80927172D01*
X115051601Y-80734070D01*
X115511180Y-80734070D01*
X115665226Y-81105997D01*
X116030201Y-81510858D01*
X116522328Y-81745231D01*
X116738400Y-81623476D01*
X116738400Y-80518000D01*
X116992400Y-80518000D01*
X116992400Y-81623476D01*
X117208472Y-81745231D01*
X117572362Y-81571930D01*
X123105780Y-81571930D01*
X123228280Y-81788000D01*
X124333000Y-81788000D01*
X124333000Y-80682524D01*
X124587000Y-80682524D01*
X124587000Y-81788000D01*
X125691720Y-81788000D01*
X125814220Y-81571930D01*
X125660174Y-81200003D01*
X125295199Y-80795142D01*
X124803072Y-80560769D01*
X124587000Y-80682524D01*
X124333000Y-80682524D01*
X124116928Y-80560769D01*
X123624801Y-80795142D01*
X123259826Y-81200003D01*
X123105780Y-81571930D01*
X117572362Y-81571930D01*
X117700599Y-81510858D01*
X118065574Y-81105997D01*
X118219620Y-80734070D01*
X118097120Y-80518000D01*
X116992400Y-80518000D01*
X116738400Y-80518000D01*
X115633680Y-80518000D01*
X115511180Y-80734070D01*
X115051601Y-80734070D01*
X114887378Y-80624340D01*
X114352769Y-80518000D01*
X114298031Y-80518000D01*
X113763422Y-80624340D01*
X113310203Y-80927172D01*
X113007371Y-81380391D01*
X112901031Y-81915000D01*
X112929699Y-82059122D01*
X110456409Y-84532411D01*
X110264566Y-84819526D01*
X110264566Y-84819527D01*
X110197198Y-85158201D01*
X110197199Y-85158206D01*
X110197199Y-95842194D01*
X110197198Y-95842199D01*
X110242041Y-96067633D01*
X110264566Y-96180874D01*
X110456409Y-96467989D01*
X111651421Y-97663000D01*
X94107000Y-97663000D01*
X94107000Y-94234000D01*
X97548960Y-94234000D01*
X97548960Y-96266000D01*
X97593238Y-96501317D01*
X97732310Y-96717441D01*
X97944510Y-96862431D01*
X98196400Y-96913440D01*
X99923600Y-96913440D01*
X100158917Y-96869162D01*
X100375041Y-96730090D01*
X100520031Y-96517890D01*
X100528400Y-96476561D01*
X100540330Y-96494415D01*
X101026511Y-96819271D01*
X101600000Y-96933345D01*
X102173489Y-96819271D01*
X102659670Y-96494415D01*
X102870000Y-96179634D01*
X103080330Y-96494415D01*
X103566511Y-96819271D01*
X104140000Y-96933345D01*
X104713489Y-96819271D01*
X105199670Y-96494415D01*
X105410000Y-96179634D01*
X105620330Y-96494415D01*
X106106511Y-96819271D01*
X106680000Y-96933345D01*
X107253489Y-96819271D01*
X107739670Y-96494415D01*
X108064526Y-96008234D01*
X108178600Y-95434745D01*
X108178600Y-95065255D01*
X108064526Y-94491766D01*
X107739670Y-94005585D01*
X107253489Y-93680729D01*
X106680000Y-93566655D01*
X106106511Y-93680729D01*
X105620330Y-94005585D01*
X105410000Y-94320366D01*
X105199670Y-94005585D01*
X104713489Y-93680729D01*
X104140000Y-93566655D01*
X103566511Y-93680729D01*
X103080330Y-94005585D01*
X102870000Y-94320366D01*
X102659670Y-94005585D01*
X102173489Y-93680729D01*
X101600000Y-93566655D01*
X101026511Y-93680729D01*
X100540330Y-94005585D01*
X100530757Y-94019913D01*
X100526762Y-93998683D01*
X100387690Y-93782559D01*
X100175490Y-93637569D01*
X99923600Y-93586560D01*
X98196400Y-93586560D01*
X97961083Y-93630838D01*
X97744959Y-93769910D01*
X97599969Y-93982110D01*
X97548960Y-94234000D01*
X94107000Y-94234000D01*
X94107000Y-87906661D01*
X98932758Y-87906661D01*
X99144990Y-88420303D01*
X99353832Y-88629510D01*
X99146371Y-88836610D01*
X98933243Y-89349880D01*
X98932758Y-89905641D01*
X99144990Y-90419283D01*
X99537630Y-90812609D01*
X100050900Y-91025737D01*
X100606661Y-91026222D01*
X101120303Y-90813990D01*
X101513629Y-90421350D01*
X101599949Y-90213468D01*
X101684990Y-90419283D01*
X102077630Y-90812609D01*
X102590900Y-91025737D01*
X103146661Y-91026222D01*
X103660303Y-90813990D01*
X104053629Y-90421350D01*
X104266757Y-89908080D01*
X104267242Y-89352319D01*
X104055010Y-88838677D01*
X103846168Y-88629470D01*
X104053629Y-88422370D01*
X104266757Y-87909100D01*
X104267242Y-87353339D01*
X104055010Y-86839697D01*
X103662370Y-86446371D01*
X103395558Y-86335581D01*
X106373484Y-86335581D01*
X106514952Y-86638770D01*
X107251432Y-86923727D01*
X108040900Y-86905154D01*
X108684008Y-86638770D01*
X108825476Y-86335581D01*
X107599480Y-85109585D01*
X106373484Y-86335581D01*
X103395558Y-86335581D01*
X103149100Y-86233243D01*
X102593339Y-86232758D01*
X102079697Y-86444990D01*
X101686371Y-86837630D01*
X101600051Y-87045512D01*
X101515010Y-86839697D01*
X101122370Y-86446371D01*
X100609100Y-86233243D01*
X100053339Y-86232758D01*
X99539697Y-86444990D01*
X99146371Y-86837630D01*
X98933243Y-87350900D01*
X98932758Y-87906661D01*
X94107000Y-87906661D01*
X94107000Y-86335581D01*
X94374524Y-86335581D01*
X94515992Y-86638770D01*
X95252472Y-86923727D01*
X96041940Y-86905154D01*
X96685048Y-86638770D01*
X96826516Y-86335581D01*
X95600520Y-85109585D01*
X94374524Y-86335581D01*
X94107000Y-86335581D01*
X94107000Y-86114953D01*
X94194919Y-86155976D01*
X95420915Y-84929980D01*
X95780125Y-84929980D01*
X97006121Y-86155976D01*
X97309310Y-86014508D01*
X97594267Y-85278028D01*
X97577891Y-84581932D01*
X105605733Y-84581932D01*
X105624306Y-85371400D01*
X105890690Y-86014508D01*
X106193879Y-86155976D01*
X107419875Y-84929980D01*
X107779085Y-84929980D01*
X109005081Y-86155976D01*
X109308270Y-86014508D01*
X109593227Y-85278028D01*
X109574654Y-84488560D01*
X109308270Y-83845452D01*
X109005081Y-83703984D01*
X107779085Y-84929980D01*
X107419875Y-84929980D01*
X106193879Y-83703984D01*
X105890690Y-83845452D01*
X105605733Y-84581932D01*
X97577891Y-84581932D01*
X97575694Y-84488560D01*
X97309310Y-83845452D01*
X97006121Y-83703984D01*
X95780125Y-84929980D01*
X95420915Y-84929980D01*
X94194919Y-83703984D01*
X94107000Y-83745007D01*
X94107000Y-83524379D01*
X94374524Y-83524379D01*
X95600520Y-84750375D01*
X96826516Y-83524379D01*
X106373484Y-83524379D01*
X107599480Y-84750375D01*
X108825476Y-83524379D01*
X108684008Y-83221190D01*
X107947528Y-82936233D01*
X107158060Y-82954806D01*
X106514952Y-83221190D01*
X106373484Y-83524379D01*
X96826516Y-83524379D01*
X96685048Y-83221190D01*
X95948568Y-82936233D01*
X95159100Y-82954806D01*
X94515992Y-83221190D01*
X94374524Y-83524379D01*
X94107000Y-83524379D01*
X94107000Y-80047930D01*
X115511180Y-80047930D01*
X115633680Y-80264000D01*
X116738400Y-80264000D01*
X116738400Y-79158524D01*
X116992400Y-79158524D01*
X116992400Y-80264000D01*
X118097120Y-80264000D01*
X118219620Y-80047930D01*
X118065574Y-79676003D01*
X117700599Y-79271142D01*
X117208472Y-79036769D01*
X116992400Y-79158524D01*
X116738400Y-79158524D01*
X116522328Y-79036769D01*
X116030201Y-79271142D01*
X115665226Y-79676003D01*
X115511180Y-80047930D01*
X94107000Y-80047930D01*
X94107000Y-77597044D01*
X132586445Y-77610313D01*
X132586445Y-77610313D01*
G37*
X132586445Y-77610313D02*
X131963826Y-78231847D01*
X131485546Y-79383674D01*
X131484457Y-80630854D01*
X131960727Y-81783515D01*
X132841847Y-82666174D01*
X133993674Y-83144454D01*
X135240854Y-83145543D01*
X136393515Y-82669273D01*
X137276174Y-81788153D01*
X137610946Y-80981930D01*
X143352675Y-80981930D01*
X143420735Y-81222931D01*
X143940034Y-81407767D01*
X144490538Y-81379805D01*
X144869265Y-81222931D01*
X144937325Y-80981930D01*
X144145000Y-80189605D01*
X143352675Y-80981930D01*
X137610946Y-80981930D01*
X137754454Y-80636326D01*
X137755179Y-79805034D01*
X142747233Y-79805034D01*
X142775195Y-80355538D01*
X142932069Y-80734265D01*
X143173070Y-80802325D01*
X143965395Y-80010000D01*
X143173070Y-79217675D01*
X142932069Y-79285735D01*
X142747233Y-79805034D01*
X137755179Y-79805034D01*
X137755543Y-79389146D01*
X137610482Y-79038070D01*
X143352675Y-79038070D01*
X144145000Y-79830395D01*
X144937325Y-79038070D01*
X144869265Y-78797069D01*
X144349966Y-78612233D01*
X143799462Y-78640195D01*
X143420735Y-78797069D01*
X143352675Y-79038070D01*
X137610482Y-79038070D01*
X137279273Y-78236485D01*
X136655594Y-77611717D01*
X204951447Y-77635268D01*
X204353826Y-78231847D01*
X203875546Y-79383674D01*
X203874457Y-80630854D01*
X204350727Y-81783515D01*
X205231847Y-82666174D01*
X206383674Y-83144454D01*
X207630854Y-83145543D01*
X208783515Y-82669273D01*
X209423000Y-82030903D01*
X209423000Y-108469782D01*
X208788153Y-107833826D01*
X207636326Y-107355546D01*
X206389146Y-107354457D01*
X205236485Y-107830727D01*
X204353826Y-108711847D01*
X203875546Y-109863674D01*
X203874457Y-111110854D01*
X204350727Y-112263515D01*
X205027041Y-112941010D01*
X136630065Y-112913136D01*
X137276174Y-112268153D01*
X137754454Y-111116326D01*
X137755543Y-109869146D01*
X137279273Y-108716485D01*
X136398153Y-107833826D01*
X135246326Y-107355546D01*
X133999146Y-107354457D01*
X132846485Y-107830727D01*
X131963826Y-108711847D01*
X131485546Y-109863674D01*
X131484457Y-111110854D01*
X131960727Y-112263515D01*
X132607579Y-112911497D01*
X111887000Y-112903052D01*
X111887000Y-110766661D01*
X112902758Y-110766661D01*
X113114990Y-111280303D01*
X113507630Y-111673629D01*
X114020900Y-111886757D01*
X114576661Y-111887242D01*
X115090303Y-111675010D01*
X115483629Y-111282370D01*
X115696757Y-110769100D01*
X115696759Y-110766661D01*
X125602758Y-110766661D01*
X125814990Y-111280303D01*
X126207630Y-111673629D01*
X126720900Y-111886757D01*
X127276661Y-111887242D01*
X127790303Y-111675010D01*
X128183629Y-111282370D01*
X128396757Y-110769100D01*
X128397242Y-110213339D01*
X128185010Y-109699697D01*
X127792370Y-109306371D01*
X127279100Y-109093243D01*
X126723339Y-109092758D01*
X126209697Y-109304990D01*
X125816371Y-109697630D01*
X125603243Y-110210900D01*
X125602758Y-110766661D01*
X115696759Y-110766661D01*
X115697242Y-110213339D01*
X115485010Y-109699697D01*
X115092370Y-109306371D01*
X114579100Y-109093243D01*
X114023339Y-109092758D01*
X113509697Y-109304990D01*
X113116371Y-109697630D01*
X112903243Y-110210900D01*
X112902758Y-110766661D01*
X111887000Y-110766661D01*
X111887000Y-107003694D01*
X112665226Y-107003694D01*
X112913538Y-107604655D01*
X113372927Y-108064846D01*
X113973453Y-108314206D01*
X114623694Y-108314774D01*
X115224655Y-108066462D01*
X115684846Y-107607073D01*
X115934206Y-107006547D01*
X115934774Y-106356306D01*
X115917377Y-106314202D01*
X116571579Y-105660000D01*
X125708243Y-105660000D01*
X125615154Y-105752927D01*
X125365794Y-106353453D01*
X125365226Y-107003694D01*
X125613538Y-107604655D01*
X126072927Y-108064846D01*
X126673453Y-108314206D01*
X127323694Y-108314774D01*
X127924655Y-108066462D01*
X128384846Y-107607073D01*
X128402316Y-107565000D01*
X130600669Y-107565000D01*
X130600674Y-107565001D01*
X130883158Y-107508810D01*
X130939349Y-107497633D01*
X131226464Y-107305790D01*
X131226465Y-107305789D01*
X133340786Y-105191467D01*
X133340789Y-105191465D01*
X133532632Y-104904350D01*
X133537541Y-104879673D01*
X133600000Y-104565675D01*
X133599999Y-104565670D01*
X133599999Y-103144398D01*
X134504190Y-103144398D01*
X134714686Y-103653837D01*
X135104113Y-104043944D01*
X135613184Y-104255329D01*
X136164398Y-104255810D01*
X136673837Y-104045314D01*
X136877576Y-103841930D01*
X137637675Y-103841930D01*
X137705735Y-104082931D01*
X138225034Y-104267767D01*
X138775538Y-104239805D01*
X139154265Y-104082931D01*
X139222325Y-103841930D01*
X138430000Y-103049605D01*
X137637675Y-103841930D01*
X136877576Y-103841930D01*
X137063944Y-103655887D01*
X137153379Y-103440504D01*
X137217069Y-103594265D01*
X137458070Y-103662325D01*
X138250395Y-102870000D01*
X138609605Y-102870000D01*
X139401930Y-103662325D01*
X139642931Y-103594265D01*
X139827767Y-103074966D01*
X139799805Y-102524462D01*
X139642931Y-102145735D01*
X139401930Y-102077675D01*
X138609605Y-102870000D01*
X138250395Y-102870000D01*
X137458070Y-102077675D01*
X137217069Y-102145735D01*
X137158231Y-102311040D01*
X137065314Y-102086163D01*
X136877549Y-101898070D01*
X137637675Y-101898070D01*
X138430000Y-102690395D01*
X139222325Y-101898070D01*
X139154265Y-101657069D01*
X138634966Y-101472233D01*
X138084462Y-101500195D01*
X137705735Y-101657069D01*
X137637675Y-101898070D01*
X136877549Y-101898070D01*
X136675887Y-101696056D01*
X136166816Y-101484671D01*
X135615602Y-101484190D01*
X135106163Y-101694686D01*
X134716056Y-102084113D01*
X134504671Y-102593184D01*
X134504190Y-103144398D01*
X133599999Y-103144398D01*
X133600000Y-100411580D01*
X134473517Y-99538063D01*
X134564233Y-99994121D01*
X134875302Y-100459668D01*
X135340849Y-100770737D01*
X135890000Y-100879970D01*
X136439151Y-100770737D01*
X136904698Y-100459668D01*
X137157149Y-100081849D01*
X137505104Y-100514500D01*
X137998181Y-100784367D01*
X138080961Y-100801904D01*
X138303000Y-100679915D01*
X138303000Y-99187000D01*
X138283000Y-99187000D01*
X138283000Y-98933000D01*
X138303000Y-98933000D01*
X138303000Y-97440085D01*
X138557000Y-97440085D01*
X138557000Y-98933000D01*
X138577000Y-98933000D01*
X138577000Y-99187000D01*
X138557000Y-99187000D01*
X138557000Y-100679915D01*
X138779039Y-100801904D01*
X138861819Y-100784367D01*
X139354896Y-100514500D01*
X139702851Y-100081849D01*
X139955302Y-100459668D01*
X140420849Y-100770737D01*
X140970000Y-100879970D01*
X141519151Y-100770737D01*
X141984698Y-100459668D01*
X142240000Y-100077582D01*
X142495302Y-100459668D01*
X142960849Y-100770737D01*
X143510000Y-100879970D01*
X144059151Y-100770737D01*
X144524698Y-100459668D01*
X144780000Y-100077582D01*
X145035302Y-100459668D01*
X145500849Y-100770737D01*
X146050000Y-100879970D01*
X146599151Y-100770737D01*
X147064698Y-100459668D01*
X147320000Y-100077582D01*
X147575302Y-100459668D01*
X147705000Y-100546330D01*
X147705000Y-104139995D01*
X147704999Y-104140000D01*
X147738331Y-104307566D01*
X147772367Y-104478675D01*
X147964210Y-104765790D01*
X148409820Y-105211400D01*
X147987152Y-105295474D01*
X147500971Y-105620330D01*
X147320000Y-105891172D01*
X147139029Y-105620330D01*
X146652848Y-105295474D01*
X146079359Y-105181400D01*
X146020641Y-105181400D01*
X145447152Y-105295474D01*
X144960971Y-105620330D01*
X144636115Y-106106511D01*
X144522041Y-106680000D01*
X144636115Y-107253489D01*
X144960971Y-107739670D01*
X145275752Y-107950000D01*
X144960971Y-108160330D01*
X144636115Y-108646511D01*
X144522041Y-109220000D01*
X144636115Y-109793489D01*
X144960971Y-110279670D01*
X145165000Y-110415998D01*
X145165000Y-110441309D01*
X145164999Y-110441314D01*
X145203249Y-110633603D01*
X145232367Y-110779989D01*
X145296103Y-110875377D01*
X145424210Y-111067104D01*
X146416498Y-112059391D01*
X146416500Y-112059394D01*
X146703615Y-112251237D01*
X146750198Y-112260503D01*
X147042290Y-112318605D01*
X147042295Y-112318604D01*
X156014526Y-112318604D01*
X156027025Y-112316118D01*
X156039595Y-112318250D01*
X156195951Y-112282516D01*
X156353201Y-112251237D01*
X156363799Y-112244156D01*
X156376225Y-112241316D01*
X156506973Y-112148490D01*
X156640316Y-112059394D01*
X156647398Y-112048794D01*
X156657791Y-112041416D01*
X157817848Y-110813694D01*
X162195226Y-110813694D01*
X162443538Y-111414655D01*
X162902927Y-111874846D01*
X163503453Y-112124206D01*
X164153694Y-112124774D01*
X164754655Y-111876462D01*
X165100199Y-111531520D01*
X165442927Y-111874846D01*
X166043453Y-112124206D01*
X166693694Y-112124774D01*
X167294655Y-111876462D01*
X167529362Y-111642163D01*
X167937443Y-111642163D01*
X168036042Y-111908965D01*
X168645582Y-112135401D01*
X169295377Y-112111341D01*
X169783958Y-111908965D01*
X169882557Y-111642163D01*
X168910000Y-110669605D01*
X167937443Y-111642163D01*
X167529362Y-111642163D01*
X167722401Y-111449461D01*
X167757837Y-111462557D01*
X168730395Y-110490000D01*
X169089605Y-110490000D01*
X170062163Y-111462557D01*
X170328965Y-111363958D01*
X170555401Y-110754418D01*
X170531341Y-110104623D01*
X170328965Y-109616042D01*
X170062163Y-109517443D01*
X169089605Y-110490000D01*
X168730395Y-110490000D01*
X167757837Y-109517443D01*
X167721901Y-109530724D01*
X167529351Y-109337837D01*
X167937443Y-109337837D01*
X168910000Y-110310395D01*
X169882557Y-109337837D01*
X169783958Y-109071035D01*
X169174418Y-108844599D01*
X168524623Y-108868659D01*
X168036042Y-109071035D01*
X167937443Y-109337837D01*
X167529351Y-109337837D01*
X167297073Y-109105154D01*
X166696547Y-108855794D01*
X166046306Y-108855226D01*
X165445345Y-109103538D01*
X165099801Y-109448480D01*
X164757073Y-109105154D01*
X164156547Y-108855794D01*
X163506306Y-108855226D01*
X162905345Y-109103538D01*
X162445154Y-109562927D01*
X162195794Y-110163453D01*
X162195226Y-110813694D01*
X157817848Y-110813694D01*
X158002852Y-110617900D01*
X158102544Y-110576708D01*
X158365793Y-110313918D01*
X158508439Y-109970390D01*
X158508763Y-109598424D01*
X158366718Y-109254648D01*
X158103928Y-108991399D01*
X157760400Y-108848753D01*
X157659860Y-108848665D01*
X157492688Y-108445053D01*
X157235880Y-108163700D01*
X157433298Y-108081927D01*
X157611927Y-107903299D01*
X157708600Y-107669910D01*
X157708600Y-106965750D01*
X157549850Y-106807000D01*
X156337000Y-106807000D01*
X156337000Y-109093000D01*
X156357000Y-109093000D01*
X156357000Y-109347000D01*
X156337000Y-109347000D01*
X156337000Y-109367000D01*
X156083000Y-109367000D01*
X156083000Y-109347000D01*
X156063000Y-109347000D01*
X156063000Y-109093000D01*
X156083000Y-109093000D01*
X156083000Y-106807000D01*
X156063000Y-106807000D01*
X156063000Y-106553000D01*
X156083000Y-106553000D01*
X156083000Y-106533000D01*
X156337000Y-106533000D01*
X156337000Y-106553000D01*
X157549850Y-106553000D01*
X157708600Y-106394250D01*
X157708600Y-105825001D01*
X159883431Y-105825001D01*
X160447255Y-106388825D01*
X160496883Y-106508933D01*
X160759673Y-106772182D01*
X161103201Y-106914828D01*
X161475167Y-106915152D01*
X161818943Y-106773107D01*
X162082192Y-106510317D01*
X162224838Y-106166789D01*
X162225162Y-105794823D01*
X162083117Y-105451047D01*
X161874270Y-105241835D01*
X177635922Y-105241835D01*
X177853750Y-105769018D01*
X178256740Y-106172713D01*
X178783542Y-106391460D01*
X179353955Y-106391958D01*
X179881138Y-106174130D01*
X180284833Y-105771140D01*
X180441374Y-105394148D01*
X180525167Y-105394221D01*
X180868943Y-105252176D01*
X181132192Y-104989386D01*
X181274838Y-104645858D01*
X181275162Y-104273892D01*
X181225000Y-104152490D01*
X181225000Y-103165861D01*
X181274838Y-103045838D01*
X181275162Y-102673872D01*
X181133117Y-102330096D01*
X180870327Y-102066847D01*
X180526799Y-101924201D01*
X180154833Y-101923877D01*
X179811057Y-102065922D01*
X179547808Y-102328712D01*
X179405162Y-102672240D01*
X179404838Y-103044206D01*
X179455000Y-103165608D01*
X179455000Y-103565218D01*
X179356458Y-103524300D01*
X178786045Y-103523802D01*
X178258862Y-103741630D01*
X177855167Y-104144620D01*
X177636420Y-104671422D01*
X177635922Y-105241835D01*
X161874270Y-105241835D01*
X161820327Y-105187798D01*
X161699013Y-105137424D01*
X160875801Y-104314211D01*
X160815459Y-104273892D01*
X160588686Y-104122368D01*
X160532495Y-104111191D01*
X160250011Y-104055000D01*
X160250006Y-104055001D01*
X152870004Y-104055001D01*
X152869999Y-104055000D01*
X152531324Y-104122368D01*
X152244209Y-104314211D01*
X152244207Y-104314214D01*
X151340908Y-105217512D01*
X151159359Y-105181400D01*
X151100641Y-105181400D01*
X150919092Y-105217512D01*
X149475000Y-103773420D01*
X149475000Y-100546330D01*
X149604698Y-100459668D01*
X149860000Y-100077582D01*
X150115302Y-100459668D01*
X150580849Y-100770737D01*
X150653542Y-100785197D01*
X150601057Y-100806883D01*
X150337808Y-101069673D01*
X150195162Y-101413201D01*
X150194838Y-101785167D01*
X150336883Y-102128943D01*
X150599673Y-102392192D01*
X150943201Y-102534838D01*
X151315167Y-102535162D01*
X151436569Y-102485000D01*
X153881582Y-102485000D01*
X153805000Y-102870000D01*
X153891397Y-103304345D01*
X154137434Y-103672566D01*
X154505655Y-103918603D01*
X154940000Y-104005000D01*
X155374345Y-103918603D01*
X155742566Y-103672566D01*
X157320122Y-102095010D01*
X162382004Y-102095010D01*
X162195794Y-102543453D01*
X162195226Y-103193694D01*
X162443538Y-103794655D01*
X162902927Y-104254846D01*
X163503453Y-104504206D01*
X164153694Y-104504774D01*
X164754655Y-104256462D01*
X165100199Y-103911520D01*
X165442927Y-104254846D01*
X166043453Y-104504206D01*
X166693694Y-104504774D01*
X167294655Y-104256462D01*
X167640199Y-103911520D01*
X167982927Y-104254846D01*
X168583453Y-104504206D01*
X169233694Y-104504774D01*
X169834655Y-104256462D01*
X170294846Y-103797073D01*
X170544206Y-103196547D01*
X170544774Y-102546306D01*
X170296462Y-101945345D01*
X170210277Y-101859010D01*
X170354601Y-101762576D01*
X171180132Y-100937045D01*
X180611913Y-100937045D01*
X185887434Y-106212566D01*
X186255655Y-106458603D01*
X186690000Y-106545000D01*
X187124345Y-106458603D01*
X187492566Y-106212566D01*
X187738603Y-105844345D01*
X187825000Y-105410000D01*
X187781745Y-105192539D01*
X198883065Y-105192539D01*
X199063076Y-105628201D01*
X199396106Y-105961812D01*
X199831453Y-106142584D01*
X200302839Y-106142995D01*
X200738501Y-105962984D01*
X201072112Y-105629954D01*
X201252884Y-105194607D01*
X201253295Y-104723221D01*
X201073284Y-104287559D01*
X200740254Y-103953948D01*
X200304907Y-103773176D01*
X199833521Y-103772765D01*
X199397859Y-103952776D01*
X199064248Y-104285806D01*
X198883476Y-104721153D01*
X198883065Y-105192539D01*
X187781745Y-105192539D01*
X187738603Y-104975655D01*
X187492566Y-104607434D01*
X181884611Y-98999479D01*
X181659906Y-98849336D01*
X181516391Y-98753442D01*
X181082045Y-98667045D01*
X171845000Y-98667045D01*
X171845000Y-93590000D01*
X171758603Y-93155654D01*
X171512566Y-92787434D01*
X170345000Y-91619868D01*
X170345000Y-91055030D01*
X170235767Y-90505879D01*
X169924698Y-90040332D01*
X169459151Y-89729263D01*
X168910000Y-89620030D01*
X168360849Y-89729263D01*
X167895302Y-90040332D01*
X167640000Y-90422418D01*
X167384698Y-90040332D01*
X166919151Y-89729263D01*
X166370000Y-89620030D01*
X165820849Y-89729263D01*
X165355302Y-90040332D01*
X165100000Y-90422418D01*
X164844698Y-90040332D01*
X164379151Y-89729263D01*
X163830000Y-89620030D01*
X163280849Y-89729263D01*
X162815302Y-90040332D01*
X162562851Y-90418151D01*
X162214896Y-89985500D01*
X161721819Y-89715633D01*
X161639039Y-89698096D01*
X161417000Y-89820085D01*
X161417000Y-91313000D01*
X161437000Y-91313000D01*
X161437000Y-91567000D01*
X161417000Y-91567000D01*
X161417000Y-93059915D01*
X161639039Y-93181904D01*
X161721819Y-93164367D01*
X162214896Y-92894500D01*
X162562851Y-92461849D01*
X162815302Y-92839668D01*
X163280849Y-93150737D01*
X163830000Y-93259970D01*
X164379151Y-93150737D01*
X164844698Y-92839668D01*
X165100000Y-92457582D01*
X165355302Y-92839668D01*
X165820849Y-93150737D01*
X166370000Y-93259970D01*
X166919151Y-93150737D01*
X167384698Y-92839668D01*
X167640000Y-92457582D01*
X167895302Y-92839668D01*
X168360849Y-93150737D01*
X168741277Y-93226409D01*
X169575000Y-94060132D01*
X169575000Y-97426671D01*
X169459151Y-97349263D01*
X168910000Y-97240030D01*
X168360849Y-97349263D01*
X167895302Y-97660332D01*
X167640000Y-98042418D01*
X167384698Y-97660332D01*
X166919151Y-97349263D01*
X166370000Y-97240030D01*
X165820849Y-97349263D01*
X165355302Y-97660332D01*
X165100000Y-98042418D01*
X164844698Y-97660332D01*
X164379151Y-97349263D01*
X163830000Y-97240030D01*
X163280849Y-97349263D01*
X162815302Y-97660332D01*
X162562851Y-98038151D01*
X162214896Y-97605500D01*
X161721819Y-97335633D01*
X161639039Y-97318096D01*
X161417000Y-97440085D01*
X161417000Y-98933000D01*
X161437000Y-98933000D01*
X161437000Y-99187000D01*
X161417000Y-99187000D01*
X161417000Y-99207000D01*
X161163000Y-99207000D01*
X161163000Y-99187000D01*
X161143000Y-99187000D01*
X161143000Y-98933000D01*
X161163000Y-98933000D01*
X161163000Y-97440085D01*
X160940961Y-97318096D01*
X160858181Y-97335633D01*
X160365104Y-97605500D01*
X160017149Y-98038151D01*
X159764698Y-97660332D01*
X159299151Y-97349263D01*
X158750000Y-97240030D01*
X158200849Y-97349263D01*
X157735302Y-97660332D01*
X157480000Y-98042418D01*
X157224698Y-97660332D01*
X156759151Y-97349263D01*
X156210000Y-97240030D01*
X155660849Y-97349263D01*
X155195302Y-97660332D01*
X154940000Y-98042418D01*
X154684698Y-97660332D01*
X154219151Y-97349263D01*
X153670000Y-97240030D01*
X153120849Y-97349263D01*
X152655302Y-97660332D01*
X152400000Y-98042418D01*
X152144698Y-97660332D01*
X151679151Y-97349263D01*
X151130000Y-97240030D01*
X150580849Y-97349263D01*
X150115302Y-97660332D01*
X149860000Y-98042418D01*
X149604698Y-97660332D01*
X149139151Y-97349263D01*
X148590000Y-97240030D01*
X148040849Y-97349263D01*
X147575302Y-97660332D01*
X147320000Y-98042418D01*
X147064698Y-97660332D01*
X146599151Y-97349263D01*
X146050000Y-97240030D01*
X145500849Y-97349263D01*
X145035302Y-97660332D01*
X144780000Y-98042418D01*
X144524698Y-97660332D01*
X144059151Y-97349263D01*
X143510000Y-97240030D01*
X142960849Y-97349263D01*
X142495302Y-97660332D01*
X142240000Y-98042418D01*
X141984698Y-97660332D01*
X141519151Y-97349263D01*
X140970000Y-97240030D01*
X140420849Y-97349263D01*
X139955302Y-97660332D01*
X139702851Y-98038151D01*
X139354896Y-97605500D01*
X138861819Y-97335633D01*
X138779039Y-97318096D01*
X138557000Y-97440085D01*
X138303000Y-97440085D01*
X138080961Y-97318096D01*
X137998181Y-97335633D01*
X137505104Y-97605500D01*
X137157149Y-98038151D01*
X136904698Y-97660332D01*
X136572929Y-97438651D01*
X140787843Y-93223737D01*
X140970000Y-93259970D01*
X141519151Y-93150737D01*
X141984698Y-92839668D01*
X142240000Y-92457582D01*
X142495302Y-92839668D01*
X142960849Y-93150737D01*
X143510000Y-93259970D01*
X144059151Y-93150737D01*
X144524698Y-92839668D01*
X144780000Y-92457582D01*
X145035302Y-92839668D01*
X145500849Y-93150737D01*
X146050000Y-93259970D01*
X146599151Y-93150737D01*
X147064698Y-92839668D01*
X147320000Y-92457582D01*
X147575302Y-92839668D01*
X148040849Y-93150737D01*
X148590000Y-93259970D01*
X149139151Y-93150737D01*
X149604698Y-92839668D01*
X149857149Y-92461849D01*
X150205104Y-92894500D01*
X150698181Y-93164367D01*
X150780961Y-93181904D01*
X151003000Y-93059915D01*
X151003000Y-91567000D01*
X151257000Y-91567000D01*
X151257000Y-93059915D01*
X151479039Y-93181904D01*
X151561819Y-93164367D01*
X152054896Y-92894500D01*
X152400000Y-92465393D01*
X152745104Y-92894500D01*
X153238181Y-93164367D01*
X153320961Y-93181904D01*
X153543000Y-93059915D01*
X153543000Y-91567000D01*
X151257000Y-91567000D01*
X151003000Y-91567000D01*
X150983000Y-91567000D01*
X150983000Y-91313000D01*
X151003000Y-91313000D01*
X151003000Y-89820085D01*
X151257000Y-89820085D01*
X151257000Y-91313000D01*
X153543000Y-91313000D01*
X153543000Y-89820085D01*
X153797000Y-89820085D01*
X153797000Y-91313000D01*
X153817000Y-91313000D01*
X153817000Y-91567000D01*
X153797000Y-91567000D01*
X153797000Y-93059915D01*
X154019039Y-93181904D01*
X154101819Y-93164367D01*
X154594896Y-92894500D01*
X154942851Y-92461849D01*
X155195302Y-92839668D01*
X155660849Y-93150737D01*
X156210000Y-93259970D01*
X156759151Y-93150737D01*
X157224698Y-92839668D01*
X157480000Y-92457582D01*
X157735302Y-92839668D01*
X158200849Y-93150737D01*
X158750000Y-93259970D01*
X159299151Y-93150737D01*
X159764698Y-92839668D01*
X160017149Y-92461849D01*
X160365104Y-92894500D01*
X160858181Y-93164367D01*
X160940961Y-93181904D01*
X161163000Y-93059915D01*
X161163000Y-91567000D01*
X161143000Y-91567000D01*
X161143000Y-91313000D01*
X161163000Y-91313000D01*
X161163000Y-89820085D01*
X160940961Y-89698096D01*
X160858181Y-89715633D01*
X160365104Y-89985500D01*
X160017149Y-90418151D01*
X159764698Y-90040332D01*
X159299151Y-89729263D01*
X158750000Y-89620030D01*
X158200849Y-89729263D01*
X157735302Y-90040332D01*
X157480000Y-90422418D01*
X157224698Y-90040332D01*
X156759151Y-89729263D01*
X156210000Y-89620030D01*
X155660849Y-89729263D01*
X155195302Y-90040332D01*
X154942851Y-90418151D01*
X154594896Y-89985500D01*
X154101819Y-89715633D01*
X154019039Y-89698096D01*
X153797000Y-89820085D01*
X153543000Y-89820085D01*
X153320961Y-89698096D01*
X153238181Y-89715633D01*
X152745104Y-89985500D01*
X152400000Y-90414607D01*
X152054896Y-89985500D01*
X151561819Y-89715633D01*
X151479039Y-89698096D01*
X151257000Y-89820085D01*
X151003000Y-89820085D01*
X150780961Y-89698096D01*
X150698181Y-89715633D01*
X150205104Y-89985500D01*
X149857149Y-90418151D01*
X149604698Y-90040332D01*
X149475000Y-89953670D01*
X149475000Y-87904398D01*
X154824190Y-87904398D01*
X155034686Y-88413837D01*
X155424113Y-88803944D01*
X155933184Y-89015329D01*
X156484398Y-89015810D01*
X156993837Y-88805314D01*
X157383944Y-88415887D01*
X157479975Y-88184619D01*
X157574686Y-88413837D01*
X157964113Y-88803944D01*
X158473184Y-89015329D01*
X159024398Y-89015810D01*
X159533837Y-88805314D01*
X159923944Y-88415887D01*
X160115863Y-87953694D01*
X160925226Y-87953694D01*
X161173538Y-88554655D01*
X161632927Y-89014846D01*
X162233453Y-89264206D01*
X162883694Y-89264774D01*
X163484655Y-89016462D01*
X163830199Y-88671520D01*
X164172927Y-89014846D01*
X164773453Y-89264206D01*
X165423694Y-89264774D01*
X166024655Y-89016462D01*
X166484846Y-88557073D01*
X166734206Y-87956547D01*
X166734251Y-87904398D01*
X167524190Y-87904398D01*
X167734686Y-88413837D01*
X168124113Y-88803944D01*
X168633184Y-89015329D01*
X169184398Y-89015810D01*
X169693837Y-88805314D01*
X170083944Y-88415887D01*
X170295329Y-87906816D01*
X170295810Y-87355602D01*
X170085314Y-86846163D01*
X169695887Y-86456056D01*
X169480504Y-86366621D01*
X169634265Y-86302931D01*
X169702325Y-86061930D01*
X168910000Y-85269605D01*
X168117675Y-86061930D01*
X168185735Y-86302931D01*
X168351040Y-86361769D01*
X168126163Y-86454686D01*
X167736056Y-86844113D01*
X167524671Y-87353184D01*
X167524190Y-87904398D01*
X166734251Y-87904398D01*
X166734774Y-87306306D01*
X166486462Y-86705345D01*
X166027073Y-86245154D01*
X165426547Y-85995794D01*
X164776306Y-85995226D01*
X164175345Y-86243538D01*
X163829801Y-86588480D01*
X163487073Y-86245154D01*
X162886547Y-85995794D01*
X162236306Y-85995226D01*
X161635345Y-86243538D01*
X161175154Y-86702927D01*
X160925794Y-87303453D01*
X160925226Y-87953694D01*
X160115863Y-87953694D01*
X160135329Y-87906816D01*
X160135810Y-87355602D01*
X159925314Y-86846163D01*
X159535887Y-86456056D01*
X159320504Y-86366621D01*
X159474265Y-86302931D01*
X159542325Y-86061930D01*
X158750000Y-85269605D01*
X157957675Y-86061930D01*
X158025735Y-86302931D01*
X158191040Y-86361769D01*
X157966163Y-86454686D01*
X157576056Y-86844113D01*
X157480025Y-87075381D01*
X157385314Y-86846163D01*
X156995887Y-86456056D01*
X156780504Y-86366621D01*
X156934265Y-86302931D01*
X157002325Y-86061930D01*
X156210000Y-85269605D01*
X155417675Y-86061930D01*
X155485735Y-86302931D01*
X155651040Y-86361769D01*
X155426163Y-86454686D01*
X155036056Y-86844113D01*
X154824671Y-87353184D01*
X154824190Y-87904398D01*
X149475000Y-87904398D01*
X149475000Y-87798460D01*
X150798006Y-86475454D01*
X151206278Y-86475810D01*
X151715717Y-86265314D01*
X152105824Y-85875887D01*
X152317209Y-85366816D01*
X152317629Y-84885034D01*
X154812233Y-84885034D01*
X154840195Y-85435538D01*
X154997069Y-85814265D01*
X155238070Y-85882325D01*
X156030395Y-85090000D01*
X156389605Y-85090000D01*
X157181930Y-85882325D01*
X157422931Y-85814265D01*
X157475681Y-85666062D01*
X157537069Y-85814265D01*
X157778070Y-85882325D01*
X158570395Y-85090000D01*
X158929605Y-85090000D01*
X159721930Y-85882325D01*
X159962931Y-85814265D01*
X160147767Y-85294966D01*
X160126946Y-84885034D01*
X167512233Y-84885034D01*
X167540195Y-85435538D01*
X167697069Y-85814265D01*
X167938070Y-85882325D01*
X168730395Y-85090000D01*
X169089605Y-85090000D01*
X169881930Y-85882325D01*
X170122931Y-85814265D01*
X170307767Y-85294966D01*
X170279805Y-84744462D01*
X170122931Y-84365735D01*
X169881930Y-84297675D01*
X169089605Y-85090000D01*
X168730395Y-85090000D01*
X167938070Y-84297675D01*
X167697069Y-84365735D01*
X167512233Y-84885034D01*
X160126946Y-84885034D01*
X160119805Y-84744462D01*
X159962931Y-84365735D01*
X159721930Y-84297675D01*
X158929605Y-85090000D01*
X158570395Y-85090000D01*
X157778070Y-84297675D01*
X157537069Y-84365735D01*
X157484319Y-84513938D01*
X157422931Y-84365735D01*
X157181930Y-84297675D01*
X156389605Y-85090000D01*
X156030395Y-85090000D01*
X155238070Y-84297675D01*
X154997069Y-84365735D01*
X154812233Y-84885034D01*
X152317629Y-84885034D01*
X152317690Y-84815602D01*
X152107194Y-84306163D01*
X151919429Y-84118070D01*
X155417675Y-84118070D01*
X156210000Y-84910395D01*
X157002325Y-84118070D01*
X157957675Y-84118070D01*
X158750000Y-84910395D01*
X159542325Y-84118070D01*
X168117675Y-84118070D01*
X168910000Y-84910395D01*
X169702325Y-84118070D01*
X169634265Y-83877069D01*
X169114966Y-83692233D01*
X168564462Y-83720195D01*
X168185735Y-83877069D01*
X168117675Y-84118070D01*
X159542325Y-84118070D01*
X159474265Y-83877069D01*
X158954966Y-83692233D01*
X158404462Y-83720195D01*
X158025735Y-83877069D01*
X157957675Y-84118070D01*
X157002325Y-84118070D01*
X156934265Y-83877069D01*
X156414966Y-83692233D01*
X155864462Y-83720195D01*
X155485735Y-83877069D01*
X155417675Y-84118070D01*
X151919429Y-84118070D01*
X151816880Y-84015342D01*
X151816880Y-80981930D01*
X152242675Y-80981930D01*
X152310735Y-81222931D01*
X152830034Y-81407767D01*
X153380538Y-81379805D01*
X153759265Y-81222931D01*
X153827325Y-80981930D01*
X153035000Y-80189605D01*
X152242675Y-80981930D01*
X151816880Y-80981930D01*
X151816880Y-80721738D01*
X151822069Y-80734265D01*
X152063070Y-80802325D01*
X152855395Y-80010000D01*
X153214605Y-80010000D01*
X154006930Y-80802325D01*
X154247931Y-80734265D01*
X154390507Y-80333694D01*
X160925226Y-80333694D01*
X161173538Y-80934655D01*
X161632927Y-81394846D01*
X162233453Y-81644206D01*
X162883694Y-81644774D01*
X163484655Y-81396462D01*
X163830199Y-81051520D01*
X164172927Y-81394846D01*
X164773453Y-81644206D01*
X165423694Y-81644774D01*
X166024655Y-81396462D01*
X166484846Y-80937073D01*
X166734206Y-80336547D01*
X166734774Y-79686306D01*
X166486462Y-79085345D01*
X166027073Y-78625154D01*
X165426547Y-78375794D01*
X164776306Y-78375226D01*
X164175345Y-78623538D01*
X163829801Y-78968480D01*
X163487073Y-78625154D01*
X162886547Y-78375794D01*
X162236306Y-78375226D01*
X161635345Y-78623538D01*
X161175154Y-79082927D01*
X160925794Y-79683453D01*
X160925226Y-80333694D01*
X154390507Y-80333694D01*
X154432767Y-80214966D01*
X154404805Y-79664462D01*
X154247931Y-79285735D01*
X154006930Y-79217675D01*
X153214605Y-80010000D01*
X152855395Y-80010000D01*
X152063070Y-79217675D01*
X151822069Y-79285735D01*
X151763231Y-79451040D01*
X151670314Y-79226163D01*
X151482549Y-79038070D01*
X152242675Y-79038070D01*
X153035000Y-79830395D01*
X153827325Y-79038070D01*
X153759265Y-78797069D01*
X153239966Y-78612233D01*
X152689462Y-78640195D01*
X152310735Y-78797069D01*
X152242675Y-79038070D01*
X151482549Y-79038070D01*
X151280887Y-78836056D01*
X150771816Y-78624671D01*
X150220602Y-78624190D01*
X149711163Y-78834686D01*
X149321056Y-79224113D01*
X149109671Y-79733184D01*
X149109190Y-80284398D01*
X149319686Y-80793837D01*
X149709113Y-81183944D01*
X150046880Y-81324197D01*
X150046880Y-84015673D01*
X149757936Y-84304113D01*
X149546551Y-84813184D01*
X149546192Y-85224108D01*
X147964210Y-86806090D01*
X147772367Y-87093205D01*
X147772367Y-87093206D01*
X147704999Y-87431880D01*
X147705000Y-87431885D01*
X147705000Y-89953670D01*
X147575302Y-90040332D01*
X147320000Y-90422418D01*
X147064698Y-90040332D01*
X146935000Y-89953670D01*
X146935000Y-86164327D01*
X147223944Y-85875887D01*
X147435329Y-85366816D01*
X147435810Y-84815602D01*
X147225314Y-84306163D01*
X146935000Y-84015342D01*
X146935000Y-81395789D01*
X146959398Y-81395810D01*
X147468837Y-81185314D01*
X147858944Y-80795887D01*
X148070329Y-80286816D01*
X148070810Y-79735602D01*
X147860314Y-79226163D01*
X147470887Y-78836056D01*
X146961816Y-78624671D01*
X146410602Y-78624190D01*
X145901163Y-78834686D01*
X145511056Y-79224113D01*
X145421621Y-79439496D01*
X145357931Y-79285735D01*
X145116930Y-79217675D01*
X144324605Y-80010000D01*
X145116930Y-80802325D01*
X145165000Y-80788750D01*
X145165000Y-84015673D01*
X144876056Y-84304113D01*
X144664671Y-84813184D01*
X144664190Y-85364398D01*
X144874686Y-85873837D01*
X145165000Y-86164658D01*
X145165000Y-89953670D01*
X145035302Y-90040332D01*
X144780000Y-90422418D01*
X144524698Y-90040332D01*
X144059151Y-89729263D01*
X143510000Y-89620030D01*
X142960849Y-89729263D01*
X142495302Y-90040332D01*
X142240000Y-90422418D01*
X141984698Y-90040332D01*
X141519151Y-89729263D01*
X140970000Y-89620030D01*
X140420849Y-89729263D01*
X139955302Y-90040332D01*
X139700000Y-90422418D01*
X139444698Y-90040332D01*
X138979151Y-89729263D01*
X138430000Y-89620030D01*
X137880849Y-89729263D01*
X137415302Y-90040332D01*
X137160000Y-90422418D01*
X136904698Y-90040332D01*
X136439151Y-89729263D01*
X135890000Y-89620030D01*
X135340849Y-89729263D01*
X134875302Y-90040332D01*
X134564233Y-90505879D01*
X134455000Y-91055030D01*
X134455000Y-91824970D01*
X134564233Y-92374121D01*
X134755000Y-92659624D01*
X134755000Y-93924968D01*
X130007434Y-98672534D01*
X129761397Y-99040754D01*
X129675000Y-99475100D01*
X129675000Y-103505000D01*
X129751581Y-103890000D01*
X116205005Y-103890000D01*
X116205000Y-103889999D01*
X115956922Y-103939346D01*
X115866325Y-103957367D01*
X115579210Y-104149210D01*
X115579208Y-104149213D01*
X114666173Y-105062248D01*
X114626547Y-105045794D01*
X113976306Y-105045226D01*
X113375345Y-105293538D01*
X112915154Y-105752927D01*
X112665794Y-106353453D01*
X112665226Y-107003694D01*
X111887000Y-107003694D01*
X111887000Y-102571930D01*
X117317675Y-102571930D01*
X117385735Y-102812931D01*
X117905034Y-102997767D01*
X118455538Y-102969805D01*
X118834265Y-102812931D01*
X118902325Y-102571930D01*
X122397675Y-102571930D01*
X122465735Y-102812931D01*
X122985034Y-102997767D01*
X123535538Y-102969805D01*
X123914265Y-102812931D01*
X123982325Y-102571930D01*
X123190000Y-101779605D01*
X122397675Y-102571930D01*
X118902325Y-102571930D01*
X118110000Y-101779605D01*
X117317675Y-102571930D01*
X111887000Y-102571930D01*
X111887000Y-101395034D01*
X116712233Y-101395034D01*
X116740195Y-101945538D01*
X116897069Y-102324265D01*
X117138070Y-102392325D01*
X117930395Y-101600000D01*
X118289605Y-101600000D01*
X119081930Y-102392325D01*
X119322931Y-102324265D01*
X119507767Y-101804966D01*
X119486946Y-101395034D01*
X121792233Y-101395034D01*
X121820195Y-101945538D01*
X121977069Y-102324265D01*
X122218070Y-102392325D01*
X123010395Y-101600000D01*
X123369605Y-101600000D01*
X124161930Y-102392325D01*
X124402931Y-102324265D01*
X124587767Y-101804966D01*
X124559805Y-101254462D01*
X124402931Y-100875735D01*
X124161930Y-100807675D01*
X123369605Y-101600000D01*
X123010395Y-101600000D01*
X122218070Y-100807675D01*
X121977069Y-100875735D01*
X121792233Y-101395034D01*
X119486946Y-101395034D01*
X119479805Y-101254462D01*
X119322931Y-100875735D01*
X119081930Y-100807675D01*
X118289605Y-101600000D01*
X117930395Y-101600000D01*
X117138070Y-100807675D01*
X116897069Y-100875735D01*
X116712233Y-101395034D01*
X111887000Y-101395034D01*
X111887000Y-97898579D01*
X112682248Y-98693827D01*
X112665794Y-98733453D01*
X112665226Y-99383694D01*
X112913538Y-99984655D01*
X113372927Y-100444846D01*
X113973453Y-100694206D01*
X114623694Y-100694774D01*
X115224655Y-100446462D01*
X115684846Y-99987073D01*
X115934206Y-99386547D01*
X115934251Y-99334398D01*
X116724190Y-99334398D01*
X116934686Y-99843837D01*
X117324113Y-100233944D01*
X117539496Y-100323379D01*
X117385735Y-100387069D01*
X117317675Y-100628070D01*
X118110000Y-101420395D01*
X118902325Y-100628070D01*
X118834265Y-100387069D01*
X118668960Y-100328231D01*
X118893837Y-100235314D01*
X119283944Y-99845887D01*
X119495329Y-99336816D01*
X119495810Y-98785602D01*
X119285314Y-98276163D01*
X118895887Y-97886056D01*
X118386816Y-97674671D01*
X117835602Y-97674190D01*
X117326163Y-97884686D01*
X116936056Y-98274113D01*
X116724671Y-98783184D01*
X116724190Y-99334398D01*
X115934251Y-99334398D01*
X115934774Y-98736306D01*
X115686462Y-98135345D01*
X115227073Y-97675154D01*
X114626547Y-97425794D01*
X113976306Y-97425226D01*
X113934202Y-97442623D01*
X111967199Y-95475619D01*
X111967199Y-94183200D01*
X114883724Y-94183200D01*
X114984264Y-94688648D01*
X115270577Y-95117147D01*
X115699076Y-95403460D01*
X116204524Y-95504000D01*
X116256276Y-95504000D01*
X116761724Y-95403460D01*
X117190223Y-95117147D01*
X117476536Y-94688648D01*
X117500400Y-94568676D01*
X117524264Y-94688648D01*
X117810577Y-95117147D01*
X118239076Y-95403460D01*
X118744524Y-95504000D01*
X118796276Y-95504000D01*
X119301724Y-95403460D01*
X119730223Y-95117147D01*
X120016536Y-94688648D01*
X120044908Y-94546012D01*
X120172144Y-94853211D01*
X120515191Y-95237801D01*
X120979301Y-95461838D01*
X121183400Y-95339141D01*
X121183400Y-94310200D01*
X121163400Y-94310200D01*
X121163400Y-94056200D01*
X121183400Y-94056200D01*
X121183400Y-93027259D01*
X120979301Y-92904562D01*
X120515191Y-93128599D01*
X120172144Y-93513189D01*
X120044908Y-93820388D01*
X120016536Y-93677752D01*
X119730223Y-93249253D01*
X119301724Y-92962940D01*
X118796276Y-92862400D01*
X118744524Y-92862400D01*
X118239076Y-92962940D01*
X117810577Y-93249253D01*
X117524264Y-93677752D01*
X117500400Y-93797724D01*
X117476536Y-93677752D01*
X117190223Y-93249253D01*
X116761724Y-92962940D01*
X116256276Y-92862400D01*
X116204524Y-92862400D01*
X115699076Y-92962940D01*
X115270577Y-93249253D01*
X114984264Y-93677752D01*
X114883724Y-94183200D01*
X111967199Y-94183200D01*
X111967199Y-91643200D01*
X116153724Y-91643200D01*
X116254264Y-92148648D01*
X116540577Y-92577147D01*
X116969076Y-92863460D01*
X117474524Y-92964000D01*
X117526276Y-92964000D01*
X118031724Y-92863460D01*
X118460223Y-92577147D01*
X118746536Y-92148648D01*
X118774908Y-92006012D01*
X118902144Y-92313211D01*
X119245191Y-92697801D01*
X119709301Y-92921838D01*
X119913400Y-92799141D01*
X119913400Y-91770200D01*
X119893400Y-91770200D01*
X119893400Y-91516200D01*
X119913400Y-91516200D01*
X119913400Y-90487259D01*
X120167400Y-90487259D01*
X120167400Y-91516200D01*
X120187400Y-91516200D01*
X120187400Y-91770200D01*
X120167400Y-91770200D01*
X120167400Y-92799141D01*
X120371499Y-92921838D01*
X120835609Y-92697801D01*
X121178656Y-92313211D01*
X121305892Y-92006012D01*
X121334264Y-92148648D01*
X121620577Y-92577147D01*
X121695400Y-92627142D01*
X121695400Y-92930581D01*
X121641499Y-92904562D01*
X121437400Y-93027259D01*
X121437400Y-94056200D01*
X121457400Y-94056200D01*
X121457400Y-94310200D01*
X121437400Y-94310200D01*
X121437400Y-95339141D01*
X121641499Y-95461838D01*
X121965884Y-95305250D01*
X122305000Y-95644365D01*
X122305000Y-97985673D01*
X122016056Y-98274113D01*
X121804671Y-98783184D01*
X121804190Y-99334398D01*
X122014686Y-99843837D01*
X122404113Y-100233944D01*
X122619496Y-100323379D01*
X122465735Y-100387069D01*
X122397675Y-100628070D01*
X123190000Y-101420395D01*
X123982325Y-100628070D01*
X123914265Y-100387069D01*
X123748960Y-100328231D01*
X123973837Y-100235314D01*
X124363944Y-99845887D01*
X124575329Y-99336816D01*
X124575810Y-98785602D01*
X124365314Y-98276163D01*
X124075000Y-97985342D01*
X124075000Y-95464471D01*
X124381724Y-95403460D01*
X124810223Y-95117147D01*
X125096536Y-94688648D01*
X125197076Y-94183200D01*
X125096536Y-93677752D01*
X124810223Y-93249253D01*
X124381724Y-92962940D01*
X123876276Y-92862400D01*
X123824524Y-92862400D01*
X123465400Y-92933834D01*
X123465400Y-92627142D01*
X123540223Y-92577147D01*
X123826536Y-92148648D01*
X123850400Y-92028676D01*
X123874264Y-92148648D01*
X124160577Y-92577147D01*
X124589076Y-92863460D01*
X125094524Y-92964000D01*
X125146276Y-92964000D01*
X125651724Y-92863460D01*
X126080223Y-92577147D01*
X126366536Y-92148648D01*
X126467076Y-91643200D01*
X126366536Y-91137752D01*
X126080223Y-90709253D01*
X125651724Y-90422940D01*
X125146276Y-90322400D01*
X125094524Y-90322400D01*
X124589076Y-90422940D01*
X124160577Y-90709253D01*
X123874264Y-91137752D01*
X123850400Y-91257724D01*
X123826536Y-91137752D01*
X123540223Y-90709253D01*
X123111724Y-90422940D01*
X122606276Y-90322400D01*
X122554524Y-90322400D01*
X122049076Y-90422940D01*
X121620577Y-90709253D01*
X121334264Y-91137752D01*
X121305892Y-91280388D01*
X121178656Y-90973189D01*
X120835609Y-90588599D01*
X120371499Y-90364562D01*
X120167400Y-90487259D01*
X119913400Y-90487259D01*
X119709301Y-90364562D01*
X119245191Y-90588599D01*
X118902144Y-90973189D01*
X118774908Y-91280388D01*
X118746536Y-91137752D01*
X118460223Y-90709253D01*
X118031724Y-90422940D01*
X117526276Y-90322400D01*
X117474524Y-90322400D01*
X116969076Y-90422940D01*
X116540577Y-90709253D01*
X116254264Y-91137752D01*
X116153724Y-91643200D01*
X111967199Y-91643200D01*
X111967199Y-89995255D01*
X112055502Y-90054257D01*
X112765074Y-90195400D01*
X112837726Y-90195400D01*
X113547298Y-90054257D01*
X114148843Y-89652317D01*
X114550783Y-89050772D01*
X114691926Y-88341200D01*
X114550783Y-87631628D01*
X114494582Y-87547517D01*
X114508766Y-87553407D01*
X115408088Y-87554192D01*
X116239254Y-87210761D01*
X116875726Y-86575399D01*
X117220607Y-85744834D01*
X117220610Y-85740888D01*
X124129408Y-85740888D01*
X124472839Y-86572054D01*
X125108201Y-87208526D01*
X125938766Y-87553407D01*
X126838088Y-87554192D01*
X126856972Y-87546389D01*
X126800017Y-87631628D01*
X126658874Y-88341200D01*
X126800017Y-89050772D01*
X127201957Y-89652317D01*
X127803502Y-90054257D01*
X128513074Y-90195400D01*
X128585726Y-90195400D01*
X129295298Y-90054257D01*
X129896843Y-89652317D01*
X129925000Y-89610177D01*
X129925000Y-94883421D01*
X127366172Y-97442248D01*
X127326547Y-97425794D01*
X126676306Y-97425226D01*
X126075345Y-97673538D01*
X125615154Y-98132927D01*
X125365794Y-98733453D01*
X125365226Y-99383694D01*
X125613538Y-99984655D01*
X126072927Y-100444846D01*
X126673453Y-100694206D01*
X127323694Y-100694774D01*
X127924655Y-100446462D01*
X128384846Y-99987073D01*
X128634206Y-99386547D01*
X128634774Y-98736306D01*
X128617377Y-98694203D01*
X131435787Y-95875792D01*
X131435790Y-95875790D01*
X131627633Y-95588675D01*
X131644476Y-95504000D01*
X131695001Y-95250000D01*
X131695000Y-95249995D01*
X131695000Y-87904398D01*
X134504190Y-87904398D01*
X134714686Y-88413837D01*
X135104113Y-88803944D01*
X135613184Y-89015329D01*
X136164398Y-89015810D01*
X136673837Y-88805314D01*
X137063944Y-88415887D01*
X137275329Y-87906816D01*
X137275331Y-87904398D01*
X139584190Y-87904398D01*
X139794686Y-88413837D01*
X140184113Y-88803944D01*
X140693184Y-89015329D01*
X141244398Y-89015810D01*
X141753837Y-88805314D01*
X142143944Y-88415887D01*
X142355329Y-87906816D01*
X142355810Y-87355602D01*
X142145314Y-86846163D01*
X141755887Y-86456056D01*
X141540504Y-86366621D01*
X141694265Y-86302931D01*
X141762325Y-86061930D01*
X140970000Y-85269605D01*
X140177675Y-86061930D01*
X140245735Y-86302931D01*
X140411040Y-86361769D01*
X140186163Y-86454686D01*
X139796056Y-86844113D01*
X139584671Y-87353184D01*
X139584190Y-87904398D01*
X137275331Y-87904398D01*
X137275810Y-87355602D01*
X137065314Y-86846163D01*
X136675887Y-86456056D01*
X136460504Y-86366621D01*
X136614265Y-86302931D01*
X136682325Y-86061930D01*
X135890000Y-85269605D01*
X135097675Y-86061930D01*
X135165735Y-86302931D01*
X135331040Y-86361769D01*
X135106163Y-86454686D01*
X134716056Y-86844113D01*
X134504671Y-87353184D01*
X134504190Y-87904398D01*
X131695000Y-87904398D01*
X131695000Y-84885034D01*
X134492233Y-84885034D01*
X134520195Y-85435538D01*
X134677069Y-85814265D01*
X134918070Y-85882325D01*
X135710395Y-85090000D01*
X136069605Y-85090000D01*
X136861930Y-85882325D01*
X137102931Y-85814265D01*
X137287767Y-85294966D01*
X137266946Y-84885034D01*
X139572233Y-84885034D01*
X139600195Y-85435538D01*
X139757069Y-85814265D01*
X139998070Y-85882325D01*
X140790395Y-85090000D01*
X141149605Y-85090000D01*
X141941930Y-85882325D01*
X142182931Y-85814265D01*
X142367767Y-85294966D01*
X142339805Y-84744462D01*
X142182931Y-84365735D01*
X141941930Y-84297675D01*
X141149605Y-85090000D01*
X140790395Y-85090000D01*
X139998070Y-84297675D01*
X139757069Y-84365735D01*
X139572233Y-84885034D01*
X137266946Y-84885034D01*
X137259805Y-84744462D01*
X137102931Y-84365735D01*
X136861930Y-84297675D01*
X136069605Y-85090000D01*
X135710395Y-85090000D01*
X134918070Y-84297675D01*
X134677069Y-84365735D01*
X134492233Y-84885034D01*
X131695000Y-84885034D01*
X131695000Y-84201005D01*
X131695001Y-84201000D01*
X131678505Y-84118070D01*
X135097675Y-84118070D01*
X135890000Y-84910395D01*
X136682325Y-84118070D01*
X140177675Y-84118070D01*
X140970000Y-84910395D01*
X141762325Y-84118070D01*
X141694265Y-83877069D01*
X141174966Y-83692233D01*
X140624462Y-83720195D01*
X140245735Y-83877069D01*
X140177675Y-84118070D01*
X136682325Y-84118070D01*
X136614265Y-83877069D01*
X136094966Y-83692233D01*
X135544462Y-83720195D01*
X135165735Y-83877069D01*
X135097675Y-84118070D01*
X131678505Y-84118070D01*
X131627633Y-83862326D01*
X131627633Y-83862325D01*
X131435790Y-83575210D01*
X131435787Y-83575208D01*
X128395702Y-80535122D01*
X128424369Y-80391000D01*
X128318029Y-79856391D01*
X128015197Y-79403172D01*
X127561978Y-79100340D01*
X127027369Y-78994000D01*
X126972631Y-78994000D01*
X126438022Y-79100340D01*
X125984803Y-79403172D01*
X125681971Y-79856391D01*
X125575631Y-80391000D01*
X125681971Y-80925609D01*
X125984803Y-81378828D01*
X126438022Y-81681660D01*
X126972631Y-81788000D01*
X127027369Y-81788000D01*
X127125834Y-81768414D01*
X129925000Y-84567579D01*
X129925000Y-87072223D01*
X129896843Y-87030083D01*
X129295298Y-86628143D01*
X128585726Y-86487000D01*
X128513074Y-86487000D01*
X128327069Y-86523999D01*
X128650607Y-85744834D01*
X128651392Y-84845512D01*
X128307961Y-84014346D01*
X127672599Y-83377874D01*
X126842034Y-83032993D01*
X125942712Y-83032208D01*
X125111546Y-83375639D01*
X124475074Y-84011001D01*
X124130193Y-84841566D01*
X124129408Y-85740888D01*
X117220610Y-85740888D01*
X117221392Y-84845512D01*
X116877961Y-84014346D01*
X116242599Y-83377874D01*
X115412034Y-83032993D01*
X115146139Y-83032761D01*
X115340597Y-82902828D01*
X115643429Y-82449609D01*
X115681528Y-82258070D01*
X123105780Y-82258070D01*
X123259826Y-82629997D01*
X123624801Y-83034858D01*
X124116928Y-83269231D01*
X124333000Y-83147476D01*
X124333000Y-82042000D01*
X124587000Y-82042000D01*
X124587000Y-83147476D01*
X124803072Y-83269231D01*
X125295199Y-83034858D01*
X125660174Y-82629997D01*
X125814220Y-82258070D01*
X125691720Y-82042000D01*
X124587000Y-82042000D01*
X124333000Y-82042000D01*
X123228280Y-82042000D01*
X123105780Y-82258070D01*
X115681528Y-82258070D01*
X115749769Y-81915000D01*
X115643429Y-81380391D01*
X115340597Y-80927172D01*
X115051601Y-80734070D01*
X115511180Y-80734070D01*
X115665226Y-81105997D01*
X116030201Y-81510858D01*
X116522328Y-81745231D01*
X116738400Y-81623476D01*
X116738400Y-80518000D01*
X116992400Y-80518000D01*
X116992400Y-81623476D01*
X117208472Y-81745231D01*
X117572362Y-81571930D01*
X123105780Y-81571930D01*
X123228280Y-81788000D01*
X124333000Y-81788000D01*
X124333000Y-80682524D01*
X124587000Y-80682524D01*
X124587000Y-81788000D01*
X125691720Y-81788000D01*
X125814220Y-81571930D01*
X125660174Y-81200003D01*
X125295199Y-80795142D01*
X124803072Y-80560769D01*
X124587000Y-80682524D01*
X124333000Y-80682524D01*
X124116928Y-80560769D01*
X123624801Y-80795142D01*
X123259826Y-81200003D01*
X123105780Y-81571930D01*
X117572362Y-81571930D01*
X117700599Y-81510858D01*
X118065574Y-81105997D01*
X118219620Y-80734070D01*
X118097120Y-80518000D01*
X116992400Y-80518000D01*
X116738400Y-80518000D01*
X115633680Y-80518000D01*
X115511180Y-80734070D01*
X115051601Y-80734070D01*
X114887378Y-80624340D01*
X114352769Y-80518000D01*
X114298031Y-80518000D01*
X113763422Y-80624340D01*
X113310203Y-80927172D01*
X113007371Y-81380391D01*
X112901031Y-81915000D01*
X112929699Y-82059122D01*
X110456409Y-84532411D01*
X110264566Y-84819526D01*
X110264566Y-84819527D01*
X110197198Y-85158201D01*
X110197199Y-85158206D01*
X110197199Y-95842194D01*
X110197198Y-95842199D01*
X110242041Y-96067633D01*
X110264566Y-96180874D01*
X110456409Y-96467989D01*
X111651421Y-97663000D01*
X94107000Y-97663000D01*
X94107000Y-94234000D01*
X97548960Y-94234000D01*
X97548960Y-96266000D01*
X97593238Y-96501317D01*
X97732310Y-96717441D01*
X97944510Y-96862431D01*
X98196400Y-96913440D01*
X99923600Y-96913440D01*
X100158917Y-96869162D01*
X100375041Y-96730090D01*
X100520031Y-96517890D01*
X100528400Y-96476561D01*
X100540330Y-96494415D01*
X101026511Y-96819271D01*
X101600000Y-96933345D01*
X102173489Y-96819271D01*
X102659670Y-96494415D01*
X102870000Y-96179634D01*
X103080330Y-96494415D01*
X103566511Y-96819271D01*
X104140000Y-96933345D01*
X104713489Y-96819271D01*
X105199670Y-96494415D01*
X105410000Y-96179634D01*
X105620330Y-96494415D01*
X106106511Y-96819271D01*
X106680000Y-96933345D01*
X107253489Y-96819271D01*
X107739670Y-96494415D01*
X108064526Y-96008234D01*
X108178600Y-95434745D01*
X108178600Y-95065255D01*
X108064526Y-94491766D01*
X107739670Y-94005585D01*
X107253489Y-93680729D01*
X106680000Y-93566655D01*
X106106511Y-93680729D01*
X105620330Y-94005585D01*
X105410000Y-94320366D01*
X105199670Y-94005585D01*
X104713489Y-93680729D01*
X104140000Y-93566655D01*
X103566511Y-93680729D01*
X103080330Y-94005585D01*
X102870000Y-94320366D01*
X102659670Y-94005585D01*
X102173489Y-93680729D01*
X101600000Y-93566655D01*
X101026511Y-93680729D01*
X100540330Y-94005585D01*
X100530757Y-94019913D01*
X100526762Y-93998683D01*
X100387690Y-93782559D01*
X100175490Y-93637569D01*
X99923600Y-93586560D01*
X98196400Y-93586560D01*
X97961083Y-93630838D01*
X97744959Y-93769910D01*
X97599969Y-93982110D01*
X97548960Y-94234000D01*
X94107000Y-94234000D01*
X94107000Y-87906661D01*
X98932758Y-87906661D01*
X99144990Y-88420303D01*
X99353832Y-88629510D01*
X99146371Y-88836610D01*
X98933243Y-89349880D01*
X98932758Y-89905641D01*
X99144990Y-90419283D01*
X99537630Y-90812609D01*
X100050900Y-91025737D01*
X100606661Y-91026222D01*
X101120303Y-90813990D01*
X101513629Y-90421350D01*
X101599949Y-90213468D01*
X101684990Y-90419283D01*
X102077630Y-90812609D01*
X102590900Y-91025737D01*
X103146661Y-91026222D01*
X103660303Y-90813990D01*
X104053629Y-90421350D01*
X104266757Y-89908080D01*
X104267242Y-89352319D01*
X104055010Y-88838677D01*
X103846168Y-88629470D01*
X104053629Y-88422370D01*
X104266757Y-87909100D01*
X104267242Y-87353339D01*
X104055010Y-86839697D01*
X103662370Y-86446371D01*
X103395558Y-86335581D01*
X106373484Y-86335581D01*
X106514952Y-86638770D01*
X107251432Y-86923727D01*
X108040900Y-86905154D01*
X108684008Y-86638770D01*
X108825476Y-86335581D01*
X107599480Y-85109585D01*
X106373484Y-86335581D01*
X103395558Y-86335581D01*
X103149100Y-86233243D01*
X102593339Y-86232758D01*
X102079697Y-86444990D01*
X101686371Y-86837630D01*
X101600051Y-87045512D01*
X101515010Y-86839697D01*
X101122370Y-86446371D01*
X100609100Y-86233243D01*
X100053339Y-86232758D01*
X99539697Y-86444990D01*
X99146371Y-86837630D01*
X98933243Y-87350900D01*
X98932758Y-87906661D01*
X94107000Y-87906661D01*
X94107000Y-86335581D01*
X94374524Y-86335581D01*
X94515992Y-86638770D01*
X95252472Y-86923727D01*
X96041940Y-86905154D01*
X96685048Y-86638770D01*
X96826516Y-86335581D01*
X95600520Y-85109585D01*
X94374524Y-86335581D01*
X94107000Y-86335581D01*
X94107000Y-86114953D01*
X94194919Y-86155976D01*
X95420915Y-84929980D01*
X95780125Y-84929980D01*
X97006121Y-86155976D01*
X97309310Y-86014508D01*
X97594267Y-85278028D01*
X97577891Y-84581932D01*
X105605733Y-84581932D01*
X105624306Y-85371400D01*
X105890690Y-86014508D01*
X106193879Y-86155976D01*
X107419875Y-84929980D01*
X107779085Y-84929980D01*
X109005081Y-86155976D01*
X109308270Y-86014508D01*
X109593227Y-85278028D01*
X109574654Y-84488560D01*
X109308270Y-83845452D01*
X109005081Y-83703984D01*
X107779085Y-84929980D01*
X107419875Y-84929980D01*
X106193879Y-83703984D01*
X105890690Y-83845452D01*
X105605733Y-84581932D01*
X97577891Y-84581932D01*
X97575694Y-84488560D01*
X97309310Y-83845452D01*
X97006121Y-83703984D01*
X95780125Y-84929980D01*
X95420915Y-84929980D01*
X94194919Y-83703984D01*
X94107000Y-83745007D01*
X94107000Y-83524379D01*
X94374524Y-83524379D01*
X95600520Y-84750375D01*
X96826516Y-83524379D01*
X106373484Y-83524379D01*
X107599480Y-84750375D01*
X108825476Y-83524379D01*
X108684008Y-83221190D01*
X107947528Y-82936233D01*
X107158060Y-82954806D01*
X106514952Y-83221190D01*
X106373484Y-83524379D01*
X96826516Y-83524379D01*
X96685048Y-83221190D01*
X95948568Y-82936233D01*
X95159100Y-82954806D01*
X94515992Y-83221190D01*
X94374524Y-83524379D01*
X94107000Y-83524379D01*
X94107000Y-80047930D01*
X115511180Y-80047930D01*
X115633680Y-80264000D01*
X116738400Y-80264000D01*
X116738400Y-79158524D01*
X116992400Y-79158524D01*
X116992400Y-80264000D01*
X118097120Y-80264000D01*
X118219620Y-80047930D01*
X118065574Y-79676003D01*
X117700599Y-79271142D01*
X117208472Y-79036769D01*
X116992400Y-79158524D01*
X116738400Y-79158524D01*
X116522328Y-79036769D01*
X116030201Y-79271142D01*
X115665226Y-79676003D01*
X115511180Y-80047930D01*
X94107000Y-80047930D01*
X94107000Y-77597044D01*
X132586445Y-77610313D01*
G36*
X92583000Y-93599286D02*
X92582309Y-93599000D01*
X91725750Y-93599000D01*
X91567000Y-93757750D01*
X91567000Y-95123000D01*
X91587000Y-95123000D01*
X91587000Y-95377000D01*
X91567000Y-95377000D01*
X91567000Y-95397000D01*
X91313000Y-95397000D01*
X91313000Y-95377000D01*
X89947750Y-95377000D01*
X89789000Y-95535750D01*
X89789000Y-96392310D01*
X89885673Y-96625699D01*
X90064302Y-96804327D01*
X90106966Y-96821999D01*
X89882330Y-97158190D01*
X89756655Y-97790000D01*
X89882330Y-98421810D01*
X90240222Y-98957433D01*
X90775845Y-99315325D01*
X91407655Y-99441000D01*
X91472345Y-99441000D01*
X92104155Y-99315325D01*
X92583000Y-98995371D01*
X92583000Y-99060000D01*
X92593006Y-99109410D01*
X92621447Y-99151035D01*
X92663841Y-99178315D01*
X92710000Y-99187000D01*
X110363000Y-99187000D01*
X110363000Y-112903000D01*
X86894837Y-112903000D01*
X87023729Y-112849611D01*
X87079410Y-112619016D01*
X86360000Y-111899605D01*
X85640590Y-112619016D01*
X85696271Y-112849611D01*
X85849693Y-112903000D01*
X82030218Y-112903000D01*
X82666174Y-112268153D01*
X82968912Y-111539078D01*
X85062378Y-111539078D01*
X85091917Y-112049428D01*
X85230389Y-112383729D01*
X85460984Y-112439410D01*
X86180395Y-111720000D01*
X86539605Y-111720000D01*
X87259016Y-112439410D01*
X87489611Y-112383729D01*
X87657622Y-111900922D01*
X87628083Y-111390572D01*
X87489611Y-111056271D01*
X87259016Y-111000590D01*
X86539605Y-111720000D01*
X86180395Y-111720000D01*
X85460984Y-111000590D01*
X85230389Y-111056271D01*
X85062378Y-111539078D01*
X82968912Y-111539078D01*
X83144454Y-111116326D01*
X83145543Y-109869146D01*
X82669273Y-108716485D01*
X82523044Y-108570000D01*
X85062560Y-108570000D01*
X85062560Y-109870000D01*
X85106838Y-110105317D01*
X85245910Y-110321441D01*
X85458110Y-110466431D01*
X85710000Y-110517440D01*
X85872385Y-110517440D01*
X85696271Y-110590389D01*
X85640590Y-110820984D01*
X86360000Y-111540395D01*
X87079410Y-110820984D01*
X87023729Y-110590389D01*
X86814098Y-110517440D01*
X87010000Y-110517440D01*
X87245317Y-110473162D01*
X87461441Y-110334090D01*
X87606431Y-110121890D01*
X87657440Y-109870000D01*
X87657440Y-108570000D01*
X87613162Y-108334683D01*
X87474090Y-108118559D01*
X87261890Y-107973569D01*
X87010000Y-107922560D01*
X85710000Y-107922560D01*
X85474683Y-107966838D01*
X85258559Y-108105910D01*
X85113569Y-108318110D01*
X85062560Y-108570000D01*
X82523044Y-108570000D01*
X81788153Y-107833826D01*
X80636326Y-107355546D01*
X79389146Y-107354457D01*
X78236485Y-107830727D01*
X77597000Y-108469097D01*
X77597000Y-105695750D01*
X78725000Y-105695750D01*
X78725000Y-106186309D01*
X78821673Y-106419698D01*
X79000301Y-106598327D01*
X79233690Y-106695000D01*
X79724250Y-106695000D01*
X79883000Y-106536250D01*
X79883000Y-105537000D01*
X80137000Y-105537000D01*
X80137000Y-106536250D01*
X80295750Y-106695000D01*
X80786310Y-106695000D01*
X81019699Y-106598327D01*
X81198327Y-106419698D01*
X81244173Y-106309016D01*
X85640590Y-106309016D01*
X85696271Y-106539611D01*
X86179078Y-106707622D01*
X86689428Y-106678083D01*
X87023729Y-106539611D01*
X87079410Y-106309016D01*
X86360000Y-105589605D01*
X85640590Y-106309016D01*
X81244173Y-106309016D01*
X81295000Y-106186309D01*
X81295000Y-105695750D01*
X81136250Y-105537000D01*
X80137000Y-105537000D01*
X79883000Y-105537000D01*
X78883750Y-105537000D01*
X78725000Y-105695750D01*
X77597000Y-105695750D01*
X77597000Y-103164481D01*
X78724777Y-103164481D01*
X78919995Y-103636943D01*
X79281155Y-103998735D01*
X79585235Y-104125000D01*
X79233690Y-104125000D01*
X79000301Y-104221673D01*
X78821673Y-104400302D01*
X78725000Y-104633691D01*
X78725000Y-105124250D01*
X78883750Y-105283000D01*
X79883000Y-105283000D01*
X79883000Y-105263000D01*
X80137000Y-105263000D01*
X80137000Y-105283000D01*
X81136250Y-105283000D01*
X81190172Y-105229078D01*
X85062378Y-105229078D01*
X85091917Y-105739428D01*
X85230389Y-106073729D01*
X85460984Y-106129410D01*
X86180395Y-105410000D01*
X86539605Y-105410000D01*
X87259016Y-106129410D01*
X87489611Y-106073729D01*
X87657622Y-105590922D01*
X87628083Y-105080572D01*
X87489611Y-104746271D01*
X87259016Y-104690590D01*
X86539605Y-105410000D01*
X86180395Y-105410000D01*
X85460984Y-104690590D01*
X85230389Y-104746271D01*
X85062378Y-105229078D01*
X81190172Y-105229078D01*
X81295000Y-105124250D01*
X81295000Y-104633691D01*
X81198327Y-104400302D01*
X81019699Y-104221673D01*
X80786310Y-104125000D01*
X80434433Y-104125000D01*
X80736943Y-104000005D01*
X81098735Y-103638845D01*
X81249593Y-103275539D01*
X82265132Y-102260000D01*
X85062560Y-102260000D01*
X85062560Y-103560000D01*
X85106838Y-103795317D01*
X85245910Y-104011441D01*
X85458110Y-104156431D01*
X85710000Y-104207440D01*
X85872385Y-104207440D01*
X85696271Y-104280389D01*
X85640590Y-104510984D01*
X86360000Y-105230395D01*
X87079410Y-104510984D01*
X87023729Y-104280389D01*
X86814098Y-104207440D01*
X87010000Y-104207440D01*
X87245317Y-104163162D01*
X87461441Y-104024090D01*
X87606431Y-103811890D01*
X87657440Y-103560000D01*
X87657440Y-102260000D01*
X87613162Y-102024683D01*
X87474090Y-101808559D01*
X87261890Y-101663569D01*
X87010000Y-101612560D01*
X85710000Y-101612560D01*
X85474683Y-101656838D01*
X85258559Y-101795910D01*
X85113569Y-102008110D01*
X85062560Y-102260000D01*
X82265132Y-102260000D01*
X83060132Y-101465000D01*
X88596796Y-101465000D01*
X92333424Y-105201628D01*
X92701645Y-105447666D01*
X93135990Y-105534062D01*
X94270235Y-105534062D01*
X94109009Y-105775354D01*
X94015000Y-106247968D01*
X94015000Y-107112032D01*
X94109009Y-107584646D01*
X94376723Y-107985309D01*
X94777386Y-108253023D01*
X95250000Y-108347032D01*
X95722614Y-108253023D01*
X96123277Y-107985309D01*
X96390991Y-107584646D01*
X96485000Y-107112032D01*
X96485000Y-106807000D01*
X96555000Y-106807000D01*
X96555000Y-107207000D01*
X96697610Y-107669947D01*
X97006526Y-108043080D01*
X97434719Y-108269592D01*
X97472391Y-108273462D01*
X97663000Y-108148731D01*
X97663000Y-106807000D01*
X97917000Y-106807000D01*
X97917000Y-108148731D01*
X98107609Y-108273462D01*
X98145281Y-108269592D01*
X98573474Y-108043080D01*
X98882390Y-107669947D01*
X99025000Y-107207000D01*
X99025000Y-106807000D01*
X97917000Y-106807000D01*
X97663000Y-106807000D01*
X96555000Y-106807000D01*
X96485000Y-106807000D01*
X96485000Y-106247968D01*
X96390991Y-105775354D01*
X96229765Y-105534062D01*
X96826755Y-105534062D01*
X96697610Y-105690053D01*
X96555000Y-106153000D01*
X96555000Y-106553000D01*
X97663000Y-106553000D01*
X97663000Y-106533000D01*
X97917000Y-106533000D01*
X97917000Y-106553000D01*
X98997868Y-106553000D01*
X99095000Y-106650132D01*
X99095000Y-107112032D01*
X99189009Y-107584646D01*
X99456723Y-107985309D01*
X99857386Y-108253023D01*
X100330000Y-108347032D01*
X100802614Y-108253023D01*
X101203277Y-107985309D01*
X101470991Y-107584646D01*
X101565000Y-107112032D01*
X101565000Y-106807000D01*
X104175000Y-106807000D01*
X104175000Y-107207000D01*
X104317610Y-107669947D01*
X104626526Y-108043080D01*
X105054719Y-108269592D01*
X105092391Y-108273462D01*
X105283000Y-108148731D01*
X105283000Y-106807000D01*
X105537000Y-106807000D01*
X105537000Y-108148731D01*
X105727609Y-108273462D01*
X105765281Y-108269592D01*
X106193474Y-108043080D01*
X106502390Y-107669947D01*
X106645000Y-107207000D01*
X106645000Y-106807000D01*
X105537000Y-106807000D01*
X105283000Y-106807000D01*
X104175000Y-106807000D01*
X101565000Y-106807000D01*
X101565000Y-106247968D01*
X101546110Y-106153000D01*
X104175000Y-106153000D01*
X104175000Y-106553000D01*
X105283000Y-106553000D01*
X105283000Y-105211269D01*
X105537000Y-105211269D01*
X105537000Y-106553000D01*
X106645000Y-106553000D01*
X106645000Y-106247968D01*
X106715000Y-106247968D01*
X106715000Y-107112032D01*
X106809009Y-107584646D01*
X107076723Y-107985309D01*
X107477386Y-108253023D01*
X107950000Y-108347032D01*
X108422614Y-108253023D01*
X108823277Y-107985309D01*
X109090991Y-107584646D01*
X109185000Y-107112032D01*
X109185000Y-106247968D01*
X109090991Y-105775354D01*
X108823277Y-105374691D01*
X108422614Y-105106977D01*
X107950000Y-105012968D01*
X107477386Y-105106977D01*
X107076723Y-105374691D01*
X106809009Y-105775354D01*
X106715000Y-106247968D01*
X106645000Y-106247968D01*
X106645000Y-106153000D01*
X106502390Y-105690053D01*
X106193474Y-105316920D01*
X105765281Y-105090408D01*
X105727609Y-105086538D01*
X105537000Y-105211269D01*
X105283000Y-105211269D01*
X105092391Y-105086538D01*
X105054719Y-105090408D01*
X104626526Y-105316920D01*
X104317610Y-105690053D01*
X104175000Y-106153000D01*
X101546110Y-106153000D01*
X101470991Y-105775354D01*
X101203277Y-105374691D01*
X100802614Y-105106977D01*
X100752051Y-105096919D01*
X99683878Y-104028746D01*
X99728590Y-103870421D01*
X98936265Y-103078096D01*
X98922123Y-103092239D01*
X98742518Y-102912634D01*
X98756660Y-102898491D01*
X99115870Y-102898491D01*
X99908195Y-103690816D01*
X100149196Y-103622756D01*
X100208034Y-103457451D01*
X100300951Y-103682328D01*
X100690378Y-104072435D01*
X101199449Y-104283820D01*
X101750663Y-104284301D01*
X102260102Y-104073805D01*
X102463841Y-103870421D01*
X104493940Y-103870421D01*
X104562000Y-104111422D01*
X105081299Y-104296258D01*
X105631803Y-104268296D01*
X106010530Y-104111422D01*
X106078590Y-103870421D01*
X105286265Y-103078096D01*
X104493940Y-103870421D01*
X102463841Y-103870421D01*
X102650209Y-103684378D01*
X102861594Y-103175307D01*
X102862014Y-102693525D01*
X103888498Y-102693525D01*
X103916460Y-103244029D01*
X104073334Y-103622756D01*
X104314335Y-103690816D01*
X105106660Y-102898491D01*
X105465870Y-102898491D01*
X106258195Y-103690816D01*
X106499196Y-103622756D01*
X106558034Y-103457451D01*
X106650951Y-103682328D01*
X107040378Y-104072435D01*
X107549449Y-104283820D01*
X108100663Y-104284301D01*
X108610102Y-104073805D01*
X109000209Y-103684378D01*
X109211594Y-103175307D01*
X109212075Y-102624093D01*
X109001579Y-102114654D01*
X108612152Y-101724547D01*
X108103081Y-101513162D01*
X107551867Y-101512681D01*
X107042428Y-101723177D01*
X106652321Y-102112604D01*
X106562886Y-102327987D01*
X106499196Y-102174226D01*
X106258195Y-102106166D01*
X105465870Y-102898491D01*
X105106660Y-102898491D01*
X104314335Y-102106166D01*
X104073334Y-102174226D01*
X103888498Y-102693525D01*
X102862014Y-102693525D01*
X102862075Y-102624093D01*
X102651579Y-102114654D01*
X102463814Y-101926561D01*
X104493940Y-101926561D01*
X105286265Y-102718886D01*
X106078590Y-101926561D01*
X106010530Y-101685560D01*
X105491231Y-101500724D01*
X104940727Y-101528686D01*
X104562000Y-101685560D01*
X104493940Y-101926561D01*
X102463814Y-101926561D01*
X102262152Y-101724547D01*
X101753081Y-101513162D01*
X101201867Y-101512681D01*
X100692428Y-101723177D01*
X100302321Y-102112604D01*
X100212886Y-102327987D01*
X100149196Y-102174226D01*
X99908195Y-102106166D01*
X99115870Y-102898491D01*
X98756660Y-102898491D01*
X97964335Y-102106166D01*
X97723334Y-102174226D01*
X97670584Y-102322429D01*
X97609196Y-102174226D01*
X97368195Y-102106166D01*
X96575870Y-102898491D01*
X96590013Y-102912634D01*
X96410408Y-103092239D01*
X96396265Y-103078096D01*
X96382123Y-103092239D01*
X96202518Y-102912634D01*
X96216660Y-102898491D01*
X95424335Y-102106166D01*
X95183334Y-102174226D01*
X95124496Y-102339531D01*
X95031579Y-102114654D01*
X94843814Y-101926561D01*
X95603940Y-101926561D01*
X96396265Y-102718886D01*
X97188590Y-101926561D01*
X98143940Y-101926561D01*
X98936265Y-102718886D01*
X99728590Y-101926561D01*
X99660530Y-101685560D01*
X99141231Y-101500724D01*
X98590727Y-101528686D01*
X98212000Y-101685560D01*
X98143940Y-101926561D01*
X97188590Y-101926561D01*
X97120530Y-101685560D01*
X96601231Y-101500724D01*
X96050727Y-101528686D01*
X95672000Y-101685560D01*
X95603940Y-101926561D01*
X94843814Y-101926561D01*
X94642152Y-101724547D01*
X94133081Y-101513162D01*
X93581867Y-101512681D01*
X93072428Y-101723177D01*
X92682321Y-102112604D01*
X92615525Y-102273465D01*
X89869494Y-99527434D01*
X89501274Y-99281397D01*
X89066928Y-99195000D01*
X88474234Y-99195000D01*
X88829778Y-98957433D01*
X89187670Y-98421810D01*
X89313345Y-97790000D01*
X89187670Y-97158190D01*
X88963034Y-96821999D01*
X89005698Y-96804327D01*
X89184327Y-96625699D01*
X89281000Y-96392310D01*
X89281000Y-95535750D01*
X89122250Y-95377000D01*
X87757000Y-95377000D01*
X87757000Y-95397000D01*
X87503000Y-95397000D01*
X87503000Y-95377000D01*
X86137750Y-95377000D01*
X85979000Y-95535750D01*
X85979000Y-96392310D01*
X86075673Y-96625699D01*
X86254302Y-96804327D01*
X86296966Y-96821999D01*
X86072330Y-97158190D01*
X85946655Y-97790000D01*
X86072330Y-98421810D01*
X86430222Y-98957433D01*
X86785766Y-99195000D01*
X82590000Y-99195000D01*
X82155654Y-99281397D01*
X81787434Y-99527434D01*
X79644021Y-101670847D01*
X79283057Y-101819995D01*
X78921265Y-102181155D01*
X78725223Y-102653276D01*
X78724777Y-103164481D01*
X77597000Y-103164481D01*
X77597000Y-96926400D01*
X78346560Y-96926400D01*
X78346560Y-98653600D01*
X78390838Y-98888917D01*
X78529910Y-99105041D01*
X78742110Y-99250031D01*
X78994000Y-99301040D01*
X81026000Y-99301040D01*
X81261317Y-99256762D01*
X81477441Y-99117690D01*
X81622431Y-98905490D01*
X81673440Y-98653600D01*
X81673440Y-96926400D01*
X81629162Y-96691083D01*
X81490090Y-96474959D01*
X81277890Y-96329969D01*
X81183073Y-96310768D01*
X81360732Y-96152036D01*
X81614709Y-95624791D01*
X81617358Y-95609026D01*
X81496217Y-95377000D01*
X80137000Y-95377000D01*
X80137000Y-95397000D01*
X79883000Y-95397000D01*
X79883000Y-95377000D01*
X78523783Y-95377000D01*
X78402642Y-95609026D01*
X78405291Y-95624791D01*
X78659268Y-96152036D01*
X78834845Y-96308907D01*
X78758683Y-96323238D01*
X78542559Y-96462310D01*
X78397569Y-96674510D01*
X78346560Y-96926400D01*
X77597000Y-96926400D01*
X77597000Y-92710000D01*
X78326655Y-92710000D01*
X78440729Y-93283489D01*
X78765585Y-93769670D01*
X79075069Y-93976461D01*
X78659268Y-94347964D01*
X78405291Y-94875209D01*
X78402642Y-94890974D01*
X78523783Y-95123000D01*
X79883000Y-95123000D01*
X79883000Y-95103000D01*
X80137000Y-95103000D01*
X80137000Y-95123000D01*
X81496217Y-95123000D01*
X81617358Y-94890974D01*
X81614709Y-94875209D01*
X81360732Y-94347964D01*
X81091808Y-94107690D01*
X85979000Y-94107690D01*
X85979000Y-94964250D01*
X86137750Y-95123000D01*
X87503000Y-95123000D01*
X87503000Y-93757750D01*
X87757000Y-93757750D01*
X87757000Y-95123000D01*
X89122250Y-95123000D01*
X89281000Y-94964250D01*
X89281000Y-94107690D01*
X89789000Y-94107690D01*
X89789000Y-94964250D01*
X89947750Y-95123000D01*
X91313000Y-95123000D01*
X91313000Y-93757750D01*
X91154250Y-93599000D01*
X90297691Y-93599000D01*
X90064302Y-93695673D01*
X89885673Y-93874301D01*
X89789000Y-94107690D01*
X89281000Y-94107690D01*
X89184327Y-93874301D01*
X89005698Y-93695673D01*
X88772309Y-93599000D01*
X87915750Y-93599000D01*
X87757000Y-93757750D01*
X87503000Y-93757750D01*
X87344250Y-93599000D01*
X86487691Y-93599000D01*
X86254302Y-93695673D01*
X86075673Y-93874301D01*
X85979000Y-94107690D01*
X81091808Y-94107690D01*
X80944931Y-93976461D01*
X81254415Y-93769670D01*
X81579271Y-93283489D01*
X81693345Y-92710000D01*
X81579271Y-92136511D01*
X81254415Y-91650330D01*
X80768234Y-91325474D01*
X80194745Y-91211400D01*
X79825255Y-91211400D01*
X79251766Y-91325474D01*
X78765585Y-91650330D01*
X78440729Y-92136511D01*
X78326655Y-92710000D01*
X77597000Y-92710000D01*
X77597000Y-82030218D01*
X78231847Y-82666174D01*
X79383674Y-83144454D01*
X80630854Y-83145543D01*
X81783515Y-82669273D01*
X82666174Y-81788153D01*
X83144454Y-80636326D01*
X83145543Y-79389146D01*
X82669273Y-78236485D01*
X82030903Y-77597000D01*
X92583000Y-77597000D01*
X92583000Y-93599286D01*
X92583000Y-93599286D01*
G37*
X92583000Y-93599286D02*
X92582309Y-93599000D01*
X91725750Y-93599000D01*
X91567000Y-93757750D01*
X91567000Y-95123000D01*
X91587000Y-95123000D01*
X91587000Y-95377000D01*
X91567000Y-95377000D01*
X91567000Y-95397000D01*
X91313000Y-95397000D01*
X91313000Y-95377000D01*
X89947750Y-95377000D01*
X89789000Y-95535750D01*
X89789000Y-96392310D01*
X89885673Y-96625699D01*
X90064302Y-96804327D01*
X90106966Y-96821999D01*
X89882330Y-97158190D01*
X89756655Y-97790000D01*
X89882330Y-98421810D01*
X90240222Y-98957433D01*
X90775845Y-99315325D01*
X91407655Y-99441000D01*
X91472345Y-99441000D01*
X92104155Y-99315325D01*
X92583000Y-98995371D01*
X92583000Y-99060000D01*
X92593006Y-99109410D01*
X92621447Y-99151035D01*
X92663841Y-99178315D01*
X92710000Y-99187000D01*
X110363000Y-99187000D01*
X110363000Y-112903000D01*
X86894837Y-112903000D01*
X87023729Y-112849611D01*
X87079410Y-112619016D01*
X86360000Y-111899605D01*
X85640590Y-112619016D01*
X85696271Y-112849611D01*
X85849693Y-112903000D01*
X82030218Y-112903000D01*
X82666174Y-112268153D01*
X82968912Y-111539078D01*
X85062378Y-111539078D01*
X85091917Y-112049428D01*
X85230389Y-112383729D01*
X85460984Y-112439410D01*
X86180395Y-111720000D01*
X86539605Y-111720000D01*
X87259016Y-112439410D01*
X87489611Y-112383729D01*
X87657622Y-111900922D01*
X87628083Y-111390572D01*
X87489611Y-111056271D01*
X87259016Y-111000590D01*
X86539605Y-111720000D01*
X86180395Y-111720000D01*
X85460984Y-111000590D01*
X85230389Y-111056271D01*
X85062378Y-111539078D01*
X82968912Y-111539078D01*
X83144454Y-111116326D01*
X83145543Y-109869146D01*
X82669273Y-108716485D01*
X82523044Y-108570000D01*
X85062560Y-108570000D01*
X85062560Y-109870000D01*
X85106838Y-110105317D01*
X85245910Y-110321441D01*
X85458110Y-110466431D01*
X85710000Y-110517440D01*
X85872385Y-110517440D01*
X85696271Y-110590389D01*
X85640590Y-110820984D01*
X86360000Y-111540395D01*
X87079410Y-110820984D01*
X87023729Y-110590389D01*
X86814098Y-110517440D01*
X87010000Y-110517440D01*
X87245317Y-110473162D01*
X87461441Y-110334090D01*
X87606431Y-110121890D01*
X87657440Y-109870000D01*
X87657440Y-108570000D01*
X87613162Y-108334683D01*
X87474090Y-108118559D01*
X87261890Y-107973569D01*
X87010000Y-107922560D01*
X85710000Y-107922560D01*
X85474683Y-107966838D01*
X85258559Y-108105910D01*
X85113569Y-108318110D01*
X85062560Y-108570000D01*
X82523044Y-108570000D01*
X81788153Y-107833826D01*
X80636326Y-107355546D01*
X79389146Y-107354457D01*
X78236485Y-107830727D01*
X77597000Y-108469097D01*
X77597000Y-105695750D01*
X78725000Y-105695750D01*
X78725000Y-106186309D01*
X78821673Y-106419698D01*
X79000301Y-106598327D01*
X79233690Y-106695000D01*
X79724250Y-106695000D01*
X79883000Y-106536250D01*
X79883000Y-105537000D01*
X80137000Y-105537000D01*
X80137000Y-106536250D01*
X80295750Y-106695000D01*
X80786310Y-106695000D01*
X81019699Y-106598327D01*
X81198327Y-106419698D01*
X81244173Y-106309016D01*
X85640590Y-106309016D01*
X85696271Y-106539611D01*
X86179078Y-106707622D01*
X86689428Y-106678083D01*
X87023729Y-106539611D01*
X87079410Y-106309016D01*
X86360000Y-105589605D01*
X85640590Y-106309016D01*
X81244173Y-106309016D01*
X81295000Y-106186309D01*
X81295000Y-105695750D01*
X81136250Y-105537000D01*
X80137000Y-105537000D01*
X79883000Y-105537000D01*
X78883750Y-105537000D01*
X78725000Y-105695750D01*
X77597000Y-105695750D01*
X77597000Y-103164481D01*
X78724777Y-103164481D01*
X78919995Y-103636943D01*
X79281155Y-103998735D01*
X79585235Y-104125000D01*
X79233690Y-104125000D01*
X79000301Y-104221673D01*
X78821673Y-104400302D01*
X78725000Y-104633691D01*
X78725000Y-105124250D01*
X78883750Y-105283000D01*
X79883000Y-105283000D01*
X79883000Y-105263000D01*
X80137000Y-105263000D01*
X80137000Y-105283000D01*
X81136250Y-105283000D01*
X81190172Y-105229078D01*
X85062378Y-105229078D01*
X85091917Y-105739428D01*
X85230389Y-106073729D01*
X85460984Y-106129410D01*
X86180395Y-105410000D01*
X86539605Y-105410000D01*
X87259016Y-106129410D01*
X87489611Y-106073729D01*
X87657622Y-105590922D01*
X87628083Y-105080572D01*
X87489611Y-104746271D01*
X87259016Y-104690590D01*
X86539605Y-105410000D01*
X86180395Y-105410000D01*
X85460984Y-104690590D01*
X85230389Y-104746271D01*
X85062378Y-105229078D01*
X81190172Y-105229078D01*
X81295000Y-105124250D01*
X81295000Y-104633691D01*
X81198327Y-104400302D01*
X81019699Y-104221673D01*
X80786310Y-104125000D01*
X80434433Y-104125000D01*
X80736943Y-104000005D01*
X81098735Y-103638845D01*
X81249593Y-103275539D01*
X82265132Y-102260000D01*
X85062560Y-102260000D01*
X85062560Y-103560000D01*
X85106838Y-103795317D01*
X85245910Y-104011441D01*
X85458110Y-104156431D01*
X85710000Y-104207440D01*
X85872385Y-104207440D01*
X85696271Y-104280389D01*
X85640590Y-104510984D01*
X86360000Y-105230395D01*
X87079410Y-104510984D01*
X87023729Y-104280389D01*
X86814098Y-104207440D01*
X87010000Y-104207440D01*
X87245317Y-104163162D01*
X87461441Y-104024090D01*
X87606431Y-103811890D01*
X87657440Y-103560000D01*
X87657440Y-102260000D01*
X87613162Y-102024683D01*
X87474090Y-101808559D01*
X87261890Y-101663569D01*
X87010000Y-101612560D01*
X85710000Y-101612560D01*
X85474683Y-101656838D01*
X85258559Y-101795910D01*
X85113569Y-102008110D01*
X85062560Y-102260000D01*
X82265132Y-102260000D01*
X83060132Y-101465000D01*
X88596796Y-101465000D01*
X92333424Y-105201628D01*
X92701645Y-105447666D01*
X93135990Y-105534062D01*
X94270235Y-105534062D01*
X94109009Y-105775354D01*
X94015000Y-106247968D01*
X94015000Y-107112032D01*
X94109009Y-107584646D01*
X94376723Y-107985309D01*
X94777386Y-108253023D01*
X95250000Y-108347032D01*
X95722614Y-108253023D01*
X96123277Y-107985309D01*
X96390991Y-107584646D01*
X96485000Y-107112032D01*
X96485000Y-106807000D01*
X96555000Y-106807000D01*
X96555000Y-107207000D01*
X96697610Y-107669947D01*
X97006526Y-108043080D01*
X97434719Y-108269592D01*
X97472391Y-108273462D01*
X97663000Y-108148731D01*
X97663000Y-106807000D01*
X97917000Y-106807000D01*
X97917000Y-108148731D01*
X98107609Y-108273462D01*
X98145281Y-108269592D01*
X98573474Y-108043080D01*
X98882390Y-107669947D01*
X99025000Y-107207000D01*
X99025000Y-106807000D01*
X97917000Y-106807000D01*
X97663000Y-106807000D01*
X96555000Y-106807000D01*
X96485000Y-106807000D01*
X96485000Y-106247968D01*
X96390991Y-105775354D01*
X96229765Y-105534062D01*
X96826755Y-105534062D01*
X96697610Y-105690053D01*
X96555000Y-106153000D01*
X96555000Y-106553000D01*
X97663000Y-106553000D01*
X97663000Y-106533000D01*
X97917000Y-106533000D01*
X97917000Y-106553000D01*
X98997868Y-106553000D01*
X99095000Y-106650132D01*
X99095000Y-107112032D01*
X99189009Y-107584646D01*
X99456723Y-107985309D01*
X99857386Y-108253023D01*
X100330000Y-108347032D01*
X100802614Y-108253023D01*
X101203277Y-107985309D01*
X101470991Y-107584646D01*
X101565000Y-107112032D01*
X101565000Y-106807000D01*
X104175000Y-106807000D01*
X104175000Y-107207000D01*
X104317610Y-107669947D01*
X104626526Y-108043080D01*
X105054719Y-108269592D01*
X105092391Y-108273462D01*
X105283000Y-108148731D01*
X105283000Y-106807000D01*
X105537000Y-106807000D01*
X105537000Y-108148731D01*
X105727609Y-108273462D01*
X105765281Y-108269592D01*
X106193474Y-108043080D01*
X106502390Y-107669947D01*
X106645000Y-107207000D01*
X106645000Y-106807000D01*
X105537000Y-106807000D01*
X105283000Y-106807000D01*
X104175000Y-106807000D01*
X101565000Y-106807000D01*
X101565000Y-106247968D01*
X101546110Y-106153000D01*
X104175000Y-106153000D01*
X104175000Y-106553000D01*
X105283000Y-106553000D01*
X105283000Y-105211269D01*
X105537000Y-105211269D01*
X105537000Y-106553000D01*
X106645000Y-106553000D01*
X106645000Y-106247968D01*
X106715000Y-106247968D01*
X106715000Y-107112032D01*
X106809009Y-107584646D01*
X107076723Y-107985309D01*
X107477386Y-108253023D01*
X107950000Y-108347032D01*
X108422614Y-108253023D01*
X108823277Y-107985309D01*
X109090991Y-107584646D01*
X109185000Y-107112032D01*
X109185000Y-106247968D01*
X109090991Y-105775354D01*
X108823277Y-105374691D01*
X108422614Y-105106977D01*
X107950000Y-105012968D01*
X107477386Y-105106977D01*
X107076723Y-105374691D01*
X106809009Y-105775354D01*
X106715000Y-106247968D01*
X106645000Y-106247968D01*
X106645000Y-106153000D01*
X106502390Y-105690053D01*
X106193474Y-105316920D01*
X105765281Y-105090408D01*
X105727609Y-105086538D01*
X105537000Y-105211269D01*
X105283000Y-105211269D01*
X105092391Y-105086538D01*
X105054719Y-105090408D01*
X104626526Y-105316920D01*
X104317610Y-105690053D01*
X104175000Y-106153000D01*
X101546110Y-106153000D01*
X101470991Y-105775354D01*
X101203277Y-105374691D01*
X100802614Y-105106977D01*
X100752051Y-105096919D01*
X99683878Y-104028746D01*
X99728590Y-103870421D01*
X98936265Y-103078096D01*
X98922123Y-103092239D01*
X98742518Y-102912634D01*
X98756660Y-102898491D01*
X99115870Y-102898491D01*
X99908195Y-103690816D01*
X100149196Y-103622756D01*
X100208034Y-103457451D01*
X100300951Y-103682328D01*
X100690378Y-104072435D01*
X101199449Y-104283820D01*
X101750663Y-104284301D01*
X102260102Y-104073805D01*
X102463841Y-103870421D01*
X104493940Y-103870421D01*
X104562000Y-104111422D01*
X105081299Y-104296258D01*
X105631803Y-104268296D01*
X106010530Y-104111422D01*
X106078590Y-103870421D01*
X105286265Y-103078096D01*
X104493940Y-103870421D01*
X102463841Y-103870421D01*
X102650209Y-103684378D01*
X102861594Y-103175307D01*
X102862014Y-102693525D01*
X103888498Y-102693525D01*
X103916460Y-103244029D01*
X104073334Y-103622756D01*
X104314335Y-103690816D01*
X105106660Y-102898491D01*
X105465870Y-102898491D01*
X106258195Y-103690816D01*
X106499196Y-103622756D01*
X106558034Y-103457451D01*
X106650951Y-103682328D01*
X107040378Y-104072435D01*
X107549449Y-104283820D01*
X108100663Y-104284301D01*
X108610102Y-104073805D01*
X109000209Y-103684378D01*
X109211594Y-103175307D01*
X109212075Y-102624093D01*
X109001579Y-102114654D01*
X108612152Y-101724547D01*
X108103081Y-101513162D01*
X107551867Y-101512681D01*
X107042428Y-101723177D01*
X106652321Y-102112604D01*
X106562886Y-102327987D01*
X106499196Y-102174226D01*
X106258195Y-102106166D01*
X105465870Y-102898491D01*
X105106660Y-102898491D01*
X104314335Y-102106166D01*
X104073334Y-102174226D01*
X103888498Y-102693525D01*
X102862014Y-102693525D01*
X102862075Y-102624093D01*
X102651579Y-102114654D01*
X102463814Y-101926561D01*
X104493940Y-101926561D01*
X105286265Y-102718886D01*
X106078590Y-101926561D01*
X106010530Y-101685560D01*
X105491231Y-101500724D01*
X104940727Y-101528686D01*
X104562000Y-101685560D01*
X104493940Y-101926561D01*
X102463814Y-101926561D01*
X102262152Y-101724547D01*
X101753081Y-101513162D01*
X101201867Y-101512681D01*
X100692428Y-101723177D01*
X100302321Y-102112604D01*
X100212886Y-102327987D01*
X100149196Y-102174226D01*
X99908195Y-102106166D01*
X99115870Y-102898491D01*
X98756660Y-102898491D01*
X97964335Y-102106166D01*
X97723334Y-102174226D01*
X97670584Y-102322429D01*
X97609196Y-102174226D01*
X97368195Y-102106166D01*
X96575870Y-102898491D01*
X96590013Y-102912634D01*
X96410408Y-103092239D01*
X96396265Y-103078096D01*
X96382123Y-103092239D01*
X96202518Y-102912634D01*
X96216660Y-102898491D01*
X95424335Y-102106166D01*
X95183334Y-102174226D01*
X95124496Y-102339531D01*
X95031579Y-102114654D01*
X94843814Y-101926561D01*
X95603940Y-101926561D01*
X96396265Y-102718886D01*
X97188590Y-101926561D01*
X98143940Y-101926561D01*
X98936265Y-102718886D01*
X99728590Y-101926561D01*
X99660530Y-101685560D01*
X99141231Y-101500724D01*
X98590727Y-101528686D01*
X98212000Y-101685560D01*
X98143940Y-101926561D01*
X97188590Y-101926561D01*
X97120530Y-101685560D01*
X96601231Y-101500724D01*
X96050727Y-101528686D01*
X95672000Y-101685560D01*
X95603940Y-101926561D01*
X94843814Y-101926561D01*
X94642152Y-101724547D01*
X94133081Y-101513162D01*
X93581867Y-101512681D01*
X93072428Y-101723177D01*
X92682321Y-102112604D01*
X92615525Y-102273465D01*
X89869494Y-99527434D01*
X89501274Y-99281397D01*
X89066928Y-99195000D01*
X88474234Y-99195000D01*
X88829778Y-98957433D01*
X89187670Y-98421810D01*
X89313345Y-97790000D01*
X89187670Y-97158190D01*
X88963034Y-96821999D01*
X89005698Y-96804327D01*
X89184327Y-96625699D01*
X89281000Y-96392310D01*
X89281000Y-95535750D01*
X89122250Y-95377000D01*
X87757000Y-95377000D01*
X87757000Y-95397000D01*
X87503000Y-95397000D01*
X87503000Y-95377000D01*
X86137750Y-95377000D01*
X85979000Y-95535750D01*
X85979000Y-96392310D01*
X86075673Y-96625699D01*
X86254302Y-96804327D01*
X86296966Y-96821999D01*
X86072330Y-97158190D01*
X85946655Y-97790000D01*
X86072330Y-98421810D01*
X86430222Y-98957433D01*
X86785766Y-99195000D01*
X82590000Y-99195000D01*
X82155654Y-99281397D01*
X81787434Y-99527434D01*
X79644021Y-101670847D01*
X79283057Y-101819995D01*
X78921265Y-102181155D01*
X78725223Y-102653276D01*
X78724777Y-103164481D01*
X77597000Y-103164481D01*
X77597000Y-96926400D01*
X78346560Y-96926400D01*
X78346560Y-98653600D01*
X78390838Y-98888917D01*
X78529910Y-99105041D01*
X78742110Y-99250031D01*
X78994000Y-99301040D01*
X81026000Y-99301040D01*
X81261317Y-99256762D01*
X81477441Y-99117690D01*
X81622431Y-98905490D01*
X81673440Y-98653600D01*
X81673440Y-96926400D01*
X81629162Y-96691083D01*
X81490090Y-96474959D01*
X81277890Y-96329969D01*
X81183073Y-96310768D01*
X81360732Y-96152036D01*
X81614709Y-95624791D01*
X81617358Y-95609026D01*
X81496217Y-95377000D01*
X80137000Y-95377000D01*
X80137000Y-95397000D01*
X79883000Y-95397000D01*
X79883000Y-95377000D01*
X78523783Y-95377000D01*
X78402642Y-95609026D01*
X78405291Y-95624791D01*
X78659268Y-96152036D01*
X78834845Y-96308907D01*
X78758683Y-96323238D01*
X78542559Y-96462310D01*
X78397569Y-96674510D01*
X78346560Y-96926400D01*
X77597000Y-96926400D01*
X77597000Y-92710000D01*
X78326655Y-92710000D01*
X78440729Y-93283489D01*
X78765585Y-93769670D01*
X79075069Y-93976461D01*
X78659268Y-94347964D01*
X78405291Y-94875209D01*
X78402642Y-94890974D01*
X78523783Y-95123000D01*
X79883000Y-95123000D01*
X79883000Y-95103000D01*
X80137000Y-95103000D01*
X80137000Y-95123000D01*
X81496217Y-95123000D01*
X81617358Y-94890974D01*
X81614709Y-94875209D01*
X81360732Y-94347964D01*
X81091808Y-94107690D01*
X85979000Y-94107690D01*
X85979000Y-94964250D01*
X86137750Y-95123000D01*
X87503000Y-95123000D01*
X87503000Y-93757750D01*
X87757000Y-93757750D01*
X87757000Y-95123000D01*
X89122250Y-95123000D01*
X89281000Y-94964250D01*
X89281000Y-94107690D01*
X89789000Y-94107690D01*
X89789000Y-94964250D01*
X89947750Y-95123000D01*
X91313000Y-95123000D01*
X91313000Y-93757750D01*
X91154250Y-93599000D01*
X90297691Y-93599000D01*
X90064302Y-93695673D01*
X89885673Y-93874301D01*
X89789000Y-94107690D01*
X89281000Y-94107690D01*
X89184327Y-93874301D01*
X89005698Y-93695673D01*
X88772309Y-93599000D01*
X87915750Y-93599000D01*
X87757000Y-93757750D01*
X87503000Y-93757750D01*
X87344250Y-93599000D01*
X86487691Y-93599000D01*
X86254302Y-93695673D01*
X86075673Y-93874301D01*
X85979000Y-94107690D01*
X81091808Y-94107690D01*
X80944931Y-93976461D01*
X81254415Y-93769670D01*
X81579271Y-93283489D01*
X81693345Y-92710000D01*
X81579271Y-92136511D01*
X81254415Y-91650330D01*
X80768234Y-91325474D01*
X80194745Y-91211400D01*
X79825255Y-91211400D01*
X79251766Y-91325474D01*
X78765585Y-91650330D01*
X78440729Y-92136511D01*
X78326655Y-92710000D01*
X77597000Y-92710000D01*
X77597000Y-82030218D01*
X78231847Y-82666174D01*
X79383674Y-83144454D01*
X80630854Y-83145543D01*
X81783515Y-82669273D01*
X82666174Y-81788153D01*
X83144454Y-80636326D01*
X83145543Y-79389146D01*
X82669273Y-78236485D01*
X82030903Y-77597000D01*
X92583000Y-77597000D01*
X92583000Y-93599286D01*
M02*
