G04 #@! TF.FileFunction,Legend,Top*
%FSLAX46Y46*%
G04 Gerber Fmt 4.6, Leading zero omitted, Abs format (unit mm)*
G04 Created by KiCad (PCBNEW 4.0.1-stable) date 2016 February 17, Wednesday 21:26:15*
%MOMM*%
G01*
G04 APERTURE LIST*
%ADD10C,0.100000*%
%ADD11C,0.150000*%
%ADD12C,0.406400*%
%ADD13C,0.254000*%
%ADD14C,0.162560*%
G04 APERTURE END LIST*
D10*
D11*
X82058095Y-92781429D02*
X82820000Y-92781429D01*
X82439048Y-93162381D02*
X82439048Y-92400476D01*
X83820000Y-93162381D02*
X83248571Y-93162381D01*
X83534285Y-93162381D02*
X83534285Y-92162381D01*
X83439047Y-92305238D01*
X83343809Y-92400476D01*
X83248571Y-92448095D01*
X84200952Y-92257619D02*
X84248571Y-92210000D01*
X84343809Y-92162381D01*
X84581905Y-92162381D01*
X84677143Y-92210000D01*
X84724762Y-92257619D01*
X84772381Y-92352857D01*
X84772381Y-92448095D01*
X84724762Y-92590952D01*
X84153333Y-93162381D01*
X84772381Y-93162381D01*
X85058095Y-92162381D02*
X85391428Y-93162381D01*
X85724762Y-92162381D01*
X82058095Y-97861429D02*
X82820000Y-97861429D01*
X83820000Y-98242381D02*
X83248571Y-98242381D01*
X83534285Y-98242381D02*
X83534285Y-97242381D01*
X83439047Y-97385238D01*
X83343809Y-97480476D01*
X83248571Y-97528095D01*
X84200952Y-97337619D02*
X84248571Y-97290000D01*
X84343809Y-97242381D01*
X84581905Y-97242381D01*
X84677143Y-97290000D01*
X84724762Y-97337619D01*
X84772381Y-97432857D01*
X84772381Y-97528095D01*
X84724762Y-97670952D01*
X84153333Y-98242381D01*
X84772381Y-98242381D01*
X85058095Y-97242381D02*
X85391428Y-98242381D01*
X85724762Y-97242381D01*
X83058096Y-94750000D02*
X82962858Y-94702381D01*
X82820001Y-94702381D01*
X82677143Y-94750000D01*
X82581905Y-94845238D01*
X82534286Y-94940476D01*
X82486667Y-95130952D01*
X82486667Y-95273810D01*
X82534286Y-95464286D01*
X82581905Y-95559524D01*
X82677143Y-95654762D01*
X82820001Y-95702381D01*
X82915239Y-95702381D01*
X83058096Y-95654762D01*
X83105715Y-95607143D01*
X83105715Y-95273810D01*
X82915239Y-95273810D01*
X83534286Y-95702381D02*
X83534286Y-94702381D01*
X84105715Y-95702381D01*
X84105715Y-94702381D01*
X84581905Y-95702381D02*
X84581905Y-94702381D01*
X84820000Y-94702381D01*
X84962858Y-94750000D01*
X85058096Y-94845238D01*
X85105715Y-94940476D01*
X85153334Y-95130952D01*
X85153334Y-95273810D01*
X85105715Y-95464286D01*
X85058096Y-95559524D01*
X84962858Y-95654762D01*
X84820000Y-95702381D01*
X84581905Y-95702381D01*
X94424524Y-97242381D02*
X93948333Y-97242381D01*
X93900714Y-97718571D01*
X93948333Y-97670952D01*
X94043571Y-97623333D01*
X94281667Y-97623333D01*
X94376905Y-97670952D01*
X94424524Y-97718571D01*
X94472143Y-97813810D01*
X94472143Y-98051905D01*
X94424524Y-98147143D01*
X94376905Y-98194762D01*
X94281667Y-98242381D01*
X94043571Y-98242381D01*
X93948333Y-98194762D01*
X93900714Y-98147143D01*
X94757857Y-97242381D02*
X95091190Y-98242381D01*
X95424524Y-97242381D01*
X94488096Y-94750000D02*
X94392858Y-94702381D01*
X94250001Y-94702381D01*
X94107143Y-94750000D01*
X94011905Y-94845238D01*
X93964286Y-94940476D01*
X93916667Y-95130952D01*
X93916667Y-95273810D01*
X93964286Y-95464286D01*
X94011905Y-95559524D01*
X94107143Y-95654762D01*
X94250001Y-95702381D01*
X94345239Y-95702381D01*
X94488096Y-95654762D01*
X94535715Y-95607143D01*
X94535715Y-95273810D01*
X94345239Y-95273810D01*
X94964286Y-95702381D02*
X94964286Y-94702381D01*
X95535715Y-95702381D01*
X95535715Y-94702381D01*
X96011905Y-95702381D02*
X96011905Y-94702381D01*
X96250000Y-94702381D01*
X96392858Y-94750000D01*
X96488096Y-94845238D01*
X96535715Y-94940476D01*
X96583334Y-95130952D01*
X96583334Y-95273810D01*
X96535715Y-95464286D01*
X96488096Y-95559524D01*
X96392858Y-95654762D01*
X96250000Y-95702381D01*
X96011905Y-95702381D01*
X161290000Y-112500000D02*
X140970000Y-112500000D01*
X160750000Y-111950000D02*
X141530000Y-111950000D01*
X161290000Y-103400000D02*
X140970000Y-103400000D01*
X160750000Y-103950000D02*
X153380000Y-103950000D01*
X148880000Y-103950000D02*
X141530000Y-103950000D01*
X153380000Y-103950000D02*
X153380000Y-103400000D01*
X148880000Y-103950000D02*
X148880000Y-103400000D01*
X161290000Y-112500000D02*
X161290000Y-103400000D01*
X160750000Y-111950000D02*
X160750000Y-103950000D01*
X140970000Y-112500000D02*
X140970000Y-103400000D01*
X141530000Y-111950000D02*
X141530000Y-103950000D01*
X161290000Y-112500000D02*
X160750000Y-111950000D01*
X140970000Y-112500000D02*
X141530000Y-111950000D01*
X161290000Y-103400000D02*
X160750000Y-103950000D01*
X140970000Y-103400000D02*
X141530000Y-103950000D01*
X209296000Y-110490000D02*
G75*
G03X209296000Y-110490000I-2286000J0D01*
G01*
X209296000Y-80010000D02*
G75*
G03X209296000Y-80010000I-2286000J0D01*
G01*
X136906000Y-110490000D02*
G75*
G03X136906000Y-110490000I-2286000J0D01*
G01*
X136906000Y-80010000D02*
G75*
G03X136906000Y-80010000I-2286000J0D01*
G01*
X82296000Y-110490000D02*
G75*
G03X82296000Y-110490000I-2286000J0D01*
G01*
X167640000Y-109220000D02*
X167640000Y-104140000D01*
X167640000Y-104140000D02*
X170180000Y-104140000D01*
X170180000Y-104140000D02*
X170180000Y-109220000D01*
X170180000Y-109220000D02*
X167640000Y-109220000D01*
X163830000Y-81280000D02*
X163830000Y-86360000D01*
X163830000Y-86360000D02*
X161290000Y-86360000D01*
X161290000Y-86360000D02*
X161290000Y-81280000D01*
X161290000Y-81280000D02*
X163830000Y-81280000D01*
X163830000Y-86360000D02*
X163830000Y-81280000D01*
X163830000Y-81280000D02*
X166370000Y-81280000D01*
X166370000Y-81280000D02*
X166370000Y-86360000D01*
X166370000Y-86360000D02*
X163830000Y-86360000D01*
X165100000Y-109220000D02*
X165100000Y-104140000D01*
X165100000Y-104140000D02*
X167640000Y-104140000D01*
X167640000Y-104140000D02*
X167640000Y-109220000D01*
X167640000Y-109220000D02*
X165100000Y-109220000D01*
X165100000Y-104140000D02*
X165100000Y-109220000D01*
X165100000Y-109220000D02*
X162560000Y-109220000D01*
X162560000Y-109220000D02*
X162560000Y-104140000D01*
X162560000Y-104140000D02*
X165100000Y-104140000D01*
X115570000Y-100330000D02*
X115570000Y-105410000D01*
X115570000Y-105410000D02*
X113030000Y-105410000D01*
X113030000Y-105410000D02*
X113030000Y-100330000D01*
X113030000Y-100330000D02*
X115570000Y-100330000D01*
X128270000Y-100330000D02*
X128270000Y-105410000D01*
X128270000Y-105410000D02*
X125730000Y-105410000D01*
X125730000Y-105410000D02*
X125730000Y-100330000D01*
X125730000Y-100330000D02*
X128270000Y-100330000D01*
X107696000Y-83278980D02*
X107696000Y-74642980D01*
X107696000Y-91660980D02*
X107696000Y-86580980D01*
X95504000Y-83278980D02*
X95504000Y-74642980D01*
X95504000Y-91660980D02*
X95504000Y-86580980D01*
X95504000Y-74642980D02*
X107696000Y-74642980D01*
X107696000Y-91660980D02*
X95504000Y-91660980D01*
X133595000Y-98925000D02*
X134865000Y-98925000D01*
X133595000Y-91575000D02*
X134865000Y-91575000D01*
X171205000Y-91575000D02*
X169935000Y-91575000D01*
X171205000Y-98925000D02*
X169935000Y-98925000D01*
X133595000Y-98925000D02*
X133595000Y-91575000D01*
X171205000Y-98925000D02*
X171205000Y-91575000D01*
X134865000Y-98925000D02*
X134865000Y-100210000D01*
X127000000Y-110490000D02*
X125984000Y-110490000D01*
X114300000Y-110490000D02*
X115316000Y-110490000D01*
X115316000Y-111760000D02*
X115316000Y-109220000D01*
X115316000Y-109220000D02*
X125984000Y-109220000D01*
X125984000Y-109220000D02*
X125984000Y-111760000D01*
X125984000Y-111760000D02*
X115316000Y-111760000D01*
X125984000Y-111252000D02*
X125476000Y-111760000D01*
D12*
X201345800Y-106159300D02*
X174350680Y-106159300D01*
X174350680Y-106159300D02*
X174350680Y-76161900D01*
X174350680Y-76161900D02*
X201345800Y-76161900D01*
X201345800Y-76161900D02*
X201345800Y-106159300D01*
D11*
X100330000Y-96520000D02*
X107950000Y-96520000D01*
X100330000Y-93980000D02*
X107950000Y-93980000D01*
X97510000Y-93700000D02*
X99060000Y-93700000D01*
X107950000Y-96520000D02*
X107950000Y-93980000D01*
X100330000Y-93980000D02*
X100330000Y-96520000D01*
X99060000Y-96800000D02*
X97510000Y-96800000D01*
X97510000Y-96800000D02*
X97510000Y-93700000D01*
X143791940Y-86090760D02*
X143591280Y-85689440D01*
X143591280Y-85689440D02*
X143489680Y-85090000D01*
X143489680Y-85090000D02*
X143591280Y-84589620D01*
X143591280Y-84589620D02*
X143990060Y-83891120D01*
X143990060Y-83891120D02*
X144592040Y-83489800D01*
X144592040Y-83489800D02*
X145191480Y-83289140D01*
X145191480Y-83289140D02*
X151790400Y-83289140D01*
X151790400Y-83289140D02*
X152491440Y-83489800D01*
X152491440Y-83489800D02*
X152890220Y-83789520D01*
X152890220Y-83789520D02*
X153291540Y-84289900D01*
X153291540Y-84289900D02*
X153492200Y-84889340D01*
X153492200Y-84889340D02*
X153492200Y-85389720D01*
X153492200Y-85389720D02*
X153291540Y-85890100D01*
X153291540Y-85890100D02*
X152791160Y-86489540D01*
X152791160Y-86489540D02*
X152290780Y-86789260D01*
X152290780Y-86789260D02*
X151790400Y-86890860D01*
X151691340Y-86890860D02*
X145089880Y-86890860D01*
X145089880Y-86890860D02*
X144691100Y-86789260D01*
X144691100Y-86789260D02*
X144190720Y-86489540D01*
X144190720Y-86489540D02*
X143690340Y-85989160D01*
X151681180Y-87419180D02*
X152140920Y-87370920D01*
X152140920Y-87370920D02*
X152539700Y-87259160D01*
X152539700Y-87259160D02*
X152971500Y-87040720D01*
X152971500Y-87040720D02*
X153261060Y-86809580D01*
X153261060Y-86809580D02*
X153591260Y-86459060D01*
X153591260Y-86459060D02*
X153880820Y-85920580D01*
X153880820Y-85920580D02*
X154010360Y-85321140D01*
X154010360Y-85321140D02*
X154010360Y-84810600D01*
X154010360Y-84810600D02*
X153840180Y-84109560D01*
X153840180Y-84109560D02*
X153441400Y-83520280D01*
X153441400Y-83520280D02*
X152981660Y-83149440D01*
X152981660Y-83149440D02*
X152560020Y-82941160D01*
X152560020Y-82941160D02*
X152110440Y-82781140D01*
X152110440Y-82781140D02*
X151671020Y-82750660D01*
X144330420Y-82969100D02*
X143951960Y-83190080D01*
X143951960Y-83190080D02*
X143631920Y-83469480D01*
X143631920Y-83469480D02*
X143380460Y-83799680D01*
X143380460Y-83799680D02*
X143080740Y-84350860D01*
X143080740Y-84350860D02*
X142971520Y-84820760D01*
X142971520Y-84820760D02*
X142951200Y-85280500D01*
X142951200Y-85280500D02*
X143040100Y-85740240D01*
X143040100Y-85740240D02*
X143230600Y-86189820D01*
X143230600Y-86189820D02*
X143591280Y-86659720D01*
X143591280Y-86659720D02*
X143941800Y-86979760D01*
X143941800Y-86979760D02*
X144330420Y-87210900D01*
X144330420Y-87210900D02*
X144759680Y-87350600D01*
X144759680Y-87350600D02*
X145201640Y-87419180D01*
X151691340Y-82760820D02*
X145239740Y-82760820D01*
X145239740Y-82760820D02*
X144820640Y-82798920D01*
X144820640Y-82798920D02*
X144330420Y-82969100D01*
X151691340Y-87419180D02*
X145239740Y-87419180D01*
X82296000Y-80010000D02*
G75*
G03X82296000Y-80010000I-2286000J0D01*
G01*
X122428000Y-100457000D02*
X123952000Y-100457000D01*
X123952000Y-100203000D02*
X122428000Y-100203000D01*
X124460000Y-97840800D02*
X124460000Y-102870000D01*
X124460000Y-102870000D02*
X121920000Y-102870000D01*
X121920000Y-102870000D02*
X121920000Y-97790000D01*
X121920000Y-97790000D02*
X124460000Y-97790000D01*
X117348000Y-100457000D02*
X118872000Y-100457000D01*
X118872000Y-100203000D02*
X117348000Y-100203000D01*
X119380000Y-97840800D02*
X119380000Y-102870000D01*
X119380000Y-102870000D02*
X116840000Y-102870000D01*
X116840000Y-102870000D02*
X116840000Y-97790000D01*
X116840000Y-97790000D02*
X119380000Y-97790000D01*
X145288000Y-79248000D02*
X145288000Y-80772000D01*
X145542000Y-80772000D02*
X145542000Y-79248000D01*
X147904200Y-81280000D02*
X142875000Y-81280000D01*
X142875000Y-81280000D02*
X142875000Y-78740000D01*
X142875000Y-78740000D02*
X147955000Y-78740000D01*
X147955000Y-78740000D02*
X147955000Y-81280000D01*
X151892000Y-80772000D02*
X151892000Y-79248000D01*
X151638000Y-79248000D02*
X151638000Y-80772000D01*
X149275800Y-78740000D02*
X154305000Y-78740000D01*
X154305000Y-78740000D02*
X154305000Y-81280000D01*
X154305000Y-81280000D02*
X149225000Y-81280000D01*
X149225000Y-81280000D02*
X149225000Y-78740000D01*
X136652000Y-86233000D02*
X135128000Y-86233000D01*
X135128000Y-86487000D02*
X136652000Y-86487000D01*
X134620000Y-88849200D02*
X134620000Y-83820000D01*
X134620000Y-83820000D02*
X137160000Y-83820000D01*
X137160000Y-83820000D02*
X137160000Y-88900000D01*
X137160000Y-88900000D02*
X134620000Y-88900000D01*
X140208000Y-86487000D02*
X141732000Y-86487000D01*
X141732000Y-86233000D02*
X140208000Y-86233000D01*
X142240000Y-83870800D02*
X142240000Y-88900000D01*
X142240000Y-88900000D02*
X139700000Y-88900000D01*
X139700000Y-88900000D02*
X139700000Y-83820000D01*
X139700000Y-83820000D02*
X142240000Y-83820000D01*
X155448000Y-86487000D02*
X156972000Y-86487000D01*
X156972000Y-86233000D02*
X155448000Y-86233000D01*
X157480000Y-83870800D02*
X157480000Y-88900000D01*
X157480000Y-88900000D02*
X154940000Y-88900000D01*
X154940000Y-88900000D02*
X154940000Y-83820000D01*
X154940000Y-83820000D02*
X157480000Y-83820000D01*
X157988000Y-86487000D02*
X159512000Y-86487000D01*
X159512000Y-86233000D02*
X157988000Y-86233000D01*
X160020000Y-83870800D02*
X160020000Y-88900000D01*
X160020000Y-88900000D02*
X157480000Y-88900000D01*
X157480000Y-88900000D02*
X157480000Y-83820000D01*
X157480000Y-83820000D02*
X160020000Y-83820000D01*
X168148000Y-86487000D02*
X169672000Y-86487000D01*
X169672000Y-86233000D02*
X168148000Y-86233000D01*
X170180000Y-83870800D02*
X170180000Y-88900000D01*
X170180000Y-88900000D02*
X167640000Y-88900000D01*
X167640000Y-88900000D02*
X167640000Y-83820000D01*
X167640000Y-83820000D02*
X170180000Y-83820000D01*
X137287000Y-103632000D02*
X137287000Y-102108000D01*
X137033000Y-102108000D02*
X137033000Y-103632000D01*
X134670800Y-101600000D02*
X139700000Y-101600000D01*
X139700000Y-101600000D02*
X139700000Y-104140000D01*
X139700000Y-104140000D02*
X134620000Y-104140000D01*
X134620000Y-104140000D02*
X134620000Y-101600000D01*
X90440000Y-105410000D02*
X109940000Y-105410000D01*
X90440000Y-112910000D02*
X90440000Y-105410000D01*
X109940000Y-112910000D02*
X90440000Y-112910000D01*
X109940000Y-105410000D02*
X109940000Y-112910000D01*
X100333265Y-103660491D02*
X100333265Y-102136491D01*
X100079265Y-102136491D02*
X100079265Y-103660491D01*
X97717065Y-101628491D02*
X102746265Y-101628491D01*
X102746265Y-101628491D02*
X102746265Y-104168491D01*
X102746265Y-104168491D02*
X97666265Y-104168491D01*
X97666265Y-104168491D02*
X97666265Y-101628491D01*
X77511000Y-104085000D02*
X82509000Y-104085000D01*
X77519000Y-103945000D02*
X82501000Y-103945000D01*
X77535000Y-103805000D02*
X79915000Y-103805000D01*
X80105000Y-103805000D02*
X82485000Y-103805000D01*
X77559000Y-103665000D02*
X79520000Y-103665000D01*
X80500000Y-103665000D02*
X82461000Y-103665000D01*
X77592000Y-103525000D02*
X79353000Y-103525000D01*
X80667000Y-103525000D02*
X82428000Y-103525000D01*
X77633000Y-103385000D02*
X79246000Y-103385000D01*
X80774000Y-103385000D02*
X82387000Y-103385000D01*
X77683000Y-103245000D02*
X79175000Y-103245000D01*
X80845000Y-103245000D02*
X82337000Y-103245000D01*
X77744000Y-103105000D02*
X79131000Y-103105000D01*
X80889000Y-103105000D02*
X82276000Y-103105000D01*
X77814000Y-102965000D02*
X79112000Y-102965000D01*
X80908000Y-102965000D02*
X82206000Y-102965000D01*
X77896000Y-102825000D02*
X79114000Y-102825000D01*
X80906000Y-102825000D02*
X82124000Y-102825000D01*
X77991000Y-102685000D02*
X79139000Y-102685000D01*
X80881000Y-102685000D02*
X82029000Y-102685000D01*
X78102000Y-102545000D02*
X79187000Y-102545000D01*
X80833000Y-102545000D02*
X81918000Y-102545000D01*
X78230000Y-102405000D02*
X79265000Y-102405000D01*
X80755000Y-102405000D02*
X81790000Y-102405000D01*
X78379000Y-102265000D02*
X79382000Y-102265000D01*
X80638000Y-102265000D02*
X81641000Y-102265000D01*
X78558000Y-102125000D02*
X79570000Y-102125000D01*
X80450000Y-102125000D02*
X81462000Y-102125000D01*
X78777000Y-101985000D02*
X81243000Y-101985000D01*
X79066000Y-101845000D02*
X80954000Y-101845000D01*
X79538000Y-101705000D02*
X80482000Y-101705000D01*
X80910000Y-102910000D02*
G75*
G03X80910000Y-102910000I-900000J0D01*
G01*
X82547500Y-104160000D02*
G75*
G03X82547500Y-104160000I-2537500J0D01*
G01*
X88859000Y-104235000D02*
X83861000Y-104235000D01*
X88851000Y-104375000D02*
X83869000Y-104375000D01*
X88835000Y-104515000D02*
X86455000Y-104515000D01*
X86265000Y-104515000D02*
X83885000Y-104515000D01*
X88811000Y-104655000D02*
X86850000Y-104655000D01*
X85870000Y-104655000D02*
X83909000Y-104655000D01*
X88778000Y-104795000D02*
X87017000Y-104795000D01*
X85703000Y-104795000D02*
X83942000Y-104795000D01*
X88737000Y-104935000D02*
X87124000Y-104935000D01*
X85596000Y-104935000D02*
X83983000Y-104935000D01*
X88687000Y-105075000D02*
X87195000Y-105075000D01*
X85525000Y-105075000D02*
X84033000Y-105075000D01*
X88626000Y-105215000D02*
X87239000Y-105215000D01*
X85481000Y-105215000D02*
X84094000Y-105215000D01*
X88556000Y-105355000D02*
X87258000Y-105355000D01*
X85462000Y-105355000D02*
X84164000Y-105355000D01*
X88474000Y-105495000D02*
X87256000Y-105495000D01*
X85464000Y-105495000D02*
X84246000Y-105495000D01*
X88379000Y-105635000D02*
X87231000Y-105635000D01*
X85489000Y-105635000D02*
X84341000Y-105635000D01*
X88268000Y-105775000D02*
X87183000Y-105775000D01*
X85537000Y-105775000D02*
X84452000Y-105775000D01*
X88140000Y-105915000D02*
X87105000Y-105915000D01*
X85615000Y-105915000D02*
X84580000Y-105915000D01*
X87991000Y-106055000D02*
X86988000Y-106055000D01*
X85732000Y-106055000D02*
X84729000Y-106055000D01*
X87812000Y-106195000D02*
X86800000Y-106195000D01*
X85920000Y-106195000D02*
X84908000Y-106195000D01*
X87593000Y-106335000D02*
X85127000Y-106335000D01*
X87304000Y-106475000D02*
X85416000Y-106475000D01*
X86832000Y-106615000D02*
X85888000Y-106615000D01*
X87260000Y-105410000D02*
G75*
G03X87260000Y-105410000I-900000J0D01*
G01*
X88897500Y-104160000D02*
G75*
G03X88897500Y-104160000I-2537500J0D01*
G01*
X106683265Y-103660491D02*
X106683265Y-102136491D01*
X106429265Y-102136491D02*
X106429265Y-103660491D01*
X104067065Y-101628491D02*
X109096265Y-101628491D01*
X109096265Y-101628491D02*
X109096265Y-104168491D01*
X109096265Y-104168491D02*
X104016265Y-104168491D01*
X104016265Y-104168491D02*
X104016265Y-101628491D01*
X95253265Y-103660491D02*
X95253265Y-102136491D01*
X94999265Y-102136491D02*
X94999265Y-103660491D01*
X92637065Y-101628491D02*
X97666265Y-101628491D01*
X97666265Y-101628491D02*
X97666265Y-104168491D01*
X97666265Y-104168491D02*
X92586265Y-104168491D01*
X92586265Y-104168491D02*
X92586265Y-101628491D01*
X88859000Y-110545000D02*
X83861000Y-110545000D01*
X88851000Y-110685000D02*
X83869000Y-110685000D01*
X88835000Y-110825000D02*
X86455000Y-110825000D01*
X86265000Y-110825000D02*
X83885000Y-110825000D01*
X88811000Y-110965000D02*
X86850000Y-110965000D01*
X85870000Y-110965000D02*
X83909000Y-110965000D01*
X88778000Y-111105000D02*
X87017000Y-111105000D01*
X85703000Y-111105000D02*
X83942000Y-111105000D01*
X88737000Y-111245000D02*
X87124000Y-111245000D01*
X85596000Y-111245000D02*
X83983000Y-111245000D01*
X88687000Y-111385000D02*
X87195000Y-111385000D01*
X85525000Y-111385000D02*
X84033000Y-111385000D01*
X88626000Y-111525000D02*
X87239000Y-111525000D01*
X85481000Y-111525000D02*
X84094000Y-111525000D01*
X88556000Y-111665000D02*
X87258000Y-111665000D01*
X85462000Y-111665000D02*
X84164000Y-111665000D01*
X88474000Y-111805000D02*
X87256000Y-111805000D01*
X85464000Y-111805000D02*
X84246000Y-111805000D01*
X88379000Y-111945000D02*
X87231000Y-111945000D01*
X85489000Y-111945000D02*
X84341000Y-111945000D01*
X88268000Y-112085000D02*
X87183000Y-112085000D01*
X85537000Y-112085000D02*
X84452000Y-112085000D01*
X88140000Y-112225000D02*
X87105000Y-112225000D01*
X85615000Y-112225000D02*
X84580000Y-112225000D01*
X87991000Y-112365000D02*
X86988000Y-112365000D01*
X85732000Y-112365000D02*
X84729000Y-112365000D01*
X87812000Y-112505000D02*
X86800000Y-112505000D01*
X85920000Y-112505000D02*
X84908000Y-112505000D01*
X87593000Y-112645000D02*
X85127000Y-112645000D01*
X87304000Y-112785000D02*
X85416000Y-112785000D01*
X86832000Y-112925000D02*
X85888000Y-112925000D01*
X87260000Y-111720000D02*
G75*
G03X87260000Y-111720000I-900000J0D01*
G01*
X88897500Y-110470000D02*
G75*
G03X88897500Y-110470000I-2537500J0D01*
G01*
X88900000Y-96520000D02*
X88900000Y-99060000D01*
X89180000Y-93700000D02*
X89180000Y-95250000D01*
X88900000Y-96520000D02*
X86360000Y-96520000D01*
X86080000Y-95250000D02*
X86080000Y-93700000D01*
X86080000Y-93700000D02*
X89180000Y-93700000D01*
X86360000Y-96520000D02*
X86360000Y-99060000D01*
X86360000Y-99060000D02*
X88900000Y-99060000D01*
X92710000Y-96520000D02*
X92710000Y-99060000D01*
X92990000Y-93700000D02*
X92990000Y-95250000D01*
X92710000Y-96520000D02*
X90170000Y-96520000D01*
X89890000Y-95250000D02*
X89890000Y-93700000D01*
X89890000Y-93700000D02*
X92990000Y-93700000D01*
X90170000Y-96520000D02*
X90170000Y-99060000D01*
X90170000Y-99060000D02*
X92710000Y-99060000D01*
X81280000Y-96520000D02*
X81280000Y-91440000D01*
X81280000Y-91440000D02*
X78740000Y-91440000D01*
X78740000Y-91440000D02*
X78740000Y-96520000D01*
X78460000Y-99340000D02*
X78460000Y-97790000D01*
X78740000Y-96520000D02*
X81280000Y-96520000D01*
X81560000Y-97790000D02*
X81560000Y-99340000D01*
X81560000Y-99340000D02*
X78460000Y-99340000D01*
D13*
X111150400Y-74498200D02*
X130200400Y-74498200D01*
X130200400Y-74498200D02*
X130200400Y-96088200D01*
X130200400Y-96088200D02*
X111150400Y-96088200D01*
X111150400Y-96088200D02*
X111150400Y-74498200D01*
D11*
X138731667Y-107402381D02*
X138731667Y-108116667D01*
X138684047Y-108259524D01*
X138588809Y-108354762D01*
X138445952Y-108402381D01*
X138350714Y-108402381D01*
X139731667Y-108402381D02*
X139160238Y-108402381D01*
X139445952Y-108402381D02*
X139445952Y-107402381D01*
X139350714Y-107545238D01*
X139255476Y-107640476D01*
X139160238Y-107688095D01*
X169362381Y-106846666D02*
X168886190Y-107180000D01*
X169362381Y-107418095D02*
X168362381Y-107418095D01*
X168362381Y-107037142D01*
X168410000Y-106941904D01*
X168457619Y-106894285D01*
X168552857Y-106846666D01*
X168695714Y-106846666D01*
X168790952Y-106894285D01*
X168838571Y-106941904D01*
X168886190Y-107037142D01*
X168886190Y-107418095D01*
X169362381Y-105894285D02*
X169362381Y-106465714D01*
X169362381Y-106180000D02*
X168362381Y-106180000D01*
X168505238Y-106275238D01*
X168600476Y-106370476D01*
X168648095Y-106465714D01*
X163012381Y-83986666D02*
X162536190Y-84320000D01*
X163012381Y-84558095D02*
X162012381Y-84558095D01*
X162012381Y-84177142D01*
X162060000Y-84081904D01*
X162107619Y-84034285D01*
X162202857Y-83986666D01*
X162345714Y-83986666D01*
X162440952Y-84034285D01*
X162488571Y-84081904D01*
X162536190Y-84177142D01*
X162536190Y-84558095D01*
X162107619Y-83605714D02*
X162060000Y-83558095D01*
X162012381Y-83462857D01*
X162012381Y-83224761D01*
X162060000Y-83129523D01*
X162107619Y-83081904D01*
X162202857Y-83034285D01*
X162298095Y-83034285D01*
X162440952Y-83081904D01*
X163012381Y-83653333D01*
X163012381Y-83034285D01*
X165552381Y-83986666D02*
X165076190Y-84320000D01*
X165552381Y-84558095D02*
X164552381Y-84558095D01*
X164552381Y-84177142D01*
X164600000Y-84081904D01*
X164647619Y-84034285D01*
X164742857Y-83986666D01*
X164885714Y-83986666D01*
X164980952Y-84034285D01*
X165028571Y-84081904D01*
X165076190Y-84177142D01*
X165076190Y-84558095D01*
X164552381Y-83653333D02*
X164552381Y-83034285D01*
X164933333Y-83367619D01*
X164933333Y-83224761D01*
X164980952Y-83129523D01*
X165028571Y-83081904D01*
X165123810Y-83034285D01*
X165361905Y-83034285D01*
X165457143Y-83081904D01*
X165504762Y-83129523D01*
X165552381Y-83224761D01*
X165552381Y-83510476D01*
X165504762Y-83605714D01*
X165457143Y-83653333D01*
X166822381Y-106846666D02*
X166346190Y-107180000D01*
X166822381Y-107418095D02*
X165822381Y-107418095D01*
X165822381Y-107037142D01*
X165870000Y-106941904D01*
X165917619Y-106894285D01*
X166012857Y-106846666D01*
X166155714Y-106846666D01*
X166250952Y-106894285D01*
X166298571Y-106941904D01*
X166346190Y-107037142D01*
X166346190Y-107418095D01*
X166155714Y-105989523D02*
X166822381Y-105989523D01*
X165774762Y-106227619D02*
X166489048Y-106465714D01*
X166489048Y-105846666D01*
X164282381Y-106846666D02*
X163806190Y-107180000D01*
X164282381Y-107418095D02*
X163282381Y-107418095D01*
X163282381Y-107037142D01*
X163330000Y-106941904D01*
X163377619Y-106894285D01*
X163472857Y-106846666D01*
X163615714Y-106846666D01*
X163710952Y-106894285D01*
X163758571Y-106941904D01*
X163806190Y-107037142D01*
X163806190Y-107418095D01*
X163282381Y-105941904D02*
X163282381Y-106418095D01*
X163758571Y-106465714D01*
X163710952Y-106418095D01*
X163663333Y-106322857D01*
X163663333Y-106084761D01*
X163710952Y-105989523D01*
X163758571Y-105941904D01*
X163853810Y-105894285D01*
X164091905Y-105894285D01*
X164187143Y-105941904D01*
X164234762Y-105989523D01*
X164282381Y-106084761D01*
X164282381Y-106322857D01*
X164234762Y-106418095D01*
X164187143Y-106465714D01*
X114752381Y-103036666D02*
X114276190Y-103370000D01*
X114752381Y-103608095D02*
X113752381Y-103608095D01*
X113752381Y-103227142D01*
X113800000Y-103131904D01*
X113847619Y-103084285D01*
X113942857Y-103036666D01*
X114085714Y-103036666D01*
X114180952Y-103084285D01*
X114228571Y-103131904D01*
X114276190Y-103227142D01*
X114276190Y-103608095D01*
X113752381Y-102179523D02*
X113752381Y-102370000D01*
X113800000Y-102465238D01*
X113847619Y-102512857D01*
X113990476Y-102608095D01*
X114180952Y-102655714D01*
X114561905Y-102655714D01*
X114657143Y-102608095D01*
X114704762Y-102560476D01*
X114752381Y-102465238D01*
X114752381Y-102274761D01*
X114704762Y-102179523D01*
X114657143Y-102131904D01*
X114561905Y-102084285D01*
X114323810Y-102084285D01*
X114228571Y-102131904D01*
X114180952Y-102179523D01*
X114133333Y-102274761D01*
X114133333Y-102465238D01*
X114180952Y-102560476D01*
X114228571Y-102608095D01*
X114323810Y-102655714D01*
X127452381Y-103036666D02*
X126976190Y-103370000D01*
X127452381Y-103608095D02*
X126452381Y-103608095D01*
X126452381Y-103227142D01*
X126500000Y-103131904D01*
X126547619Y-103084285D01*
X126642857Y-103036666D01*
X126785714Y-103036666D01*
X126880952Y-103084285D01*
X126928571Y-103131904D01*
X126976190Y-103227142D01*
X126976190Y-103608095D01*
X126452381Y-102703333D02*
X126452381Y-102036666D01*
X127452381Y-102465238D01*
X100861905Y-83002381D02*
X100861905Y-82002381D01*
X101242858Y-82002381D01*
X101338096Y-82050000D01*
X101385715Y-82097619D01*
X101433334Y-82192857D01*
X101433334Y-82335714D01*
X101385715Y-82430952D01*
X101338096Y-82478571D01*
X101242858Y-82526190D01*
X100861905Y-82526190D01*
X102385715Y-83002381D02*
X101814286Y-83002381D01*
X102100000Y-83002381D02*
X102100000Y-82002381D01*
X102004762Y-82145238D01*
X101909524Y-82240476D01*
X101814286Y-82288095D01*
X132532381Y-96226190D02*
X131532381Y-96226190D01*
X132437143Y-95178571D02*
X132484762Y-95226190D01*
X132532381Y-95369047D01*
X132532381Y-95464285D01*
X132484762Y-95607143D01*
X132389524Y-95702381D01*
X132294286Y-95750000D01*
X132103810Y-95797619D01*
X131960952Y-95797619D01*
X131770476Y-95750000D01*
X131675238Y-95702381D01*
X131580000Y-95607143D01*
X131532381Y-95464285D01*
X131532381Y-95369047D01*
X131580000Y-95226190D01*
X131627619Y-95178571D01*
X132532381Y-94226190D02*
X132532381Y-94797619D01*
X132532381Y-94511905D02*
X131532381Y-94511905D01*
X131675238Y-94607143D01*
X131770476Y-94702381D01*
X131818095Y-94797619D01*
X120483334Y-110942381D02*
X120007143Y-110942381D01*
X120007143Y-109942381D01*
X121340477Y-110942381D02*
X120769048Y-110942381D01*
X121054762Y-110942381D02*
X121054762Y-109942381D01*
X120959524Y-110085238D01*
X120864286Y-110180476D01*
X120769048Y-110228095D01*
D14*
X187264645Y-90883619D02*
X187264645Y-91706095D01*
X187313026Y-91802857D01*
X187361407Y-91851238D01*
X187458169Y-91899619D01*
X187651692Y-91899619D01*
X187748454Y-91851238D01*
X187796835Y-91802857D01*
X187845216Y-91706095D01*
X187845216Y-90883619D01*
X188861216Y-91899619D02*
X188280645Y-91899619D01*
X188570931Y-91899619D02*
X188570931Y-90883619D01*
X188474169Y-91028762D01*
X188377407Y-91125524D01*
X188280645Y-91173905D01*
D11*
X102536667Y-97877381D02*
X102536667Y-98591667D01*
X102489047Y-98734524D01*
X102393809Y-98829762D01*
X102250952Y-98877381D01*
X102155714Y-98877381D01*
X102965238Y-97972619D02*
X103012857Y-97925000D01*
X103108095Y-97877381D01*
X103346191Y-97877381D01*
X103441429Y-97925000D01*
X103489048Y-97972619D01*
X103536667Y-98067857D01*
X103536667Y-98163095D01*
X103489048Y-98305952D01*
X102917619Y-98877381D01*
X103536667Y-98877381D01*
X148014749Y-85066190D02*
X148014749Y-85542381D01*
X147681416Y-84542381D02*
X148014749Y-85066190D01*
X148348083Y-84542381D01*
X149205226Y-85542381D02*
X148633797Y-85542381D01*
X148919511Y-85542381D02*
X148919511Y-84542381D01*
X148824273Y-84685238D01*
X148729035Y-84780476D01*
X148633797Y-84828095D01*
X123552857Y-106063143D02*
X123601238Y-106111524D01*
X123649619Y-106256667D01*
X123649619Y-106353429D01*
X123601238Y-106498571D01*
X123504476Y-106595333D01*
X123407714Y-106643714D01*
X123214190Y-106692095D01*
X123069048Y-106692095D01*
X122875524Y-106643714D01*
X122778762Y-106595333D01*
X122682000Y-106498571D01*
X122633619Y-106353429D01*
X122633619Y-106256667D01*
X122682000Y-106111524D01*
X122730381Y-106063143D01*
X123649619Y-105095524D02*
X123649619Y-105676095D01*
X123649619Y-105385809D02*
X122633619Y-105385809D01*
X122778762Y-105482571D01*
X122875524Y-105579333D01*
X122923905Y-105676095D01*
X122633619Y-104466571D02*
X122633619Y-104369810D01*
X122682000Y-104273048D01*
X122730381Y-104224667D01*
X122827143Y-104176286D01*
X123020667Y-104127905D01*
X123262571Y-104127905D01*
X123456095Y-104176286D01*
X123552857Y-104224667D01*
X123601238Y-104273048D01*
X123649619Y-104369810D01*
X123649619Y-104466571D01*
X123601238Y-104563333D01*
X123552857Y-104611714D01*
X123456095Y-104660095D01*
X123262571Y-104708476D01*
X123020667Y-104708476D01*
X122827143Y-104660095D01*
X122730381Y-104611714D01*
X122682000Y-104563333D01*
X122633619Y-104466571D01*
X118472857Y-106063143D02*
X118521238Y-106111524D01*
X118569619Y-106256667D01*
X118569619Y-106353429D01*
X118521238Y-106498571D01*
X118424476Y-106595333D01*
X118327714Y-106643714D01*
X118134190Y-106692095D01*
X117989048Y-106692095D01*
X117795524Y-106643714D01*
X117698762Y-106595333D01*
X117602000Y-106498571D01*
X117553619Y-106353429D01*
X117553619Y-106256667D01*
X117602000Y-106111524D01*
X117650381Y-106063143D01*
X118569619Y-105095524D02*
X118569619Y-105676095D01*
X118569619Y-105385809D02*
X117553619Y-105385809D01*
X117698762Y-105482571D01*
X117795524Y-105579333D01*
X117843905Y-105676095D01*
X118569619Y-104127905D02*
X118569619Y-104708476D01*
X118569619Y-104418190D02*
X117553619Y-104418190D01*
X117698762Y-104514952D01*
X117795524Y-104611714D01*
X117843905Y-104708476D01*
X145245667Y-77832857D02*
X145197286Y-77881238D01*
X145052143Y-77929619D01*
X144955381Y-77929619D01*
X144810239Y-77881238D01*
X144713477Y-77784476D01*
X144665096Y-77687714D01*
X144616715Y-77494190D01*
X144616715Y-77349048D01*
X144665096Y-77155524D01*
X144713477Y-77058762D01*
X144810239Y-76962000D01*
X144955381Y-76913619D01*
X145052143Y-76913619D01*
X145197286Y-76962000D01*
X145245667Y-77010381D01*
X145584334Y-76913619D02*
X146213286Y-76913619D01*
X145874620Y-77300667D01*
X146019762Y-77300667D01*
X146116524Y-77349048D01*
X146164905Y-77397429D01*
X146213286Y-77494190D01*
X146213286Y-77736095D01*
X146164905Y-77832857D01*
X146116524Y-77881238D01*
X146019762Y-77929619D01*
X145729477Y-77929619D01*
X145632715Y-77881238D01*
X145584334Y-77832857D01*
X151595667Y-77832857D02*
X151547286Y-77881238D01*
X151402143Y-77929619D01*
X151305381Y-77929619D01*
X151160239Y-77881238D01*
X151063477Y-77784476D01*
X151015096Y-77687714D01*
X150966715Y-77494190D01*
X150966715Y-77349048D01*
X151015096Y-77155524D01*
X151063477Y-77058762D01*
X151160239Y-76962000D01*
X151305381Y-76913619D01*
X151402143Y-76913619D01*
X151547286Y-76962000D01*
X151595667Y-77010381D01*
X151982715Y-77010381D02*
X152031096Y-76962000D01*
X152127858Y-76913619D01*
X152369762Y-76913619D01*
X152466524Y-76962000D01*
X152514905Y-77010381D01*
X152563286Y-77107143D01*
X152563286Y-77203905D01*
X152514905Y-77349048D01*
X151934334Y-77929619D01*
X152563286Y-77929619D01*
X133712857Y-86529333D02*
X133761238Y-86577714D01*
X133809619Y-86722857D01*
X133809619Y-86819619D01*
X133761238Y-86964761D01*
X133664476Y-87061523D01*
X133567714Y-87109904D01*
X133374190Y-87158285D01*
X133229048Y-87158285D01*
X133035524Y-87109904D01*
X132938762Y-87061523D01*
X132842000Y-86964761D01*
X132793619Y-86819619D01*
X132793619Y-86722857D01*
X132842000Y-86577714D01*
X132890381Y-86529333D01*
X132793619Y-85610095D02*
X132793619Y-86093904D01*
X133277429Y-86142285D01*
X133229048Y-86093904D01*
X133180667Y-85997142D01*
X133180667Y-85755238D01*
X133229048Y-85658476D01*
X133277429Y-85610095D01*
X133374190Y-85561714D01*
X133616095Y-85561714D01*
X133712857Y-85610095D01*
X133761238Y-85658476D01*
X133809619Y-85755238D01*
X133809619Y-85997142D01*
X133761238Y-86093904D01*
X133712857Y-86142285D01*
X138792857Y-86529333D02*
X138841238Y-86577714D01*
X138889619Y-86722857D01*
X138889619Y-86819619D01*
X138841238Y-86964761D01*
X138744476Y-87061523D01*
X138647714Y-87109904D01*
X138454190Y-87158285D01*
X138309048Y-87158285D01*
X138115524Y-87109904D01*
X138018762Y-87061523D01*
X137922000Y-86964761D01*
X137873619Y-86819619D01*
X137873619Y-86722857D01*
X137922000Y-86577714D01*
X137970381Y-86529333D01*
X138889619Y-85561714D02*
X138889619Y-86142285D01*
X138889619Y-85851999D02*
X137873619Y-85851999D01*
X138018762Y-85948761D01*
X138115524Y-86045523D01*
X138163905Y-86142285D01*
X156572857Y-82719333D02*
X156621238Y-82767714D01*
X156669619Y-82912857D01*
X156669619Y-83009619D01*
X156621238Y-83154761D01*
X156524476Y-83251523D01*
X156427714Y-83299904D01*
X156234190Y-83348285D01*
X156089048Y-83348285D01*
X155895524Y-83299904D01*
X155798762Y-83251523D01*
X155702000Y-83154761D01*
X155653619Y-83009619D01*
X155653619Y-82912857D01*
X155702000Y-82767714D01*
X155750381Y-82719333D01*
X155653619Y-81848476D02*
X155653619Y-82041999D01*
X155702000Y-82138761D01*
X155750381Y-82187142D01*
X155895524Y-82283904D01*
X156089048Y-82332285D01*
X156476095Y-82332285D01*
X156572857Y-82283904D01*
X156621238Y-82235523D01*
X156669619Y-82138761D01*
X156669619Y-81945238D01*
X156621238Y-81848476D01*
X156572857Y-81800095D01*
X156476095Y-81751714D01*
X156234190Y-81751714D01*
X156137429Y-81800095D01*
X156089048Y-81848476D01*
X156040667Y-81945238D01*
X156040667Y-82138761D01*
X156089048Y-82235523D01*
X156137429Y-82283904D01*
X156234190Y-82332285D01*
X159112857Y-82719333D02*
X159161238Y-82767714D01*
X159209619Y-82912857D01*
X159209619Y-83009619D01*
X159161238Y-83154761D01*
X159064476Y-83251523D01*
X158967714Y-83299904D01*
X158774190Y-83348285D01*
X158629048Y-83348285D01*
X158435524Y-83299904D01*
X158338762Y-83251523D01*
X158242000Y-83154761D01*
X158193619Y-83009619D01*
X158193619Y-82912857D01*
X158242000Y-82767714D01*
X158290381Y-82719333D01*
X158629048Y-82138761D02*
X158580667Y-82235523D01*
X158532286Y-82283904D01*
X158435524Y-82332285D01*
X158387143Y-82332285D01*
X158290381Y-82283904D01*
X158242000Y-82235523D01*
X158193619Y-82138761D01*
X158193619Y-81945238D01*
X158242000Y-81848476D01*
X158290381Y-81800095D01*
X158387143Y-81751714D01*
X158435524Y-81751714D01*
X158532286Y-81800095D01*
X158580667Y-81848476D01*
X158629048Y-81945238D01*
X158629048Y-82138761D01*
X158677429Y-82235523D01*
X158725810Y-82283904D01*
X158822571Y-82332285D01*
X159016095Y-82332285D01*
X159112857Y-82283904D01*
X159161238Y-82235523D01*
X159209619Y-82138761D01*
X159209619Y-81945238D01*
X159161238Y-81848476D01*
X159112857Y-81800095D01*
X159016095Y-81751714D01*
X158822571Y-81751714D01*
X158725810Y-81800095D01*
X158677429Y-81848476D01*
X158629048Y-81945238D01*
X169272857Y-82719333D02*
X169321238Y-82767714D01*
X169369619Y-82912857D01*
X169369619Y-83009619D01*
X169321238Y-83154761D01*
X169224476Y-83251523D01*
X169127714Y-83299904D01*
X168934190Y-83348285D01*
X168789048Y-83348285D01*
X168595524Y-83299904D01*
X168498762Y-83251523D01*
X168402000Y-83154761D01*
X168353619Y-83009619D01*
X168353619Y-82912857D01*
X168402000Y-82767714D01*
X168450381Y-82719333D01*
X169369619Y-82235523D02*
X169369619Y-82041999D01*
X169321238Y-81945238D01*
X169272857Y-81896857D01*
X169127714Y-81800095D01*
X168934190Y-81751714D01*
X168547143Y-81751714D01*
X168450381Y-81800095D01*
X168402000Y-81848476D01*
X168353619Y-81945238D01*
X168353619Y-82138761D01*
X168402000Y-82235523D01*
X168450381Y-82283904D01*
X168547143Y-82332285D01*
X168789048Y-82332285D01*
X168885810Y-82283904D01*
X168934190Y-82235523D01*
X168982571Y-82138761D01*
X168982571Y-81945238D01*
X168934190Y-81848476D01*
X168885810Y-81800095D01*
X168789048Y-81751714D01*
X136990667Y-105772857D02*
X136942286Y-105821238D01*
X136797143Y-105869619D01*
X136700381Y-105869619D01*
X136555239Y-105821238D01*
X136458477Y-105724476D01*
X136410096Y-105627714D01*
X136361715Y-105434190D01*
X136361715Y-105289048D01*
X136410096Y-105095524D01*
X136458477Y-104998762D01*
X136555239Y-104902000D01*
X136700381Y-104853619D01*
X136797143Y-104853619D01*
X136942286Y-104902000D01*
X136990667Y-104950381D01*
X137329334Y-104853619D02*
X138006667Y-104853619D01*
X137571239Y-105869619D01*
X99435714Y-108562857D02*
X99435714Y-109534286D01*
X99492857Y-109648571D01*
X99550000Y-109705714D01*
X99664286Y-109762857D01*
X99892857Y-109762857D01*
X100007143Y-109705714D01*
X100064286Y-109648571D01*
X100121429Y-109534286D01*
X100121429Y-108562857D01*
X100635714Y-108677143D02*
X100692857Y-108620000D01*
X100807143Y-108562857D01*
X101092857Y-108562857D01*
X101207143Y-108620000D01*
X101264286Y-108677143D01*
X101321429Y-108791429D01*
X101321429Y-108905714D01*
X101264286Y-109077143D01*
X100578572Y-109762857D01*
X101321429Y-109762857D01*
X100036932Y-100721348D02*
X99988551Y-100769729D01*
X99843408Y-100818110D01*
X99746646Y-100818110D01*
X99601504Y-100769729D01*
X99504742Y-100672967D01*
X99456361Y-100576205D01*
X99407980Y-100382681D01*
X99407980Y-100237539D01*
X99456361Y-100044015D01*
X99504742Y-99947253D01*
X99601504Y-99850491D01*
X99746646Y-99802110D01*
X99843408Y-99802110D01*
X99988551Y-99850491D01*
X100036932Y-99898872D01*
X100907789Y-100140777D02*
X100907789Y-100818110D01*
X100665885Y-99753729D02*
X100423980Y-100479443D01*
X101052932Y-100479443D01*
X79367143Y-100687143D02*
X79319524Y-100734762D01*
X79176667Y-100782381D01*
X79081429Y-100782381D01*
X78938571Y-100734762D01*
X78843333Y-100639524D01*
X78795714Y-100544286D01*
X78748095Y-100353810D01*
X78748095Y-100210952D01*
X78795714Y-100020476D01*
X78843333Y-99925238D01*
X78938571Y-99830000D01*
X79081429Y-99782381D01*
X79176667Y-99782381D01*
X79319524Y-99830000D01*
X79367143Y-99877619D01*
X80319524Y-100782381D02*
X79748095Y-100782381D01*
X80033809Y-100782381D02*
X80033809Y-99782381D01*
X79938571Y-99925238D01*
X79843333Y-100020476D01*
X79748095Y-100068095D01*
X80700476Y-99877619D02*
X80748095Y-99830000D01*
X80843333Y-99782381D01*
X81081429Y-99782381D01*
X81176667Y-99830000D01*
X81224286Y-99877619D01*
X81271905Y-99972857D01*
X81271905Y-100068095D01*
X81224286Y-100210952D01*
X80652857Y-100782381D01*
X81271905Y-100782381D01*
X85717143Y-100687143D02*
X85669524Y-100734762D01*
X85526667Y-100782381D01*
X85431429Y-100782381D01*
X85288571Y-100734762D01*
X85193333Y-100639524D01*
X85145714Y-100544286D01*
X85098095Y-100353810D01*
X85098095Y-100210952D01*
X85145714Y-100020476D01*
X85193333Y-99925238D01*
X85288571Y-99830000D01*
X85431429Y-99782381D01*
X85526667Y-99782381D01*
X85669524Y-99830000D01*
X85717143Y-99877619D01*
X86669524Y-100782381D02*
X86098095Y-100782381D01*
X86383809Y-100782381D02*
X86383809Y-99782381D01*
X86288571Y-99925238D01*
X86193333Y-100020476D01*
X86098095Y-100068095D01*
X87002857Y-99782381D02*
X87621905Y-99782381D01*
X87288571Y-100163333D01*
X87431429Y-100163333D01*
X87526667Y-100210952D01*
X87574286Y-100258571D01*
X87621905Y-100353810D01*
X87621905Y-100591905D01*
X87574286Y-100687143D01*
X87526667Y-100734762D01*
X87431429Y-100782381D01*
X87145714Y-100782381D01*
X87050476Y-100734762D01*
X87002857Y-100687143D01*
X105903122Y-100721348D02*
X105854741Y-100769729D01*
X105709598Y-100818110D01*
X105612836Y-100818110D01*
X105467694Y-100769729D01*
X105370932Y-100672967D01*
X105322551Y-100576205D01*
X105274170Y-100382681D01*
X105274170Y-100237539D01*
X105322551Y-100044015D01*
X105370932Y-99947253D01*
X105467694Y-99850491D01*
X105612836Y-99802110D01*
X105709598Y-99802110D01*
X105854741Y-99850491D01*
X105903122Y-99898872D01*
X106870741Y-100818110D02*
X106290170Y-100818110D01*
X106580456Y-100818110D02*
X106580456Y-99802110D01*
X106483694Y-99947253D01*
X106386932Y-100044015D01*
X106290170Y-100092396D01*
X107741598Y-100140777D02*
X107741598Y-100818110D01*
X107499694Y-99753729D02*
X107257789Y-100479443D01*
X107886741Y-100479443D01*
X94473122Y-100721348D02*
X94424741Y-100769729D01*
X94279598Y-100818110D01*
X94182836Y-100818110D01*
X94037694Y-100769729D01*
X93940932Y-100672967D01*
X93892551Y-100576205D01*
X93844170Y-100382681D01*
X93844170Y-100237539D01*
X93892551Y-100044015D01*
X93940932Y-99947253D01*
X94037694Y-99850491D01*
X94182836Y-99802110D01*
X94279598Y-99802110D01*
X94424741Y-99850491D01*
X94473122Y-99898872D01*
X95440741Y-100818110D02*
X94860170Y-100818110D01*
X95150456Y-100818110D02*
X95150456Y-99802110D01*
X95053694Y-99947253D01*
X94956932Y-100044015D01*
X94860170Y-100092396D01*
X96359979Y-99802110D02*
X95876170Y-99802110D01*
X95827789Y-100285920D01*
X95876170Y-100237539D01*
X95972932Y-100189158D01*
X96214836Y-100189158D01*
X96311598Y-100237539D01*
X96359979Y-100285920D01*
X96408360Y-100382681D01*
X96408360Y-100624586D01*
X96359979Y-100721348D01*
X96311598Y-100769729D01*
X96214836Y-100818110D01*
X95972932Y-100818110D01*
X95876170Y-100769729D01*
X95827789Y-100721348D01*
X85717143Y-107672143D02*
X85669524Y-107719762D01*
X85526667Y-107767381D01*
X85431429Y-107767381D01*
X85288571Y-107719762D01*
X85193333Y-107624524D01*
X85145714Y-107529286D01*
X85098095Y-107338810D01*
X85098095Y-107195952D01*
X85145714Y-107005476D01*
X85193333Y-106910238D01*
X85288571Y-106815000D01*
X85431429Y-106767381D01*
X85526667Y-106767381D01*
X85669524Y-106815000D01*
X85717143Y-106862619D01*
X86669524Y-107767381D02*
X86098095Y-107767381D01*
X86383809Y-107767381D02*
X86383809Y-106767381D01*
X86288571Y-106910238D01*
X86193333Y-107005476D01*
X86098095Y-107053095D01*
X87526667Y-106767381D02*
X87336190Y-106767381D01*
X87240952Y-106815000D01*
X87193333Y-106862619D01*
X87098095Y-107005476D01*
X87050476Y-107195952D01*
X87050476Y-107576905D01*
X87098095Y-107672143D01*
X87145714Y-107719762D01*
X87240952Y-107767381D01*
X87431429Y-107767381D01*
X87526667Y-107719762D01*
X87574286Y-107672143D01*
X87621905Y-107576905D01*
X87621905Y-107338810D01*
X87574286Y-107243571D01*
X87526667Y-107195952D01*
X87431429Y-107148333D01*
X87240952Y-107148333D01*
X87145714Y-107195952D01*
X87098095Y-107243571D01*
X87050476Y-107338810D01*
X87296667Y-91527381D02*
X87296667Y-92241667D01*
X87249047Y-92384524D01*
X87153809Y-92479762D01*
X87010952Y-92527381D01*
X86915714Y-92527381D01*
X88201429Y-91860714D02*
X88201429Y-92527381D01*
X87963333Y-91479762D02*
X87725238Y-92194048D01*
X88344286Y-92194048D01*
X91106667Y-91527381D02*
X91106667Y-92241667D01*
X91059047Y-92384524D01*
X90963809Y-92479762D01*
X90820952Y-92527381D01*
X90725714Y-92527381D01*
X92059048Y-91527381D02*
X91582857Y-91527381D01*
X91535238Y-92003571D01*
X91582857Y-91955952D01*
X91678095Y-91908333D01*
X91916191Y-91908333D01*
X92011429Y-91955952D01*
X92059048Y-92003571D01*
X92106667Y-92098810D01*
X92106667Y-92336905D01*
X92059048Y-92432143D01*
X92011429Y-92479762D01*
X91916191Y-92527381D01*
X91678095Y-92527381D01*
X91582857Y-92479762D01*
X91535238Y-92432143D01*
X79676667Y-88987381D02*
X79676667Y-89701667D01*
X79629047Y-89844524D01*
X79533809Y-89939762D01*
X79390952Y-89987381D01*
X79295714Y-89987381D01*
X80581429Y-88987381D02*
X80390952Y-88987381D01*
X80295714Y-89035000D01*
X80248095Y-89082619D01*
X80152857Y-89225476D01*
X80105238Y-89415952D01*
X80105238Y-89796905D01*
X80152857Y-89892143D01*
X80200476Y-89939762D01*
X80295714Y-89987381D01*
X80486191Y-89987381D01*
X80581429Y-89939762D01*
X80629048Y-89892143D01*
X80676667Y-89796905D01*
X80676667Y-89558810D01*
X80629048Y-89463571D01*
X80581429Y-89415952D01*
X80486191Y-89368333D01*
X80295714Y-89368333D01*
X80200476Y-89415952D01*
X80152857Y-89463571D01*
X80105238Y-89558810D01*
M02*
